<svg width="222" height="35" viewBox="0 0 222 35" fill="none" xmlns="http://www.w3.org/2000/svg">
<path d="M31.5072 21.3315C31.2459 21.3315 30.9892 21.3513 30.736 21.3807C28.9247 20.3358 27.262 18.7304 26.0345 16.651C24.7962 14.554 24.2027 12.3166 24.186 10.2348C25.0354 9.12954 25.495 7.78133 25.4947 6.39525C25.4947 2.86313 22.5869 0 19.0002 0C15.4135 0 12.5057 2.86313 12.5057 6.39525C12.5057 7.80053 12.9715 9.09565 13.7512 10.1511C13.7504 12.2565 13.1573 14.5259 11.9028 16.651C10.6782 18.7249 9.02188 20.327 7.21614 21.3723C6.97657 21.3453 6.73566 21.3314 6.49452 21.3307C2.9078 21.3307 0 24.1938 0 27.7255C0 31.2576 2.9078 34.1224 6.49452 34.1224C9.12692 34.1224 11.3878 32.5763 12.4075 30.3586C14.2504 29.3045 16.5275 28.6716 19.0083 28.6716C21.4789 28.6716 23.7475 29.3003 25.5861 30.3464C26.6032 32.5708 28.8688 34.122 31.5063 34.122C35.0931 34.122 38 31.2581 38 27.7259C38.0009 24.1942 35.0939 21.3315 31.5072 21.3315ZM12.3921 25.0613C12.2071 24.6654 11.9813 24.2892 11.7183 23.9386C11.7508 21.8798 12.3473 19.6739 13.5689 17.6051C14.8418 15.4501 16.5826 13.8047 18.4712 12.7649C18.6462 12.7787 18.8217 12.7913 19.0002 12.7913C19.1591 12.7913 19.3145 12.7792 19.4708 12.7678C21.3576 13.8081 23.0968 15.4518 24.3679 17.6051C25.607 19.7025 26.2014 21.9408 26.2181 24.0239C25.9792 24.3542 25.773 24.7062 25.6023 25.0752C23.7607 26.1268 21.4862 26.7588 19.0092 26.7588C16.5207 26.7588 14.238 26.1209 12.3921 25.0613Z" fill="#465EFD"/>
<path d="M68.5192 28.4438V5.29071H63.8853V20.5487L54.9568 5.29071H50V28.4438H54.6339V13.2019L63.5624 28.4438H68.5192Z" fill="#465EFD"/>
<path d="M87.6934 28.4438V23.8099H76.4557V19.192H84.0606V14.5586H76.4557V9.92464H87.6934V5.29071H71.8223V28.4438H87.6934Z" fill="#465EFD"/>
<path d="M99.6664 28.4438V9.92464H106.609V5.29071H88.0898V9.92464H95.0485V28.4438H99.6664Z" fill="#465EFD"/>
<path d="M130.029 16.9642C130.029 15.8661 129.887 14.8061 129.601 13.7833C129.316 12.761 128.915 11.8081 128.399 10.9254C127.882 10.0431 127.258 9.23575 126.526 8.50369C125.794 7.77163 124.987 7.1475 124.104 6.63083C123.221 6.11416 122.269 5.71323 121.246 5.42803C120.224 5.14283 119.163 5 118.065 5C116.968 5 115.91 5.14283 114.893 5.42803C113.875 5.71323 112.923 6.11416 112.035 6.63083C111.147 7.1475 110.337 7.77163 109.605 8.50369C108.873 9.23575 108.246 10.0431 107.724 10.9254C107.202 11.8081 106.798 12.761 106.513 13.7833C106.228 14.8061 106.085 15.8661 106.085 16.9642C106.085 18.0623 106.228 19.1195 106.513 20.1367C106.798 21.154 107.202 22.1065 107.724 22.9947C108.246 23.8825 108.873 24.6926 109.605 25.4246C110.337 26.1567 111.147 26.7836 112.035 27.3053C112.923 27.8275 113.875 28.2312 114.893 28.5164C115.91 28.8016 116.968 28.9444 118.065 28.9444C119.163 28.9444 120.224 28.8016 121.246 28.5164C122.269 28.2312 123.221 27.8275 124.104 27.3053C124.987 26.7836 125.794 26.1567 126.526 25.4246C127.258 24.6926 127.882 23.8825 128.399 22.9947C128.915 22.1065 129.316 21.154 129.601 20.1367C129.887 19.1195 130.029 18.0623 130.029 16.9642ZM125.428 16.9642C125.428 17.9759 125.234 18.9257 124.847 19.8139C124.459 20.7021 123.935 21.4796 123.272 22.1469C122.61 22.8142 121.83 23.3419 120.931 23.7291C120.033 24.1167 119.077 24.3105 118.065 24.3105C117.043 24.3105 116.085 24.1167 115.191 23.7291C114.298 23.3419 113.518 22.8142 112.85 22.1469C112.183 21.4796 111.655 20.7021 111.268 19.8139C110.881 18.9257 110.687 17.9759 110.687 16.9642C110.687 15.9524 110.881 14.9972 111.268 14.0984C111.655 13.1996 112.183 12.4189 112.85 11.7571C113.518 11.0953 114.298 10.5704 115.191 10.1827C116.085 9.79559 117.043 9.60178 118.065 9.60178C119.077 9.60178 120.032 9.79559 120.931 10.1827C121.83 10.5704 122.61 11.0953 123.272 11.7571C123.935 12.4189 124.459 13.1996 124.847 14.0984C125.234 14.9972 125.428 15.9524 125.428 16.9642Z" fill="#465EFD"/>
<path d="M155.049 21.824V5.29071H150.431V21.824C150.431 22.1469 150.369 22.4509 150.246 22.7361C150.122 23.0213 149.955 23.2689 149.745 23.4788C149.535 23.6886 149.29 23.8531 149.01 23.9715C148.731 24.09 148.429 24.1488 148.107 24.1488C147.783 24.1488 147.482 24.09 147.202 23.9715C146.922 23.8531 146.677 23.6886 146.467 23.4788C146.258 23.2689 146.094 23.0213 145.975 22.7361C145.857 22.4509 145.797 22.1469 145.797 21.824V5.29071H141.163V21.824C141.163 22.1469 141.104 22.4509 140.986 22.7361C140.868 23.0213 140.703 23.2689 140.493 23.4788C140.283 23.6886 140.039 23.8531 139.759 23.9715C139.479 24.09 139.178 24.1488 138.855 24.1488C138.532 24.1488 138.231 24.09 137.95 23.9715C137.671 23.8531 137.426 23.6886 137.216 23.4788C137.006 23.2689 136.842 23.0213 136.723 22.7361C136.605 22.4509 136.546 22.1469 136.546 21.824V5.29071H131.912V21.824C131.912 22.7821 132.092 23.6836 132.453 24.5286C132.814 25.3732 133.309 26.1108 133.938 26.7404C134.568 27.3701 135.306 27.8651 136.15 28.2257C136.995 28.5866 137.897 28.7667 138.855 28.7667C139.716 28.7667 140.545 28.616 141.341 28.3148C142.138 28.013 142.854 27.5721 143.489 26.9907C144.124 27.5721 144.837 28.013 145.628 28.3148C146.419 28.616 147.245 28.7667 148.107 28.7667C149.065 28.7667 149.966 28.5866 150.811 28.2257C151.656 27.8651 152.393 27.3701 153.023 26.7404C153.653 26.1108 154.148 25.3732 154.508 24.5286C154.869 23.6836 155.049 22.7821 155.049 21.824Z" fill="#465EFD"/>
<path d="M180.875 16.9642C180.875 15.8661 180.732 14.8061 180.447 13.7833C180.162 12.761 179.761 11.8081 179.244 10.9254C178.728 10.0431 178.103 9.23575 177.371 8.50369C176.639 7.77163 175.832 7.1475 174.949 6.63083C174.067 6.11416 173.114 5.71323 172.091 5.42803C171.069 5.14283 170.009 5 168.911 5C167.813 5 166.755 5.14283 165.738 5.42803C164.721 5.71323 163.768 6.11416 162.88 6.63083C161.992 7.1475 161.182 7.77163 160.45 8.50369C159.718 9.23575 159.091 10.0431 158.569 10.9254C158.047 11.8081 157.643 12.761 157.358 13.7833C157.073 14.8061 156.931 15.8661 156.931 16.9642C156.931 18.0623 157.073 19.1195 157.358 20.1367C157.643 21.154 158.047 22.1065 158.569 22.9947C159.091 23.8825 159.718 24.6926 160.45 25.4246C161.182 26.1567 161.992 26.7836 162.88 27.3053C163.768 27.8275 164.721 28.2312 165.738 28.5164C166.755 28.8016 167.813 28.9444 168.911 28.9444C170.009 28.9444 171.069 28.8016 172.091 28.5164C173.114 28.2312 174.067 27.8275 174.949 27.3053C175.832 26.7836 176.639 26.1567 177.371 25.4246C178.103 24.6926 178.728 23.8825 179.244 22.9947C179.761 22.1065 180.162 21.154 180.447 20.1367C180.732 19.1195 180.875 18.0623 180.875 16.9642ZM176.273 16.9642C176.273 17.9759 176.079 18.9257 175.692 19.8139C175.304 20.7021 174.78 21.4796 174.118 22.1469C173.456 22.8142 172.675 23.3419 171.777 23.7291C170.878 24.1167 169.923 24.3105 168.911 24.3105C167.888 24.3105 166.93 24.1167 166.037 23.7291C165.143 23.3419 164.363 22.8142 163.696 22.1469C163.028 21.4796 162.501 20.7021 162.113 19.8139C161.726 18.9257 161.532 17.9759 161.532 16.9642C161.532 15.9524 161.726 14.9972 162.113 14.0984C162.501 13.1996 163.028 12.4189 163.696 11.7571C164.363 11.0953 165.143 10.5704 166.037 10.1827C166.93 9.79559 167.888 9.60178 168.911 9.60178C169.923 9.60178 170.878 9.79559 171.777 10.1827C172.675 10.5704 173.456 11.0953 174.118 11.7571C174.78 12.4189 175.304 13.1996 175.692 14.0984C176.079 14.9972 176.273 15.9524 176.273 16.9642Z" fill="#465EFD"/>
<path d="M187.552 9.92464H192.185C192.821 9.92464 193.418 10.0454 193.978 10.2879C194.537 10.5299 195.027 10.8611 195.447 11.2808C195.867 11.7006 196.198 12.1929 196.44 12.7583C196.682 13.3232 196.803 13.9234 196.803 14.5586C196.803 15.1933 196.682 15.7935 196.44 16.3589C196.198 16.9238 195.867 17.4161 195.447 17.8358C195.027 18.2556 194.537 18.5867 193.978 18.8288C193.418 19.0712 192.821 19.192 192.185 19.192H187.552V9.92464ZM187.552 28.4438V23.8099L192.735 23.7777L194.753 28.4438H199.677L197.11 22.3889C197.777 21.9692 198.38 21.4741 198.919 20.9037C199.456 20.3333 199.911 19.7087 200.283 19.0308C200.654 18.3525 200.939 17.637 201.139 16.8833C201.337 16.1297 201.437 15.3549 201.437 14.5586C201.437 13.708 201.327 12.8901 201.106 12.1043C200.886 11.3185 200.573 10.5814 200.17 9.89203C199.766 9.20314 199.282 8.57625 198.716 8.01136C198.152 7.44601 197.527 6.96196 196.844 6.55827C196.16 6.15458 195.425 5.84228 194.64 5.62184C193.854 5.40093 193.036 5.29071 192.185 5.29071H182.918V28.4438H187.552Z" fill="#465EFD"/>
<path d="M208.114 28.4438V23.8099L211.65 19.0791L216.737 28.4438H222L214.686 15.0587L222 5.29071H216.737L208.114 16.8673V5.29071H203.48V28.4438H208.114Z" fill="#465EFD"/>
</svg>
