<svg width="500" height="500" viewBox="0 0 500 500" fill="none" xmlns="http://www.w3.org/2000/svg">
<path d="M334 34.58C334 34.58 256.6 7.06001 180.63 50.88C104.66 94.7 66.3 181.67 33.38 251.34C0.459974 321.01 19.38 391.89 77.38 424.2C135.38 456.51 174.81 408.88 256.17 406.56C337.53 404.24 359.44 415.87 427 369.91C494.56 323.95 506.71 215.4 453.46 135.09C400.21 54.78 334 34.58 334 34.58Z" fill="#465EFD" fill-opacity="0.2"/>
<path d="M40.9302 283.3C40.9302 283.3 42.7902 286.83 41.1402 290.14C39.4902 293.45 37.4102 296.77 38.6502 298.43C39.8902 300.09 43.6502 302.16 43.2102 305.68C42.7702 309.2 37.8202 316.25 40.9302 320.19C44.0402 324.13 49.2202 323.92 49.4302 328.27C49.6402 332.62 44.4302 336.14 45.9002 340.08C47.3702 344.02 55.9002 344.85 55.9002 347.54C55.9002 350.23 52.5802 353.14 55.2802 356.04C57.9802 358.94 71.0002 366.51 72.8202 363.4C74.6402 360.29 78.4402 351.69 75.9702 339.48C75.5502 337.43 72.6302 336.97 72.2202 334.07C71.8102 331.17 73.0502 325.99 70.9802 323.07C68.9102 320.15 62.2702 319.13 61.8602 316.85C61.4502 314.57 64.3402 308.98 61.4402 305.46C58.5402 301.94 51.7002 300.3 51.7002 298C51.7002 295.7 53.7802 292.82 50.8802 289.71C47.9802 286.6 40.9302 283.3 40.9302 283.3Z" fill="#465EFD"/>
<path d="M50.8506 307.72C55.1706 320.72 62.7306 338.39 65.8006 346.92C69.5306 357.28 72.8006 364.78 74.4306 375.14C76.0606 385.5 77.0006 454.89 77.0006 454.89" stroke="#263238" stroke-linecap="round" stroke-linejoin="round"/>
<path d="M42 284.55C42 284.55 45.52 287.45 48.63 300.09C48.83 300.9 49.06 301.76 49.31 302.67" stroke="#263238" stroke-linecap="round" stroke-linejoin="round"/>
<path d="M105.7 306.91C105.279 307.757 105.046 308.686 105.018 309.632C104.991 310.579 105.169 311.519 105.54 312.39C106.86 315.04 108.54 317.69 107.54 319.02C106.54 320.35 103.54 322.02 103.89 324.82C104.24 327.62 108.2 333.28 105.71 336.43C103.22 339.58 99.0803 339.43 98.9103 342.9C98.7403 346.37 102.91 349.2 101.73 352.35C100.55 355.5 93.7303 356.17 93.7303 358.35C93.7303 360.53 96.3903 362.83 94.2303 365.15C92.0703 367.47 81.6703 373.5 80.1803 371C78.6903 368.5 75.6903 361.63 77.6603 351.86C77.9903 350.22 80.3303 349.86 80.6603 347.53C80.9903 345.2 80.0003 341.06 81.6603 338.74C83.3203 336.42 88.6603 335.59 88.9503 333.74C89.2403 331.89 86.9503 327.44 89.2803 324.62C91.6103 321.8 97.0803 320.47 97.0803 318.62C97.0803 316.77 95.4203 314.47 97.7403 311.98C100.06 309.49 105.7 306.91 105.7 306.91Z" fill="#465EFD"/>
<path d="M97.7606 326.45C94.3106 336.88 88.2606 351 85.7606 357.82C82.7606 366.12 80.1805 372.12 78.8605 380.41C77.5405 388.7 76.8105 444.23 76.8105 444.23" stroke="#263238" stroke-linecap="round" stroke-linejoin="round"/>
<path d="M104.871 307.91C104.871 307.91 102.051 310.23 99.5705 320.35C99.4105 321 99.2205 321.69 99.0205 322.41" stroke="#263238" stroke-linecap="round" stroke-linejoin="round"/>
<path d="M48.6798 353.87C49.0308 354.577 49.225 355.351 49.2492 356.14C49.2734 356.929 49.1269 357.713 48.8198 358.44C47.7098 360.66 46.3198 362.87 47.1498 363.98C47.9798 365.09 50.4798 366.48 50.1998 368.83C49.9198 371.18 46.5998 375.9 48.6798 378.53C50.7598 381.16 54.2198 381.02 54.3598 383.93C54.4998 386.84 50.9998 389.2 51.9998 391.83C52.9998 394.46 58.6498 395.02 58.6498 396.83C58.6498 398.64 56.4398 400.57 58.2398 402.51C60.0398 404.45 68.7498 409.51 69.9998 407.43C71.2498 405.35 73.7598 399.6 72.0998 391.43C71.8298 390.06 69.8798 389.75 69.5998 387.81C69.3198 385.87 70.1498 382.41 68.7698 380.47C67.3898 378.53 62.9498 377.84 62.6698 376.31C62.3898 374.78 64.3298 371.05 62.3898 368.69C60.4498 366.33 55.8798 365.23 55.8798 363.69C55.8798 362.15 57.2698 360.22 55.3298 358.14C53.3898 356.06 48.6798 353.87 48.6798 353.87Z" fill="#465EFD"/>
<path d="M55.3105 370.2C58.2005 378.91 63.2505 390.7 65.3105 396.4C67.8105 403.33 69.9805 408.4 71.0805 415.27C72.1805 422.14 72.8005 447.91 72.8005 447.91" stroke="#263238" stroke-linecap="round" stroke-linejoin="round"/>
<path d="M49.3701 354.7C49.3701 354.7 51.7301 356.64 53.8001 365.09C53.9401 365.64 54.0901 366.21 54.2601 366.81" stroke="#263238" stroke-linecap="round" stroke-linejoin="round"/>
<path d="M120 350.42C119.495 351.027 119.128 351.737 118.924 352.5C118.72 353.263 118.685 354.062 118.82 354.84C119.39 357.25 120.24 359.72 119.17 360.61C118.1 361.5 115.37 362.28 115.1 364.61C114.83 366.94 116.99 372.31 114.36 374.4C111.73 376.49 108.36 375.55 107.59 378.4C106.82 381.25 109.59 384.28 108.08 386.62C106.57 388.96 100.88 388.2 100.46 389.96C100.04 391.72 101.77 394.1 99.5701 395.58C97.3701 397.06 87.7701 400 87.0001 397.67C86.2301 395.34 85.1401 389.19 88.6101 381.62C89.2001 380.35 91.1701 380.5 91.8801 378.67C92.5901 376.84 92.5801 373.29 94.3701 371.72C96.1601 370.15 100.64 370.48 101.26 369.06C101.88 367.64 100.84 363.56 103.26 361.71C105.68 359.86 110.39 359.83 110.74 358.34C111.09 356.85 110.18 354.66 112.55 353.08C114.92 351.5 120 350.42 120 350.42Z" fill="#465EFD"/>
<path d="M109.85 364.79C105.05 372.61 97.4305 382.94 94.1305 388.02C90.1305 394.19 85.3005 398.14 84.1905 405.07C83.0805 412 82.4805 437.71 82.4805 437.71" stroke="#263238" stroke-linecap="round" stroke-linejoin="round"/>
<path d="M119.181 351.07C119.181 351.07 116.441 352.42 112.491 360.17C112.231 360.67 111.951 361.17 111.641 361.74" stroke="#263238" stroke-linecap="round" stroke-linejoin="round"/>
<path d="M70.8306 462.7H86.2406C94.3506 458.52 100.111 447.94 100.111 435.53C100.242 428.09 97.9697 420.805 93.6306 414.76H63.4406C59.1156 420.81 56.8572 428.094 57.0006 435.53C57.0006 447.94 62.7206 458.52 70.8306 462.7Z" fill="white" stroke="#263238" stroke-linecap="round" stroke-linejoin="round"/>
<path d="M86.5201 462.7H70.8301V465H86.5201V462.7Z" fill="white" stroke="#263238" stroke-linecap="round" stroke-linejoin="round"/>
<path d="M300.38 75H54.7402V260.92H300.38V75Z" stroke="#263238" stroke-linecap="round" stroke-linejoin="round"/>
<path d="M294.641 79.9299H60.4707V256H294.641V79.9299Z" stroke="#263238" stroke-linecap="round" stroke-linejoin="round"/>
<path d="M131.85 105.77C131.85 105.77 93.5899 103 90.3699 109C87.1499 115 89.4399 224.7 91.2899 226.08C93.1399 227.46 144.76 228.38 149.83 226.54C154.9 224.7 148 113.14 148 109.91C148 106.68 136 105.3 136 105.3" stroke="#263238" stroke-width="2" stroke-linecap="round" stroke-linejoin="round"/>
<path d="M94.3203 196.57C94.4003 211.03 94.7103 221.63 95.4403 221.92C97.7403 222.84 146.6 226.99 147.98 222.38C149.36 217.77 144.29 113.6 144.29 113.6" stroke="#263238" stroke-width="2" stroke-linecap="round" stroke-linejoin="round"/>
<path d="M142.451 113.14C142.451 113.14 95.9006 111.3 95.4506 113.6C95.1506 115.07 94.3006 158.26 94.3106 189.66" stroke="#263238" stroke-width="2" stroke-linecap="round" stroke-linejoin="round"/>
<path d="M96.8203 121.44H141.99" stroke="#263238" stroke-width="2" stroke-linecap="round" stroke-linejoin="round"/>
<path d="M137.84 119.35C135.08 122.27 137.84 119.35 139.69 115.18C141.54 111.01 137.84 116.01 133.69 119.35C129.54 122.69 131.85 120.19 133.23 115.6C134.61 111.01 131.85 115.6 128.16 118.52C124.47 121.44 126.32 120.19 127.7 115.18C129.08 110.17 127.7 115.18 122.17 118.52C116.64 121.86 119.4 121.85 122.17 116.85C124.94 111.85 120.33 116.85 115.26 118.52C110.19 120.19 115.26 118.52 117.1 113.93C118.94 109.34 113.87 115.18 110.19 117.68C106.51 120.18 110.19 117.68 111.11 114.76C112.03 111.84 108.8 115.6 105.11 119.35C101.42 123.1 105.11 119.35 105.57 116.01C106.03 112.67 101.42 121.44 101.42 121.44C101.42 121.44 102.8 113.09 101.88 115.18C101.267 116.52 100.491 117.779 99.5703 118.93" stroke="#465EFD" stroke-width="2" stroke-linecap="round" stroke-linejoin="round"/>
<path d="M121.71 129.27H99.1201V152.78H121.71V129.27Z" stroke="#465EFD" stroke-width="2" stroke-linecap="round" stroke-linejoin="round"/>
<path d="M103.73 129.27L100.05 133.42L107.88 130.66L100.05 138.03L112.95 129.73L100.05 143.56L117.56 130.66L99.1201 147.71L121.25 132.5L99.1201 152.78L121.25 138.03L105.58 151.86L121.71 143.1L111.57 151.4L121.25 148.17L119.4 151.4" stroke="#465EFD" stroke-width="2" stroke-linecap="round" stroke-linejoin="round"/>
<path d="M141.18 201.18H123.91V219.16H141.18V201.18Z" stroke="#465EFD" stroke-width="2" stroke-linecap="round" stroke-linejoin="round"/>
<path d="M127.43 201.18L124.61 204.35L130.6 202.24L124.61 207.88L134.48 201.53L124.61 212.11L138 202.24L123.91 215.28L140.82 203.65L123.91 219.16L140.82 207.88L128.84 218.45L141.18 211.75L133.42 218.1L140.82 215.63L139.41 218.1" stroke="#465EFD" stroke-width="2" stroke-linecap="round" stroke-linejoin="round"/>
<path d="M98.6602 161.54H142.91" stroke="#263238" stroke-width="2" stroke-linecap="round" stroke-linejoin="round"/>
<path d="M98.2002 165.69L141.99 166.15" stroke="#263238" stroke-width="2" stroke-linecap="round" stroke-linejoin="round"/>
<path d="M126.32 130.66H140.61" stroke="#263238" stroke-width="2" stroke-linecap="round" stroke-linejoin="round"/>
<path d="M126.32 136.19H140.61" stroke="#263238" stroke-width="2" stroke-linecap="round" stroke-linejoin="round"/>
<path d="M126.32 141.72H140.61" stroke="#263238" stroke-width="2" stroke-linecap="round" stroke-linejoin="round"/>
<path d="M126.32 147.25H140.61" stroke="#263238" stroke-width="2" stroke-linecap="round" stroke-linejoin="round"/>
<path d="M141.99 168.45H99.1201V189.19H141.99V168.45Z" stroke="#465EFD" stroke-width="2" stroke-linecap="round" stroke-linejoin="round"/>
<path d="M98.6602 172.6L104.65 168.91L97.7402 179.51L109.26 168.91L99.1202 184.13L117.1 168.45L101.43 186.89L120.79 168.91L106.04 186.89L127.24 168.45L110.19 188.73L131.39 168.91L115.26 187.81L136.92 168.45L120.33 188.73L141.99 168.45L126.32 188.27L141.07 175.37L131.39 187.35L141.07 180.9L139.17 183.98L137.38 186.89" stroke="#465EFD" stroke-width="2" stroke-linecap="round" stroke-linejoin="round"/>
<path d="M100.971 194.73H140.611" stroke="#263238" stroke-width="2" stroke-linecap="round" stroke-linejoin="round"/>
<path d="M100.05 199.8H112.95" stroke="#263238" stroke-width="2" stroke-linecap="round" stroke-linejoin="round"/>
<path d="M149.83 115.91L181.47 112.02" stroke="#263238" stroke-width="2" stroke-linecap="round" stroke-linejoin="round"/>
<path d="M144.76 138.49H177.94" stroke="#263238" stroke-width="2" stroke-linecap="round" stroke-linejoin="round"/>
<path d="M92.2099 180.44L77.9199 185.51" stroke="#263238" stroke-width="2" stroke-linecap="round" stroke-linejoin="round"/>
<path d="M132.77 222.38C132.77 222.38 130.01 236.67 148.9 240.38" stroke="#263238" stroke-width="2" stroke-linecap="round" stroke-linejoin="round"/>
<path d="M146.14 236.67L150.75 240.82L144.29 242.66" stroke="#263238" stroke-width="2" stroke-linecap="round" stroke-linejoin="round"/>
<path d="M173.79 134.34L181.17 138.95L174.72 141.72" stroke="#263238" stroke-width="2" stroke-linecap="round" stroke-linejoin="round"/>
<path d="M175.48 110.64L183.31 111.56L177.78 116.63" stroke="#263238" stroke-width="2" stroke-linecap="round" stroke-linejoin="round"/>
<path d="M79.7607 180.9L71.9307 187.35L81.6107 187.81" stroke="#263238" stroke-width="2" stroke-linecap="round" stroke-linejoin="round"/>
<path d="M200.991 134.34H183.471V152.78H200.991V134.34Z" fill="#465EFD"/>
<path d="M187.62 138.49L197.76 138.95" stroke="#263238" stroke-width="2" stroke-linecap="round" stroke-linejoin="round"/>
<path d="M187.62 142.18L197.76 142.64" stroke="#263238" stroke-width="2" stroke-linecap="round" stroke-linejoin="round"/>
<path d="M187.62 145.87L197.76 146.33" stroke="#263238" stroke-width="2" stroke-linecap="round" stroke-linejoin="round"/>
<path d="M173.129 159.185L155.729 161.238L157.89 179.551L175.29 177.498L173.129 159.185Z" fill="#465EFD"/>
<path d="M160.33 164.88L170.45 164.15" stroke="#263238" stroke-width="2" stroke-linecap="round" stroke-linejoin="round"/>
<path d="M160.76 168.54L170.88 167.81" stroke="#263238" stroke-width="2" stroke-linecap="round" stroke-linejoin="round"/>
<path d="M161.19 172.2L171.32 171.47" stroke="#263238" stroke-width="2" stroke-linecap="round" stroke-linejoin="round"/>
<path d="M82.3368 190.53L64.9375 192.583L67.0985 210.896L84.4978 208.843L82.3368 190.53Z" fill="#465EFD"/>
<path d="M69.5205 196.22L79.6505 195.49" stroke="#263238" stroke-width="2" stroke-linecap="round" stroke-linejoin="round"/>
<path d="M69.9502 199.89L80.0802 199.16" stroke="#263238" stroke-width="2" stroke-linecap="round" stroke-linejoin="round"/>
<path d="M70.3906 203.55L80.5106 202.82" stroke="#263238" stroke-width="2" stroke-linecap="round" stroke-linejoin="round"/>
<path d="M172.866 228.896L155.444 227.043L153.494 245.38L170.916 247.232L172.866 228.896Z" fill="#465EFD"/>
<path d="M159.15 231.6L169.18 233.13" stroke="#263238" stroke-width="2" stroke-linecap="round" stroke-linejoin="round"/>
<path d="M158.76 235.27L168.79 236.8" stroke="#263238" stroke-width="2" stroke-linecap="round" stroke-linejoin="round"/>
<path d="M158.37 238.94L168.4 240.47" stroke="#263238" stroke-width="2" stroke-linecap="round" stroke-linejoin="round"/>
<path d="M300.37 260.92H54.7402V267.2H300.37V260.92Z" fill="#263238" stroke="#263238" stroke-linecap="round" stroke-linejoin="round"/>
<path d="M398.94 305.93V294.21H363.67V305.93C363.666 309.77 362.342 313.491 359.92 316.47L358.38 318.38H404.23L402.69 316.47C400.267 313.491 398.943 309.77 398.94 305.93Z" fill="#263238" stroke="#263238" stroke-linecap="round" stroke-linejoin="round"/>
<path d="M396.94 305.93V294.21H361.67V305.93C361.666 309.77 360.342 313.491 357.92 316.47L356.38 318.38H402.23L400.69 316.47C398.267 313.491 396.943 309.77 396.94 305.93Z" fill="white" stroke="#263238" stroke-linecap="round" stroke-linejoin="round"/>
<path d="M397.22 297.52H361.81V301.11H397.22V297.52Z" fill="#263238"/>
<path d="M441.7 193.81H316.9C312.217 193.81 308.42 197.607 308.42 202.29V289.42C308.42 294.103 312.217 297.9 316.9 297.9H441.7C446.383 297.9 450.18 294.103 450.18 289.42V202.29C450.18 197.607 446.383 193.81 441.7 193.81Z" fill="#263238" stroke="#263238" stroke-linecap="round" stroke-linejoin="round"/>
<path d="M445.509 193.81H320.709C316.026 193.81 312.229 197.607 312.229 202.29V289.42C312.229 294.103 316.026 297.9 320.709 297.9H445.509C450.193 297.9 453.989 294.103 453.989 289.42V202.29C453.989 197.607 450.193 193.81 445.509 193.81Z" fill="#263238" stroke="#263238" stroke-linecap="round" stroke-linejoin="round"/>
<path d="M308.42 281.72H450.19V289.42C450.19 291.669 449.296 293.826 447.706 295.416C446.116 297.007 443.959 297.9 441.71 297.9H316.91C314.661 297.9 312.504 297.007 310.914 295.416C309.323 293.826 308.43 291.669 308.43 289.42V281.72H308.42Z" fill="white" stroke="#263238" stroke-linecap="round" stroke-linejoin="round"/>
<path d="M443.05 200.29H315.55V273.83H443.05V200.29Z" fill="white"/>
<path d="M359.92 207.95H334.84C333.161 207.95 331.8 209.311 331.8 210.99V262.79C331.8 264.469 333.161 265.83 334.84 265.83H359.92C361.599 265.83 362.96 264.469 362.96 262.79V210.99C362.96 209.311 361.599 207.95 359.92 207.95Z" fill="#263238"/>
<path d="M360.35 212.8H334.42V260.96H360.35V212.8Z" fill="#465EFD"/>
<path d="M394.53 213.61H371.06V216.04H394.53V213.61Z" fill="#263238"/>
<path d="M382.4 218.88H371.47V230.21H382.4V218.88Z" fill="#465EFD"/>
<path d="M392.91 253.68H387.06V259.75H392.91V253.68Z" fill="#465EFD"/>
<path d="M394 238.3H371.74V249.63H394V238.3Z" fill="#465EFD"/>
<path d="M384.42 219.69H393.32" stroke="#263238" stroke-linecap="round" stroke-linejoin="round"/>
<path d="M384.42 222.52H393.32" stroke="#263238" stroke-linecap="round" stroke-linejoin="round"/>
<path d="M384.42 225.35H393.32" stroke="#263238" stroke-linecap="round" stroke-linejoin="round"/>
<path d="M384.42 228.18H393.32" stroke="#263238" stroke-linecap="round" stroke-linejoin="round"/>
<path d="M372.14 234.66H393.59" stroke="#263238" stroke-linecap="round" stroke-linejoin="round"/>
<path d="M372.14 252.47H393.59" stroke="#263238" stroke-linecap="round" stroke-linejoin="round"/>
<path d="M396.56 211.19H369.04V262.19H396.56V211.19Z" stroke="#263238" stroke-linecap="round" stroke-linejoin="round"/>
<path d="M430.15 211.19H404.25V230.21H430.15V211.19Z" fill="#BFBFBF"/>
<path d="M430.15 211.19H404.25V215.24H430.15V211.19Z" fill="#263238"/>
<path d="M413.03 218.18H406.26V224.73H413.03V218.18Z" stroke="#263238" stroke-linecap="round" stroke-linejoin="round"/>
<path d="M426.57 218.18H419.8V224.73H426.57V218.18Z" stroke="#263238" stroke-linecap="round" stroke-linejoin="round"/>
<path d="M427.66 213.49C427.66 213.688 427.601 213.881 427.492 214.045C427.382 214.21 427.226 214.338 427.043 214.414C426.86 214.489 426.659 214.509 426.465 214.471C426.271 214.432 426.093 214.337 425.953 214.197C425.813 214.057 425.718 213.879 425.679 213.685C425.641 213.491 425.661 213.29 425.736 213.107C425.812 212.925 425.94 212.768 426.105 212.658C426.269 212.549 426.462 212.49 426.66 212.49C426.925 212.49 427.18 212.595 427.367 212.783C427.555 212.97 427.66 213.225 427.66 213.49Z" fill="white"/>
<path d="M421.98 214.47C422.521 214.47 422.96 214.031 422.96 213.49C422.96 212.949 422.521 212.51 421.98 212.51C421.439 212.51 421 212.949 421 213.49C421 214.031 421.439 214.47 421.98 214.47Z" fill="white"/>
<path d="M428.08 240.52H408.25V255.09H428.08V240.52Z" fill="#BFBFBF"/>
<path d="M428.08 240.52H408.25V243.62H428.08V240.52Z" fill="#263238"/>
<path d="M426.18 242.28C426.182 242.431 426.139 242.579 426.057 242.705C425.975 242.831 425.857 242.93 425.718 242.989C425.579 243.048 425.426 243.065 425.278 243.037C425.13 243.008 424.994 242.937 424.886 242.831C424.779 242.725 424.706 242.59 424.676 242.442C424.645 242.294 424.66 242.141 424.717 242.002C424.774 241.862 424.872 241.743 424.997 241.659C425.122 241.575 425.269 241.53 425.42 241.53C425.62 241.53 425.812 241.609 425.954 241.749C426.096 241.889 426.177 242.08 426.18 242.28Z" fill="white"/>
<path d="M422.58 242.28C422.58 242.479 422.501 242.67 422.36 242.81C422.22 242.951 422.029 243.03 421.83 243.03C421.631 243.03 421.44 242.951 421.3 242.81C421.159 242.67 421.08 242.479 421.08 242.28C421.08 242.081 421.159 241.89 421.3 241.75C421.44 241.609 421.631 241.53 421.83 241.53C422.029 241.53 422.22 241.609 422.36 241.75C422.501 241.89 422.58 242.081 422.58 242.28Z" fill="white"/>
<path d="M328.08 204.15H319.75V269.48H328.08V204.15Z" fill="#BFBFBF"/>
<path d="M328.08 204.15H319.75V207.15H328.08V204.15Z" fill="#263238"/>
<path d="M325.75 209.15H321.75V213.82H325.75V209.15Z" stroke="#263238" stroke-linecap="round" stroke-linejoin="round"/>
<path d="M325.75 216.81H321.75V221.48H325.75V216.81Z" stroke="#263238" stroke-linecap="round" stroke-linejoin="round"/>
<path d="M325.75 224.48H321.75V229.15H325.75V224.48Z" stroke="#263238" stroke-linecap="round" stroke-linejoin="round"/>
<path d="M325.75 232.15H321.75V236.82H325.75V232.15Z" stroke="#263238" stroke-linecap="round" stroke-linejoin="round"/>
<path d="M325.75 239.81H321.75V244.48H325.75V239.81Z" stroke="#263238" stroke-linecap="round" stroke-linejoin="round"/>
<path d="M325.75 247.48H321.75V252.15H325.75V247.48Z" stroke="#263238" stroke-linecap="round" stroke-linejoin="round"/>
<path d="M325.75 255.15H321.75V259.82H325.75V255.15Z" stroke="#263238" stroke-linecap="round" stroke-linejoin="round"/>
<path d="M325.75 262.81H321.75V267.48H325.75V262.81Z" stroke="#263238" stroke-linecap="round" stroke-linejoin="round"/>
<path d="M439.42 203.48H333.42V206.15H439.42V203.48Z" fill="#BFBFBF"/>
<path d="M439.42 268.15H333.42V270.82H439.42V268.15Z" fill="#BFBFBF"/>
<path d="M402.24 318.38H356.38V320.47H402.24V318.38Z" fill="#263238" stroke="#263238" stroke-linecap="round" stroke-linejoin="round"/>
<path d="M432.22 316.67H325.75V320.47H432.22V316.67Z" fill="white" stroke="#263238" stroke-linecap="round" stroke-linejoin="round"/>
<path d="M230.34 465H226.01L223.84 332.33H232.51L230.34 465Z" fill="white" stroke="#263238" stroke-linecap="round" stroke-linejoin="round"/>
<path d="M230.34 465H228.43L228.69 332.33H232.51L230.34 465Z" fill="#263238" stroke="#263238" stroke-linecap="round" stroke-linejoin="round"/>
<path d="M292.07 465H287.74L285.57 332.33H294.24L292.07 465Z" fill="white" stroke="#263238" stroke-linecap="round" stroke-linejoin="round"/>
<path d="M292.07 465H290.16L290.42 332.33H294.24L292.07 465Z" fill="#263238" stroke="#263238" stroke-linecap="round" stroke-linejoin="round"/>
<path d="M269.97 465H265.63L263.47 332.33H272.13L269.97 465Z" fill="#263238" stroke="#263238" stroke-linecap="round" stroke-linejoin="round"/>
<path d="M269.971 465H268.061L268.311 332.33H272.131L269.971 465Z" fill="#263238" stroke="#263238" stroke-linecap="round" stroke-linejoin="round"/>
<path d="M311.68 465H307.34L305.18 332.33H313.84L311.68 465Z" fill="#263238" stroke="#263238" stroke-linecap="round" stroke-linejoin="round"/>
<path d="M311.68 465H309.76L310.02 332.33H313.84L311.68 465Z" fill="#263238" stroke="#263238" stroke-linecap="round" stroke-linejoin="round"/>
<path d="M314.93 334.36H246.95V417.36H314.93V334.36Z" fill="#263238" stroke="#263238" stroke-linecap="round" stroke-linejoin="round"/>
<path d="M296.16 334.36H228.18V417.36H296.16V334.36Z" fill="white" stroke="#263238" stroke-linecap="round" stroke-linejoin="round"/>
<path d="M433.46 465H429.13L426.96 332.33H435.63L433.46 465Z" fill="white" stroke="#263238" stroke-linecap="round" stroke-linejoin="round"/>
<path d="M433.46 465H431.55L431.81 332.33H435.63L433.46 465Z" fill="#263238" stroke="#263238" stroke-linecap="round" stroke-linejoin="round"/>
<path d="M473.09 465H468.75L466.59 332.33H475.25L473.09 465Z" fill="#263238" stroke="#263238" stroke-linecap="round" stroke-linejoin="round"/>
<path d="M473.09 465H471.18L471.43 332.33H475.25L473.09 465Z" fill="#263238" stroke="#263238" stroke-linecap="round" stroke-linejoin="round"/>
<path d="M477.99 327.33H218.13V336.46H477.99V327.33Z" fill="white" stroke="#263238" stroke-linecap="round" stroke-linejoin="round"/>
<path d="M477.99 327.33H218.13V331.89H477.99V327.33Z" fill="#263238" stroke="#263238" stroke-linecap="round" stroke-linejoin="round"/>
<path d="M477.99 327.33H439.63V336.46H477.99V327.33Z" fill="#263238" stroke="#263238" stroke-linecap="round" stroke-linejoin="round"/>
<path d="M486.39 320H211.08V329.13H486.39V320Z" fill="white" stroke="#263238" stroke-linecap="round" stroke-linejoin="round"/>
<path d="M486.39 320H448.03V329.13H486.39V320Z" fill="#263238" stroke="#263238" stroke-linecap="round" stroke-linejoin="round"/>
<path d="M292 342.33H232.5V371.33H292V342.33Z" fill="white" stroke="#263238" stroke-linecap="round" stroke-linejoin="round"/>
<path d="M268.75 353.83H255.75V358.33H268.75V353.83Z" fill="#263238" stroke="#263238" stroke-linecap="round" stroke-linejoin="round"/>
<path d="M292 378.83H232.5V407.83H292V378.83Z" fill="white" stroke="#263238" stroke-linecap="round" stroke-linejoin="round"/>
<path d="M268.75 390.33H255.75V394.83H268.75V390.33Z" fill="#263238" stroke="#263238" stroke-linecap="round" stroke-linejoin="round"/>
<path d="M383.59 387.47H401.37V351.71H383.59V387.47Z" fill="#263238"/>
<path d="M388.04 424.29H396.93V374.77H388.04V424.29Z" fill="#263238"/>
<path d="M396.1 420.48C396.1 420.48 403.57 428.96 422.77 431.91C432.91 433.47 443.47 435.41 452.63 440.26C458.52 443.38 470.25 450.21 470.25 458.01C470.259 459.156 469.987 460.286 469.458 461.302C468.928 462.318 468.157 463.188 467.213 463.836C466.268 464.485 465.179 464.892 464.041 465.021C462.903 465.15 461.75 464.998 460.684 464.578C459.618 464.158 458.672 463.483 457.928 462.612C457.184 461.741 456.665 460.701 456.417 459.582C456.168 458.464 456.199 457.302 456.504 456.198C456.81 455.094 457.382 454.081 458.17 453.25C453.374 446.035 445.937 440.99 437.46 439.2C422.86 436.02 412.2 437.32 391.66 423.66L396.1 420.48Z" fill="#263238"/>
<path d="M389.75 420.48C389.75 420.48 382.28 428.96 363.08 431.91C352.94 433.47 342.38 435.41 333.22 440.26C327.32 443.38 315.6 450.21 315.6 458.01C315.589 459.157 315.86 460.288 316.389 461.306C316.918 462.323 317.689 463.195 318.634 463.844C319.579 464.494 320.669 464.902 321.808 465.031C322.947 465.161 324.101 465.009 325.168 464.588C326.234 464.167 327.181 463.491 327.926 462.619C328.67 461.746 329.188 460.704 329.435 459.585C329.682 458.465 329.65 457.302 329.343 456.197C329.035 455.093 328.46 454.081 327.67 453.25C332.469 446.037 339.904 440.993 348.38 439.2C362.99 436.02 373.65 437.32 394.19 423.66L389.75 420.48Z" fill="#263238"/>
<path d="M389.45 465H396.16C396.525 465 396.82 464.705 396.82 464.34V452.54C396.82 452.176 396.525 451.88 396.16 451.88H389.45C389.086 451.88 388.79 452.176 388.79 452.54V464.34C388.79 464.705 389.086 465 389.45 465Z" fill="#263238"/>
<path d="M390.9 465H394.71V421.67H390.9V465Z" fill="#263238"/>
<path d="M435.54 248.46C433.32 260.298 431.983 272.284 431.54 284.32C431.25 293.6 431.1 301.55 430.96 308.56C430.54 330.35 430.3 342.43 426.87 345.68C426.43 345.98 423.59 347.73 417.65 348.23C415.99 348.37 410.71 348.44 403.53 348.48C380.76 348.41 356.83 348.22 356.45 348.22H355.06C355 348.22 354.95 348.33 354.9 348.38C341.22 348.3 337.7 348.22 337.45 348.22H336.06C333.19 350.71 334.9 353.91 337.4 353.93C339.27 353.93 371.86 354.22 394.15 354.22C398.09 354.22 401.8 354.22 405.09 354.22H420.15C431.82 354.22 441.49 354.14 444.15 353.92C452.4 353.24 456.1 350.45 456.49 350.13C461.99 345.25 462.2 334.54 462.71 308.68C462.84 301.68 463 293.74 463.28 284.5C463.73 272.413 465.1 260.378 467.38 248.5L435.54 248.46Z" fill="#263238"/>
<path d="M258.75 435.17L261 446.92C261 446.92 259 451.17 251.25 454.67C243.5 458.17 239.75 459.67 239.75 460.67C239.75 461.67 239.25 463.92 241.25 464.67C243.25 465.42 285.75 464.67 285.75 464.67C285.75 464.67 288 463.67 288 458.92C288 454.17 286 445.42 286 443.42C286 441.42 284.59 436.6 284.59 435.92C284.59 435.24 267.5 436.17 267.5 436.17C267.5 436.17 262.5 431.42 258.75 435.17Z" fill="white" stroke="#263238" stroke-linecap="round" stroke-linejoin="round"/>
<path d="M267.5 436.17C267.5 436.17 268.75 447.42 269.5 448.17C270.25 448.92 286 448.92 286 448.92" fill="white"/>
<path d="M267.5 436.17C267.5 436.17 268.75 447.42 269.5 448.17C270.25 448.92 286 448.92 286 448.92" stroke="#263238" stroke-linecap="round" stroke-linejoin="round"/>
<path d="M286 443.42L268.5 443.67" stroke="#263238" stroke-linecap="round" stroke-linejoin="round"/>
<path d="M239.75 462.67H287.5" stroke="#263238" stroke-linecap="round" stroke-linejoin="round"/>
<path d="M290 294.25C290 294.25 276.14 340.91 274.44 347.34C272.74 353.77 282.56 410.23 282.56 411.24C282.56 412.25 283.91 415.3 283.91 418.68C283.91 422.06 282.56 423.07 283.24 424.09C283.92 425.11 286.24 427.47 285.94 429.5C285.836 431.065 285.117 432.524 283.94 433.56C283.194 434.339 282.266 434.919 281.24 435.25H273.12C273.12 435.25 271.12 420.03 265.68 379.8C260.24 339.57 269.07 316.57 270.76 309.13C271.911 304.33 273.612 299.679 275.83 295.27L290 294.25Z" fill="#263238" stroke="#263238" stroke-linecap="round" stroke-linejoin="round"/>
<path d="M247.25 435.17L249.5 446.92C249.5 446.92 247.5 451.17 239.75 454.67C232 458.17 228.25 459.67 228.25 460.67C228.25 461.67 227.75 463.92 229.75 464.67C231.75 465.42 274.25 464.67 274.25 464.67C274.25 464.67 276.5 463.67 276.5 458.92C276.5 454.17 274.5 445.42 274.5 443.42C274.5 441.42 273.09 436.6 273.09 435.92C273.09 435.24 256 436.17 256 436.17C256 436.17 251 431.42 247.25 435.17Z" fill="white" stroke="#263238" stroke-linecap="round" stroke-linejoin="round"/>
<path d="M256 436.17C256 436.17 257.25 447.42 258 448.17C258.75 448.92 274.5 448.92 274.5 448.92" fill="white"/>
<path d="M256 436.17C256 436.17 257.25 447.42 258 448.17C258.75 448.92 274.5 448.92 274.5 448.92" stroke="#263238" stroke-linecap="round" stroke-linejoin="round"/>
<path d="M274.5 443.42L257 443.67" stroke="#263238" stroke-linecap="round" stroke-linejoin="round"/>
<path d="M228.25 462.67H276" stroke="#263238" stroke-linecap="round" stroke-linejoin="round"/>
<path d="M234.21 294.25C234.21 294.25 233.87 323.67 235.56 336.18C237.25 348.69 243.68 377.77 244.69 393.66C245.7 409.55 247.4 417 247.4 417C247.4 417 245 419 245 421C245 423 246.35 423 246 426.08C245.65 429.16 244.31 430.13 245.33 431.49C246.35 432.85 247.02 435.54 250.4 436.22C253.78 436.9 269.67 436.56 273.05 435.88C276.43 435.2 278.12 431.82 278.12 429.12C278.12 426.42 277.12 424.39 277.12 421.34C277.12 418.29 278.81 415.6 278.81 413.57C278.81 411.54 278.13 410.52 278.13 408.49C278.13 406.46 273.74 374.01 273.74 367.25C273.74 360.49 273.4 337.49 274.41 331.74C275.42 325.99 280.5 298.61 280.5 298.61L234.21 294.25Z" fill="#465EFD" stroke="#263238" stroke-linecap="round" stroke-linejoin="round"/>
<path d="M255.64 304.17C259.655 305.547 263.841 306.365 268.08 306.6C271.336 306.691 274.583 306.995 277.8 307.51L279.62 299.01L255.64 304.17Z" fill="#263238" stroke="#263238" stroke-linecap="round" stroke-linejoin="round"/>
<path d="M251.93 305.63C251.93 305.63 253.59 352.09 256.93 367.58C260.27 383.07 264.67 408.51 263.57 411.83C262.47 415.15 260.8 422.89 260.8 422.89C260.8 422.89 266.89 421.79 266.89 425.1C266.89 428.41 258.04 430.64 260.25 432.3C262.46 433.96 264.66 435.78 264.66 435.78" stroke="#263238" stroke-linecap="round" stroke-linejoin="round"/>
<path d="M271.58 424.37C271.58 424.37 253.22 427.37 258.43 428.37C263.64 429.37 273.57 428.12 274.07 426.88C274.57 425.64 273.07 424.12 271.58 424.37Z" fill="#263238" stroke="#263238" stroke-linecap="round" stroke-linejoin="round"/>
<path d="M190.539 103.15L190.029 123.91L209.609 123.74L209.779 102.98L190.539 103.15Z" fill="#465EFD"/>
<path d="M212.819 141.46C212.819 141.46 208.599 137.24 206.739 133.36C204.879 129.48 202.189 127.12 202.189 124.42C202.189 121.72 203.369 115.42 202.859 112.94C202.349 110.46 202.859 105.18 204.549 105.18C204.942 105.18 205.329 105.269 205.683 105.44C206.036 105.611 206.346 105.859 206.589 106.167C206.833 106.475 207.003 106.834 207.088 107.217C207.173 107.601 207.17 107.998 207.079 108.38C206.739 110.07 208.079 115.98 208.079 115.98C208.079 115.98 209.429 104.67 209.599 103.98C209.769 103.29 212.129 103.3 213.149 103.81C214.169 104.32 215.339 104.14 215.339 106.34C215.339 108.54 214.829 111.06 214.829 111.57C214.829 112.08 219.559 114.78 219.729 116.8C219.899 118.82 219.389 123.72 218.209 125.8C217.402 127.058 216.732 128.399 216.209 129.8C216.039 130.47 220.769 137.56 220.769 137.56L212.819 141.46Z" fill="white" stroke="#263238" stroke-linecap="round" stroke-linejoin="round"/>
<path d="M220.689 134.33L209.189 143.12C209.189 143.12 228.799 183.69 229.479 185C230.159 186.31 244.349 195.15 244.349 195.15L265.649 168.77C265.649 168.77 238.939 160.32 238.269 159.31C237.599 158.3 220.689 134.33 220.689 134.33Z" fill="#263238" stroke="#263238" stroke-linecap="round" stroke-linejoin="round"/>
<path d="M234.25 283.42L233.25 299.17C233.25 299.17 246.25 304.67 260.25 304.42C274.25 304.17 293 298.67 293 298.67L295.75 283.17C295.75 283.17 262 285.92 251.75 284.92C241.5 283.92 234.25 283.42 234.25 283.42Z" fill="white" stroke="#263238" stroke-linecap="round" stroke-linejoin="round"/>
<path d="M224.25 278.42L223.5 282.92C223.5 282.92 234.09 288.7 257.5 290.92C271.907 292.248 286.435 290.719 300.25 286.42L300.5 278.67C288.051 281.638 275.298 283.148 262.5 283.17C249.626 282.837 236.815 281.246 224.25 278.42Z" fill="#263238" stroke="#263238" stroke-linecap="round" stroke-linejoin="round"/>
<path d="M243.25 185.42C243.25 185.42 235 199.92 232.25 211.17C229.5 222.42 224 274.42 223.25 277.42C222.5 280.42 240 286.42 251.5 286.67C263 286.92 288.75 287.42 293.25 285.67C297.75 283.92 302 281.42 302 278.67C302 275.92 302.25 265.67 302.25 257.42C302.25 249.17 299.75 205.67 297.5 195.67C295.25 185.67 293.75 178.67 293 177.42C292.25 176.17 286.75 170.17 275.5 170.92C266.719 171.567 258.187 174.127 250.5 178.42C247.648 180.256 245.185 182.634 243.25 185.42Z" fill="#263238" stroke="#263238" stroke-linecap="round" stroke-linejoin="round"/>
<path d="M167.85 201.58C167.85 201.58 163.79 203.27 163.45 207.33C163.11 211.39 170.56 215.44 174.95 221.53C179.34 227.62 185.09 234 185.09 234L193.89 246.17L204.37 237.38L177.32 206C177.32 206 178.67 203 176.98 201.94C175.558 201.278 174.018 200.905 172.451 200.844C170.884 200.782 169.32 201.032 167.85 201.58Z" fill="white" stroke="#263238" stroke-linecap="round" stroke-linejoin="round"/>
<path d="M168.529 211.05L198.999 200.9C198.999 200.9 200.999 209.36 210.149 218.15C215.635 223.436 221.516 228.296 227.739 232.69L200.349 248.24L168.529 211.05Z" fill="white" stroke="#263238" stroke-linecap="round" stroke-linejoin="round"/>
<path d="M168.53 211.05C169.872 209.544 170.699 207.648 170.89 205.64C170.98 204.712 170.724 203.783 170.169 203.034C169.615 202.284 168.803 201.766 167.89 201.58L197.98 192.79C197.98 192.79 203.73 194.79 198.98 200.9L168.53 211.05Z" fill="white" stroke="#263238" stroke-linecap="round" stroke-linejoin="round"/>
<path d="M208.85 243.2C208.85 243.2 202.09 242.2 201.75 240.2C201.41 238.2 200.06 233.78 198.75 232.09C197.44 230.4 190.97 227.02 188.94 224.65C186.91 222.28 185.56 218.9 184.21 219.24C182.86 219.58 180.83 220.93 181.5 222.24C182.17 223.55 185.22 229.35 185.22 229.35L185.9 231.71C185.9 231.71 179.81 230.71 178.8 230.36C178.505 230.276 178.194 230.266 177.895 230.331C177.596 230.395 177.317 230.532 177.083 230.73C176.849 230.927 176.667 231.179 176.553 231.463C176.439 231.748 176.397 232.055 176.43 232.36C176.43 234.05 175.08 234.05 176.77 235.06C178.46 236.07 180.49 237.43 180.49 237.43C180.49 237.43 182.86 242.84 183.49 243.85C184.12 244.86 189.58 247.24 190.59 247.91C191.6 248.58 197.02 250.28 199.72 250.91C202.42 251.54 208.51 253.96 208.51 253.96L210.2 246.18L208.85 243.2Z" fill="white" stroke="#263238" stroke-linecap="round" stroke-linejoin="round"/>
<path d="M280.53 196.54C280.53 196.54 279.85 225.28 279.85 226.63C279.85 227.98 280.85 255.71 277.85 258.07C274.85 260.43 259.93 263.48 238.29 262.81C216.65 262.14 207.18 257.4 207.18 257.4L208.87 243.2L250.12 240.2C250.12 240.2 245.73 208.76 246.4 197.94C247.07 187.12 255.87 181.37 255.87 181.37" fill="#263238"/>
<path d="M280.53 196.54C280.53 196.54 279.85 225.28 279.85 226.63C279.85 227.98 280.85 255.71 277.85 258.07C274.85 260.43 259.93 263.48 238.29 262.81C216.65 262.14 207.18 257.4 207.18 257.4L208.87 243.2L250.12 240.2C250.12 240.2 245.73 208.76 246.4 197.94C247.07 187.12 255.87 181.37 255.87 181.37" stroke="#263238" stroke-linecap="round" stroke-linejoin="round"/>
<path d="M235 264.07C235 264.07 275.94 265.5 278.1 260.47C280.26 255.44 280.25 205.88 280.25 205.88" stroke="#707070" stroke-linecap="round" stroke-linejoin="round"/>
<path d="M252.999 187.2C252.999 187.2 244.369 196.54 245.809 208.75C247.249 220.96 250.129 240.15 250.129 240.15L234.319 241.08" stroke="#707070" stroke-linecap="round" stroke-linejoin="round"/>
<path d="M235.529 109.12C235.529 109.12 229.859 118.93 230.949 120.23C232.039 121.53 231.169 123.94 231.169 123.94C231.169 123.94 225.499 128.3 225.939 129.82C226.379 131.34 230.939 135.49 230.939 135.49C230.939 135.49 231.809 147.26 232.939 148.35C234.069 149.44 241.439 150.74 242.939 150.96C243.767 151.062 244.576 151.285 245.339 151.62L249.689 175.15L274.099 153.15L270.179 142.69C270.179 142.69 267.999 128.69 268.179 122.21C268.359 115.73 257.059 107.82 250.309 105.86C243.559 103.9 235.529 109.12 235.529 109.12Z" fill="white" stroke="#263238" stroke-linecap="round" stroke-linejoin="round"/>
<path d="M240.099 95.8199C240.099 95.8199 234.439 89.9399 227.679 94.5199C220.919 99.0999 222.889 106.52 228.989 109.12C235.089 111.72 242.279 109.77 239.889 112.39C237.499 115.01 236.889 120.67 240.539 121.76C244.189 122.85 243.589 126.99 243.589 128.76C243.589 130.53 246.589 130.29 247.299 128.76C248.009 127.23 249.689 123.1 253.829 124.84C257.969 126.58 257.759 136.17 256.229 138.57C254.699 140.97 253.179 140.75 253.179 140.75C253.179 140.75 255.579 141.62 254.049 144.45L252.529 147.29C252.529 147.29 256.009 151.43 264.729 149.9C273.449 148.37 275.409 144.45 274.099 141.19C272.789 137.93 269.739 137.48 273.009 132.69C276.279 127.9 284.349 122.22 283.689 111.33C283.259 104.14 266.259 97.3299 266.259 97.3299C266.259 97.3299 270.179 90.7899 261.259 86.6499C252.339 82.5099 242.089 87.3099 242.739 91.6499C243.389 95.9899 240.099 95.8199 240.099 95.8199Z" fill="#263238" stroke="#263238" stroke-linecap="round" stroke-linejoin="round"/>
<path d="M230.889 119.45C230.889 119.45 228.119 118.71 227.889 120.02C227.659 121.33 227.889 127.86 227.889 127.86C228.864 128.466 230.025 128.701 231.159 128.52C232.689 128.08 231.809 122.63 231.809 122.63" stroke="#263238" stroke-linecap="round" stroke-linejoin="round"/>
<path d="M248.17 126.77L228.1 123.45L228.12 122.19L248.17 126.77Z" fill="#263238" stroke="#263238" stroke-linecap="round" stroke-linejoin="round"/>
<path d="M276.94 146.39C276.94 146.39 265.82 154.45 258.19 162.73C250.56 171.01 241.41 180.17 241 183C240.59 185.83 241.43 190.19 245.79 185.61C250.15 181.03 258.21 174.94 264.32 174.5C270.43 174.06 279.79 177.12 284.58 177.77C289.37 178.42 292.43 179.77 294.17 177.12C295.91 174.47 291.34 168.62 291.34 165.56C291.34 162.5 291.99 157.28 289.81 153.56C287.63 149.84 280.64 145.3 276.94 146.39Z" fill="#757575" stroke="#263238" stroke-linecap="round" stroke-linejoin="round"/>
<path d="M291.18 157.18C290.561 159.298 289.716 161.343 288.66 163.28C287.39 165.17 269.52 168.75 269.52 168.75C269.52 168.75 284.24 167.91 286.97 167.91C289.7 167.91 292.86 170.43 292.86 170.43L291.39 166.43C291.39 166.43 292 159.08 291.18 157.18Z" fill="#263238" stroke="#263238" stroke-linecap="round" stroke-linejoin="round"/>
<path d="M32 465H489" stroke="#263238" stroke-linecap="round" stroke-linejoin="round"/>
</svg>
