<svg width="201" height="200" viewBox="0 0 201 200" fill="none" xmlns="http://www.w3.org/2000/svg">
<path d="M94.9 22.44C144.5 18.02 144.6 46.012 166.952 72.092C189.304 98.172 194.1 110 185.7 140.052C177.3 170.104 148.856 193.68 113.724 180.328C78.592 166.976 58.468 179.8 36.308 167.928C14.148 156.056 5.90801 133.164 22.14 106.164C38.372 79.164 33.74 27.888 94.9 22.44Z" fill="#EDEFFF"/>
<path d="M79.7001 168.8C79.2616 167.095 78.2165 165.608 76.7606 164.618C75.3046 163.628 73.5377 163.203 71.7908 163.422C70.0439 163.642 68.4369 164.49 67.2708 165.809C66.1047 167.128 65.4595 168.827 65.4561 170.588C65.4616 171.2 65.5436 171.808 65.7001 172.4C66.1001 173.953 67.0038 175.329 68.2698 176.314C69.5357 177.298 71.0924 177.835 72.6961 177.84C73.3072 177.839 73.9158 177.763 74.5081 177.612C75.6828 177.312 76.7629 176.72 77.6481 175.892C77.575 175.78 77.5095 175.664 77.4521 175.544C76.3981 176.556 75.0472 177.204 73.598 177.392C72.1487 177.58 70.6774 177.298 69.4001 176.588L69.2321 176.496C68.0696 175.808 67.1371 174.791 66.5525 173.573C65.9678 172.356 65.7572 170.992 65.9473 169.655C66.1373 168.318 66.7195 167.067 67.6203 166.06C68.5211 165.054 69.7 164.337 71.0081 164C72.1008 163.72 73.246 163.714 74.3414 163.984C75.4368 164.253 76.4485 164.79 77.2862 165.546C78.1238 166.301 78.7614 167.253 79.1422 168.315C79.5229 169.376 79.6348 170.516 79.4681 171.632C79.6002 171.608 79.7339 171.593 79.8681 171.588C79.9946 170.657 79.9375 169.709 79.7001 168.8Z" fill="#263238"/>
<path d="M77.4478 175.556C76.7242 176.245 75.8951 176.813 74.9918 177.24C74.8182 177.316 74.639 177.379 74.4558 177.428C74.2706 177.475 74.082 177.507 73.8918 177.524C71.8918 177.732 69.2158 176.724 69.2158 176.724L69.3918 176.592C69.8884 176.202 70.4247 175.866 70.9918 175.588C71.3918 175.48 72.1078 174.98 71.7918 173.9C70.62 172.949 69.8096 171.624 69.4958 170.148C69.2478 169.052 68.6958 166.928 70.9238 166.044C71.102 165.977 71.2836 165.92 71.4678 165.872C71.6598 165.824 71.8478 165.788 72.0238 165.76C74.4238 165.456 74.9398 167.588 75.2518 168.664C75.6874 170.111 75.614 171.664 75.0438 173.064C75.2918 174.16 76.1478 174.264 76.5598 174.156C76.7597 174.126 76.9624 174.12 77.1638 174.136C77.1389 174.446 77.166 174.759 77.2438 175.06C77.2874 175.228 77.3463 175.391 77.4198 175.548L77.4478 175.556Z" fill="#263238"/>
<path d="M79.9562 177.344C79.3987 177.344 78.8524 177.187 78.3795 176.892C77.9065 176.597 77.5259 176.175 77.2809 175.674C77.0358 175.173 76.9361 174.614 76.9932 174.059C77.0502 173.504 77.2617 172.977 77.6036 172.537C77.9455 172.096 78.4041 171.761 78.9272 171.568C79.4504 171.375 80.0171 171.333 80.563 171.446C81.1089 171.559 81.6121 171.824 82.0153 172.209C82.4186 172.594 82.7058 173.084 82.8442 173.624C82.9554 174.064 82.9649 174.524 82.8719 174.968C82.7789 175.413 82.5859 175.83 82.3075 176.188C82.0291 176.547 81.6727 176.837 81.2653 177.038C80.8578 177.238 80.4102 177.343 79.9562 177.344ZM79.9562 171.784C79.7388 171.784 79.5223 171.812 79.3122 171.868C78.6881 172.033 78.15 172.429 77.8074 172.976C77.4648 173.523 77.3433 174.18 77.4676 174.813C77.5919 175.447 77.9527 176.009 78.4767 176.386C79.0006 176.763 79.6485 176.926 80.2886 176.843C80.9286 176.759 81.5129 176.435 81.9226 175.936C82.3324 175.438 82.5369 174.802 82.4946 174.158C82.4522 173.513 82.1663 172.91 81.6948 172.469C81.2233 172.028 80.6017 171.783 79.9562 171.784Z" fill="#263238"/>
<path d="M79.7842 174.244L79.3002 173.1L79.9522 172.932L80.0682 174.172L81.0082 173.352L81.3682 173.916L80.2362 174.424L81.3002 175.052L80.8762 175.572L80.0442 174.644L79.7602 175.844L79.1442 175.596L79.7722 174.532L78.5322 174.632L78.5762 173.964L79.7842 174.244Z" fill="#263238"/>
<path d="M74.9236 165.92C72.8716 163.672 71.3516 165.34 71.3516 165.34C71.3516 165.34 69.2196 164.608 68.4996 167.568C67.7796 170.528 69.8756 172.852 68.0996 173.832C68.0996 173.832 70.3556 174.792 73.5636 173.968C76.7716 173.144 78.2876 171.22 78.2876 171.22C76.2636 171.2 76.9796 168.164 74.9236 165.92Z" fill="#263238"/>
<path d="M188.796 100.232C189.057 99.0569 188.883 97.8266 188.306 96.7703C187.728 95.714 186.786 94.9037 185.655 94.4902C184.524 94.0768 183.282 94.0884 182.159 94.5229C181.036 94.9574 180.11 95.7851 179.552 96.852C179.362 97.2238 179.218 97.6174 179.124 98.024C178.932 98.8624 178.962 99.7362 179.21 100.56C179.458 101.383 179.916 102.128 180.539 102.721C181.162 103.314 181.928 103.735 182.763 103.942C183.597 104.15 184.472 104.136 185.3 103.904C185.294 103.813 185.294 103.723 185.3 103.632C184.52 103.864 183.693 103.89 182.9 103.708C181.73 103.446 180.708 102.74 180.048 101.74C180.02 101.704 179.995 101.667 179.972 101.628C179.644 101.109 179.422 100.53 179.32 99.924C179.219 99.3157 179.237 98.6937 179.372 98.092C179.65 96.8841 180.396 95.8357 181.445 95.176C182.494 94.5164 183.762 94.2992 184.972 94.572C185.358 94.6582 185.731 94.7926 186.084 94.972C186.682 95.2816 187.207 95.7167 187.623 96.2476C188.038 96.7785 188.334 97.3927 188.49 98.0484C188.647 98.7041 188.66 99.3858 188.529 100.047C188.398 100.708 188.126 101.333 187.732 101.88C187.823 101.906 187.913 101.94 188 101.98C188.377 101.455 188.647 100.861 188.796 100.232Z" fill="#263238"/>
<path d="M185.299 103.632C184.642 103.824 183.959 103.91 183.275 103.888C183.141 103.879 183.007 103.86 182.875 103.832C182.749 103.803 182.624 103.764 182.503 103.716C181.223 103.216 179.903 101.756 179.903 101.756L180.055 101.732C180.484 101.65 180.919 101.615 181.355 101.628C181.474 101.65 181.597 101.647 181.714 101.619C181.832 101.591 181.943 101.539 182.039 101.465C182.135 101.392 182.215 101.299 182.273 101.192C182.331 101.086 182.366 100.969 182.375 100.848C181.959 99.9004 181.88 98.8388 182.151 97.84C182.347 97.096 182.667 95.624 184.311 95.788C184.446 95.8023 184.579 95.8237 184.711 95.852C184.845 95.884 184.969 95.92 185.083 95.96C186.635 96.524 186.283 97.992 186.139 98.76C185.951 99.7779 185.42 100.701 184.635 101.376C184.591 101.488 184.57 101.609 184.576 101.73C184.582 101.851 184.613 101.969 184.668 102.077C184.723 102.185 184.8 102.28 184.894 102.356C184.989 102.431 185.098 102.486 185.215 102.516C185.346 102.56 185.47 102.619 185.587 102.692C185.477 102.874 185.395 103.073 185.347 103.28C185.321 103.397 185.306 103.516 185.303 103.636C185.303 103.636 185.299 103.628 185.299 103.632Z" fill="#263238"/>
<path d="M186.268 105.508C185.941 105.341 185.665 105.089 185.468 104.78C185.288 104.495 185.182 104.171 185.158 103.835C185.133 103.5 185.193 103.163 185.33 102.856C185.467 102.549 185.678 102.28 185.944 102.074C186.209 101.867 186.522 101.73 186.854 101.674C187.186 101.617 187.526 101.644 187.845 101.75C188.165 101.857 188.452 102.041 188.683 102.286C188.914 102.531 189.081 102.829 189.169 103.154C189.257 103.479 189.264 103.82 189.188 104.148C189.129 104.41 189.019 104.657 188.864 104.876C188.709 105.095 188.512 105.281 188.285 105.424C188.058 105.567 187.805 105.663 187.541 105.708C187.276 105.752 187.005 105.744 186.744 105.684C186.579 105.646 186.419 105.587 186.268 105.508ZM188.02 102.124C187.887 102.055 187.746 102.003 187.6 101.968C187.317 101.904 187.022 101.911 186.742 101.988C186.462 102.065 186.206 102.21 185.995 102.41C185.784 102.609 185.626 102.858 185.534 103.133C185.442 103.409 185.419 103.703 185.468 103.989C185.517 104.275 185.635 104.545 185.813 104.775C185.991 105.004 186.222 105.187 186.487 105.306C186.752 105.425 187.042 105.476 187.332 105.457C187.621 105.437 187.902 105.346 188.148 105.192C188.345 105.068 188.516 104.907 188.65 104.718C188.785 104.528 188.88 104.314 188.932 104.087C188.984 103.861 188.99 103.626 188.951 103.397C188.912 103.168 188.828 102.949 188.704 102.752C188.537 102.485 188.301 102.268 188.02 102.124Z" fill="#263238"/>
<path d="M187.136 103.564L187.196 102.712L187.644 102.812L187.324 103.612L188.156 103.408L188.2 103.864L187.348 103.816L187.8 104.536L187.38 104.716L187.164 103.888L186.608 104.54L186.312 104.196L187.028 103.744L186.228 103.416L186.468 103.016L187.136 103.564Z" fill="#263238"/>
<path d="M186.788 96.9641C186.244 94.9641 184.788 95.4881 184.788 95.4881C184.788 95.4881 183.72 94.3761 182.352 95.9521C180.984 97.5281 181.532 99.6041 180.14 99.6481C181.049 100.539 182.188 101.159 183.43 101.442C184.671 101.724 185.966 101.657 187.172 101.248C185.944 100.612 187.336 98.9801 186.788 96.9641Z" fill="#263238"/>
<path d="M134.552 32.1239C134.777 30.7906 134.623 29.421 134.108 28.1707C133.593 26.9204 132.738 25.8395 131.64 25.0505C130.542 24.2616 129.245 23.7963 127.896 23.7074C126.547 23.6185 125.2 23.9097 124.007 24.5478C122.815 25.1859 121.826 26.1454 121.152 27.3174C120.478 28.4894 120.145 29.8269 120.193 31.1782C120.241 32.5294 120.666 33.8403 121.421 34.962C122.176 36.0837 123.23 36.9712 124.464 37.5239C125.023 37.7717 125.61 37.9491 126.212 38.0519C127.407 38.2557 128.634 38.1553 129.78 37.7599C129.759 37.6275 129.746 37.494 129.74 37.3599C128.365 37.8563 126.868 37.8984 125.467 37.48C124.067 37.0617 122.837 36.205 121.96 35.0359C121.92 34.9879 121.88 34.9359 121.844 34.8839C121.324 34.1526 120.951 33.3264 120.748 32.4519C120.552 31.5756 120.528 30.6696 120.676 29.7839C120.826 28.8985 121.149 28.0511 121.626 27.2904C122.103 26.5297 122.726 25.8705 123.458 25.3504C124.19 24.8304 125.018 24.4597 125.893 24.2595C126.768 24.0594 127.675 24.0337 128.56 24.1839C129.129 24.2774 129.683 24.4441 130.208 24.6799C131.105 25.0816 131.905 25.6717 132.553 26.4102C133.201 27.1487 133.683 28.0183 133.965 28.9596C134.247 29.901 134.323 30.892 134.188 31.8653C134.052 32.8386 133.709 33.7714 133.18 34.5999C133.316 34.6334 133.45 34.6762 133.58 34.7279C134.069 33.9309 134.399 33.0466 134.552 32.1239Z" fill="#263238"/>
<path d="M129.74 37.3599C128.799 37.6952 127.811 37.8775 126.812 37.8999C126.623 37.8988 126.434 37.8827 126.248 37.8519C126.059 37.8204 125.873 37.7736 125.692 37.7119C123.788 37.0919 121.748 35.0719 121.748 35.0719L121.964 35.0239C122.581 34.8724 123.213 34.7853 123.848 34.7639C124.268 34.8359 125.116 34.6639 125.268 33.5639C124.585 32.2171 124.385 30.6767 124.7 29.1999C124.92 28.0999 125.268 25.9279 127.672 26.0319C127.862 26.0427 128.052 26.0641 128.24 26.0959C128.426 26.1275 128.61 26.1689 128.792 26.2199C131.096 26.9119 130.712 29.0759 130.56 30.1839C130.363 31.685 129.657 33.0731 128.56 34.1159C128.34 35.2199 129.08 35.6599 129.5 35.7159C129.695 35.7694 129.883 35.8459 130.06 35.9439C129.909 36.2163 129.806 36.5126 129.756 36.8199C129.728 36.9905 129.716 37.1632 129.72 37.3359C129.72 37.3359 129.744 37.3559 129.74 37.3599Z" fill="#263238"/>
<path d="M131.3 40C130.821 39.7847 130.407 39.4467 130.1 39.0202C129.794 38.5937 129.605 38.0939 129.553 37.5711C129.502 37.0484 129.589 36.5214 129.807 36.0432C130.024 35.5651 130.364 35.1528 130.792 34.848C131.272 34.5066 131.843 34.3153 132.433 34.2985C133.022 34.2816 133.603 34.4399 134.102 34.7534C134.601 35.0668 134.997 35.5213 135.237 36.0593C135.478 36.5974 135.554 37.1948 135.456 37.776C135.323 38.5547 134.886 39.2488 134.242 39.7062C133.598 40.1636 132.799 40.347 132.02 40.216C131.772 40.1732 131.53 40.1007 131.3 40ZM133.572 34.924C133.373 34.8345 133.163 34.7713 132.948 34.736C132.304 34.6285 131.643 34.7703 131.1 35.1325C130.557 35.4947 130.172 36.0502 130.024 36.686C129.876 37.3217 129.975 37.9901 130.302 38.5551C130.629 39.1202 131.159 39.5395 131.784 39.7278C132.409 39.9161 133.082 39.8593 133.667 39.5689C134.252 39.2786 134.704 38.7764 134.932 38.1646C135.159 37.5527 135.145 36.8772 134.893 36.2752C134.64 35.6733 134.168 35.1901 133.572 34.924Z" fill="#263238"/>
<path d="M132.407 37.112V35.864L133.067 35.976L132.667 37.176L133.867 36.808L133.967 37.472H132.723L133.439 38.48L132.843 38.78L132.443 37.58L131.691 38.572L131.227 38.092L132.235 37.376L131.063 36.976L131.375 36.388L132.407 37.112Z" fill="#263238"/>
<path d="M78.9969 23.5083L67.7029 25.38C67.2888 25.4486 67.0088 25.84 67.0774 26.254L68.2114 33.0967C68.28 33.5108 68.6713 33.7909 69.0854 33.7222L80.3794 31.8505C80.7935 31.7819 81.0735 31.3906 81.0049 30.9765L79.8709 24.1338C79.8023 23.7197 79.4109 23.4397 78.9969 23.5083Z" stroke="#263238" stroke-width="0.4" stroke-linecap="round" stroke-linejoin="round"/>
<path d="M67.1152 26.5079L73.2992 29.1999C73.5712 29.3184 73.8716 29.3554 74.1642 29.3064C74.4567 29.2574 74.7287 29.1245 74.9472 28.9239L79.9072 24.3999" stroke="#263238" stroke-width="0.4" stroke-linecap="round" stroke-linejoin="round"/>
<path d="M69.2559 31.9759L71.9759 29.7959" stroke="#263238" stroke-width="0.4" stroke-linecap="round" stroke-linejoin="round"/>
<path d="M79.6482 30.256L76.3682 29.056" stroke="#263238" stroke-width="0.4" stroke-linecap="round" stroke-linejoin="round"/>
<path d="M127.064 165.73L117.219 160.006C116.858 159.796 116.395 159.919 116.185 160.28L112.717 166.245C112.508 166.606 112.63 167.069 112.991 167.278L122.836 173.002C123.197 173.212 123.66 173.09 123.87 172.729L127.338 166.764C127.548 166.403 127.425 165.94 127.064 165.73Z" stroke="#263238" stroke-width="0.397915" stroke-linecap="round" stroke-linejoin="round"/>
<path d="M116.027 161.544L119.063 167.544C119.194 167.81 119.399 168.033 119.654 168.185C119.909 168.337 120.203 168.412 120.499 168.4L127.227 168.072" stroke="#263238" stroke-width="0.4" stroke-linecap="round" stroke-linejoin="round"/>
<path d="M114.188 167.124L117.676 167.176" stroke="#263238" stroke-width="0.4" stroke-linecap="round" stroke-linejoin="round"/>
<path d="M123.299 172.424L121.531 169.416" stroke="#263238" stroke-width="0.4" stroke-linecap="round" stroke-linejoin="round"/>
<path d="M21.6677 116.744L11.5918 122.178C11.2223 122.377 11.0844 122.838 11.2836 123.208L14.5762 129.312C14.7754 129.682 15.2364 129.82 15.6059 129.62L25.6818 124.186C26.0512 123.987 26.1892 123.526 25.9899 123.156L22.6974 117.052C22.4981 116.682 22.0371 116.544 21.6677 116.744Z" stroke="#263238" stroke-width="0.4" stroke-linecap="round" stroke-linejoin="round"/>
<path d="M11.3916 123.432L18.0996 124C18.3953 124.022 18.6912 123.958 18.9516 123.817C19.212 123.675 19.4259 123.461 19.5676 123.2L22.7996 117.292" stroke="#263238" stroke-width="0.4" stroke-linecap="round" stroke-linejoin="round"/>
<path d="M15.1914 127.916L17.0554 124.968" stroke="#263238" stroke-width="0.4" stroke-linecap="round" stroke-linejoin="round"/>
<path d="M24.4636 122.916L20.9756 122.856" stroke="#263238" stroke-width="0.4" stroke-linecap="round" stroke-linejoin="round"/>
<path d="M30.3203 45.548V158.368C30.3203 158.672 30.4407 158.963 30.6551 159.178C30.8696 159.394 31.1605 159.515 31.4643 159.516H100.064C100.369 159.516 100.661 159.395 100.876 159.18C101.091 158.964 101.212 158.672 101.212 158.368V45.568C101.21 44.8749 100.934 44.2107 100.444 43.7206C99.9536 43.2304 99.2895 42.9541 98.5963 42.952H82.2563C81.9397 42.9526 81.6317 43.0553 81.3781 43.2448C81.1244 43.4343 80.9386 43.7006 80.8483 44.004C80.7596 44.308 80.5743 44.5749 80.3203 44.764C80.0658 44.9531 79.7574 45.0555 79.4403 45.056H52.1003C51.7835 45.0561 51.4752 44.9536 51.2215 44.764C50.9677 44.5744 50.7821 44.3078 50.6923 44.004C50.6037 43.6989 50.4166 43.4317 50.1603 43.244C49.9058 43.055 49.5973 42.9526 49.2803 42.952H32.9363C32.2466 42.9541 31.5854 43.2276 31.0958 43.7135C30.6063 44.1993 30.3277 44.8583 30.3203 45.548Z" fill="#263238" stroke="#263238" stroke-width="0.4" stroke-linecap="round" stroke-linejoin="round"/>
<path d="M30.3209 66.1801L101.213 66.1801V52.0601L30.3209 52.0601V66.1801Z" fill="#465EFD" stroke="#263238" stroke-width="0.4" stroke-linecap="round" stroke-linejoin="round"/>
<path d="M30.3209 144.96H101.213L101.213 66.18L30.3209 66.18L30.3209 144.96Z" fill="white" stroke="#263238" stroke-width="0.4" stroke-linecap="round" stroke-linejoin="round"/>
<path d="M65.5969 153.684H67.8089C68.5379 153.684 69.1289 153.093 69.1289 152.364V150.152C69.1289 149.423 68.5379 148.832 67.8089 148.832H65.5969C64.8679 148.832 64.2769 149.423 64.2769 150.152V152.364C64.2769 153.093 64.8679 153.684 65.5969 153.684Z" fill="white" stroke="#263238" stroke-width="0.4" stroke-linecap="round" stroke-linejoin="round"/>
<path d="M37.8521 57.1119H34.3721" stroke="#263238" stroke-width="0.4" stroke-linecap="round" stroke-linejoin="round"/>
<path d="M37.8521 59.024H34.3721" stroke="#263238" stroke-width="0.4" stroke-linecap="round" stroke-linejoin="round"/>
<path d="M37.8521 60.936H34.3721" stroke="#263238" stroke-width="0.4" stroke-linecap="round" stroke-linejoin="round"/>
<path d="M59.4284 74.1919H47.7004C47.4882 74.1919 47.2847 74.1076 47.1347 73.9576C46.9847 73.8076 46.9004 73.6041 46.9004 73.3919C46.9004 73.1797 46.9847 72.9763 47.1347 72.8262C47.2847 72.6762 47.4882 72.5919 47.7004 72.5919H59.4124C59.6246 72.5919 59.828 72.6762 59.9781 72.8262C60.1281 72.9763 60.2124 73.1797 60.2124 73.3919C60.2124 73.6013 60.1303 73.8024 59.9838 73.952C59.8372 74.1016 59.6378 74.1877 59.4284 74.1919Z" fill="#263238"/>
<path d="M88.0168 76.1561H47.3488C47.293 76.1566 47.2376 76.146 47.1859 76.1249C47.1343 76.1037 47.0873 76.0725 47.0478 76.0331C47.0083 75.9936 46.9771 75.9466 46.956 75.8949C46.9349 75.8433 46.9243 75.7879 46.9248 75.7321C46.9248 75.6766 46.9358 75.6216 46.9572 75.5704C46.9785 75.5192 47.0098 75.4727 47.0493 75.4336C47.0887 75.3946 47.1354 75.3637 47.1869 75.3429C47.2383 75.322 47.2933 75.3115 47.3488 75.3121H88.0168C88.0727 75.3092 88.1286 75.3181 88.1809 75.3382C88.2331 75.3583 88.2806 75.3891 88.3202 75.4287C88.3598 75.4683 88.3906 75.5157 88.4107 75.568C88.4308 75.6202 88.4397 75.6761 88.4368 75.7321C88.4373 75.7875 88.4269 75.8426 88.406 75.894C88.3851 75.9454 88.3543 75.9922 88.3152 76.0316C88.2762 76.071 88.2297 76.1023 88.1785 76.1237C88.1273 76.1451 88.0723 76.1561 88.0168 76.1561Z" fill="#263238"/>
<path d="M43.0113 77.7189C44.7799 76.0914 44.8944 73.3382 43.2669 71.5696C41.6393 69.8009 38.8862 69.6865 37.1175 71.314C35.3488 72.9415 35.2344 75.6947 36.8619 77.4633C38.4894 79.232 41.2426 79.3464 43.0113 77.7189Z" fill="white" stroke="#263238" stroke-width="0.4" stroke-linecap="round" stroke-linejoin="round"/>
<path d="M40.4161 78.832C41.6401 78.652 43.0961 77.632 43.0961 77.632C42.6923 77.4596 42.2731 77.3257 41.8441 77.232C41.7349 77.2287 41.6276 77.2023 41.5294 77.1545C41.4312 77.1067 41.3442 77.0385 41.2742 76.9546C41.2043 76.8707 41.153 76.7728 41.1236 76.6676C41.0943 76.5623 41.0877 76.452 41.1041 76.344C41.6607 75.5945 41.9431 74.6767 41.9041 73.744C41.8841 73.048 41.9041 71.692 40.4161 71.504C40.3041 71.504 40.1881 71.504 40.0641 71.504C39.9401 71.504 39.8241 71.504 39.7121 71.504C38.2361 71.692 38.2481 73.048 38.2241 73.744C38.1852 74.6767 38.4676 75.5945 39.0241 76.344C39.0406 76.452 39.034 76.5623 39.0046 76.6676C38.9753 76.7728 38.924 76.8707 38.854 76.9546C38.7841 77.0385 38.6971 77.1067 38.5989 77.1545C38.5006 77.2023 38.3933 77.2287 38.2841 77.232C37.8564 77.3256 37.4386 77.4595 37.0361 77.632C37.0361 77.632 38.4881 78.652 39.7121 78.832C39.8284 78.8522 39.9461 78.8629 40.0641 78.864C40.1822 78.8631 40.2999 78.8524 40.4161 78.832Z" fill="#263238"/>
<path d="M43.8362 79.596C44.7861 79.596 45.5562 78.8259 45.5562 77.876C45.5562 76.9261 44.7861 76.156 43.8362 76.156C42.8863 76.156 42.1162 76.9261 42.1162 77.876C42.1162 78.8259 42.8863 79.596 43.8362 79.596Z" fill="#465EFD" stroke="#263238" stroke-width="0.4" stroke-linecap="round" stroke-linejoin="round"/>
<path d="M43.7481 77.776L43.6281 77.012H44.0281L43.9081 77.776L44.5961 77.428L44.7241 77.828L43.9681 77.96L44.5081 78.5L44.1761 78.744L43.8201 78.06L43.4641 78.744L43.1321 78.5L43.6721 77.96L42.9121 77.828L43.0441 77.428L43.7481 77.776Z" fill="#263238"/>
<path d="M42.1005 72.04C41.2165 70.38 40.0485 71.144 40.0485 71.144C40.0485 71.144 38.9005 70.4 38.0125 72.04C37.1245 73.68 38.0125 75.42 36.8125 75.732C37.7896 76.3361 38.9157 76.6561 40.0645 76.6561C41.2133 76.6561 42.3394 76.3361 43.3165 75.732C42.1005 75.42 43.0005 73.7 42.1005 72.04Z" fill="#263238"/>
<path d="M40.8447 50.5281H41.6367V48.9121H40.8447V50.5281Z" fill="white"/>
<path d="M39.3887 50.5239H40.1807V48.2519H39.3887V50.5239Z" fill="white"/>
<path d="M37.9365 50.5281H38.7285V47.6041H37.9365V50.5281Z" fill="white"/>
<path d="M36.4805 50.5239H37.2725V46.9479H36.4805V50.5239Z" fill="white"/>
<path d="M91.6965 50.196H95.9605C96.2234 50.196 96.4365 49.9829 96.4365 49.72V47.748C96.4365 47.4852 96.2234 47.272 95.9605 47.272H91.6965C91.4336 47.272 91.2205 47.4852 91.2205 47.748V49.72C91.2205 49.9829 91.4336 50.196 91.6965 50.196Z" fill="white"/>
<path d="M90.6123 49.584H90.2123C90.1062 49.584 90.0045 49.5418 89.9295 49.4668C89.8544 49.3918 89.8123 49.2901 89.8123 49.184V48.272C89.8123 48.1659 89.8544 48.0642 89.9295 47.9891C90.0045 47.9141 90.1062 47.872 90.2123 47.872H90.6123V49.572V49.584Z" fill="white"/>
<path d="M96.372 57.1199C96.6175 57.3656 96.7847 57.6785 96.8524 58.0191C96.92 58.3597 96.8852 58.7127 96.7523 59.0335C96.6193 59.3543 96.3943 59.6285 96.1055 59.8214C95.8168 60.0143 95.4773 60.1173 95.13 60.1173C94.7828 60.1173 94.4433 60.0143 94.1545 59.8214C93.8658 59.6285 93.6407 59.3543 93.5078 59.0335C93.3748 58.7127 93.34 58.3597 93.4077 58.0191C93.4754 57.6785 93.6425 57.3656 93.888 57.1199C94.0508 56.9563 94.2444 56.8265 94.4575 56.7379C94.6706 56.6492 94.8992 56.6036 95.13 56.6036C95.3609 56.6036 95.5894 56.6492 95.8025 56.7379C96.0157 56.8265 96.2092 56.9563 96.372 57.1199V57.1199Z" stroke="#263238" stroke-width="0.4" stroke-linecap="round" stroke-linejoin="round"/>
<path d="M96.3721 59.604L98.2161 61.448" stroke="#263238" stroke-width="0.4" stroke-linecap="round" stroke-linejoin="round"/>
<path d="M70.4603 55.8521H62.2483C61.8285 55.8521 61.4883 56.1923 61.4883 56.612V61.4401C61.4883 61.8598 61.8285 62.2 62.2483 62.2H70.4603C70.88 62.2 71.2203 61.8598 71.2203 61.4401V56.612C71.2203 56.1923 70.88 55.8521 70.4603 55.8521Z" fill="#263238" stroke="#465EFD" stroke-width="0.4" stroke-linecap="round" stroke-linejoin="round"/>
<path d="M61.4883 56.6121L65.7283 59.3681C65.9153 59.4873 66.1325 59.5507 66.3543 59.5507C66.5761 59.5507 66.7933 59.4873 66.9803 59.3681L71.2203 56.6121" fill="#263238"/>
<path d="M61.4883 56.6121L65.7283 59.3681C65.9153 59.4873 66.1325 59.5507 66.3543 59.5507C66.5761 59.5507 66.7933 59.4873 66.9803 59.3681L71.2203 56.6121" stroke="#465EFD" stroke-width="0.4" stroke-linecap="round" stroke-linejoin="round"/>
<path d="M62.4004 60.928L64.6844 59.644L62.4004 60.928Z" fill="#263238"/>
<path d="M62.4004 60.928L64.6844 59.644" stroke="#465EFD" stroke-width="0.4" stroke-linecap="round" stroke-linejoin="round"/>
<path d="M70.3083 60.928L68.0283 59.644L70.3083 60.928Z" fill="#263238"/>
<path d="M70.3083 60.928L68.0283 59.644" stroke="#465EFD" stroke-width="0.4" stroke-linecap="round" stroke-linejoin="round"/>
<path d="M55.4284 88.1359H47.7004C47.4882 88.1359 47.2847 88.0516 47.1347 87.9016C46.9847 87.7515 46.9004 87.5481 46.9004 87.3359C46.9004 87.1237 46.9847 86.9202 47.1347 86.7702C47.2847 86.6202 47.4882 86.5359 47.7004 86.5359H55.4124C55.6246 86.5359 55.828 86.6202 55.9781 86.7702C56.1281 86.9202 56.2124 87.1237 56.2124 87.3359C56.2124 87.5453 56.1303 87.7464 55.9838 87.896C55.8372 88.0456 55.6378 88.1317 55.4284 88.1359Z" fill="#263238"/>
<path d="M72.0168 90.104H47.3488C47.2364 90.104 47.1285 90.0594 47.049 89.9799C46.9695 89.9003 46.9248 89.7925 46.9248 89.68C46.93 89.5715 46.977 89.4691 47.0561 89.3945C47.1352 89.3199 47.2401 89.2789 47.3488 89.28H72.0168C72.071 89.2773 72.1252 89.2857 72.176 89.3046C72.2269 89.3234 72.2734 89.3525 72.3127 89.3899C72.352 89.4273 72.3832 89.4723 72.4046 89.5222C72.4259 89.5721 72.4369 89.6258 72.4368 89.68C72.4368 89.7918 72.3927 89.899 72.314 89.9784C72.2354 90.0578 72.1286 90.103 72.0168 90.104Z" fill="#263238"/>
<path d="M43.1008 91.575C44.8236 89.8991 44.8616 87.1438 43.1856 85.421C41.5097 83.6981 38.7544 83.6602 37.0316 85.3361C35.3087 87.0121 35.2707 89.7674 36.9467 91.4902C38.6227 93.213 41.378 93.251 43.1008 91.575Z" fill="white" stroke="#263238" stroke-width="0.4" stroke-linecap="round" stroke-linejoin="round"/>
<path d="M40.4161 92.8C41.6401 92.62 43.0961 91.6 43.0961 91.6C42.6923 91.4276 42.2731 91.2937 41.8441 91.2C41.7349 91.1967 41.6276 91.1703 41.5294 91.1224C41.4312 91.0746 41.3442 91.0065 41.2742 90.9225C41.2043 90.8386 41.153 90.7408 41.1236 90.6355C41.0943 90.5303 41.0877 90.42 41.1041 90.312C41.6595 89.5619 41.9418 88.6445 41.9041 87.712C41.8841 87.016 41.9041 85.656 40.4161 85.472C40.2989 85.4657 40.1814 85.4657 40.0641 85.472C39.9469 85.4657 39.8294 85.4657 39.7121 85.472C38.2361 85.656 38.2481 87.016 38.2241 87.712C38.1865 88.6445 38.4688 89.5619 39.0241 90.312C39.0406 90.42 39.034 90.5303 39.0046 90.6355C38.9753 90.7408 38.924 90.8386 38.854 90.9225C38.7841 91.0065 38.6971 91.0746 38.5989 91.1224C38.5006 91.1703 38.3933 91.1967 38.2841 91.2C37.8564 91.2936 37.4386 91.4275 37.0361 91.6C37.0361 91.6 38.5001 92.6 39.7001 92.8C39.8164 92.8202 39.9341 92.8309 40.0521 92.832C40.1702 92.8311 40.2879 92.8204 40.4041 92.8H40.4161Z" fill="#263238"/>
<path d="M43.8362 93.5401C44.7861 93.5401 45.5562 92.77 45.5562 91.8201C45.5562 90.8702 44.7861 90.1001 43.8362 90.1001C42.8863 90.1001 42.1162 90.8702 42.1162 91.8201C42.1162 92.77 42.8863 93.5401 43.8362 93.5401Z" fill="#465EFD" stroke="#263238" stroke-width="0.4" stroke-linecap="round" stroke-linejoin="round"/>
<path d="M43.7481 91.7241L43.6281 90.9601H44.0281L43.9081 91.7241L44.5961 91.3761L44.7241 91.7761L43.9681 91.9041L44.5081 92.4481L44.1761 92.6921L43.8201 92.0081L43.4641 92.6921L43.1321 92.4481L43.6721 91.9041L42.9121 91.7761L43.0441 91.3761L43.7481 91.7241Z" fill="#263238"/>
<path d="M63.4284 102.084H47.7004C47.4882 102.084 47.2847 102 47.1347 101.85C46.9847 101.7 46.9004 101.496 46.9004 101.284C46.9004 101.072 46.9847 100.868 47.1347 100.718C47.2847 100.568 47.4882 100.484 47.7004 100.484H63.4124C63.6246 100.484 63.828 100.568 63.9781 100.718C64.1281 100.868 64.2124 101.072 64.2124 101.284C64.2124 101.493 64.1303 101.695 63.9838 101.844C63.8372 101.994 63.6378 102.08 63.4284 102.084Z" fill="#263238"/>
<path d="M80.0168 104.052H47.3488C47.2364 104.052 47.1285 104.007 47.049 103.928C46.9695 103.848 46.9248 103.74 46.9248 103.628C46.9248 103.572 46.9358 103.517 46.9572 103.466C46.9785 103.415 47.0098 103.369 47.0492 103.33C47.0887 103.29 47.1354 103.26 47.1868 103.239C47.2383 103.218 47.2933 103.207 47.3488 103.208H80.0168C80.0727 103.205 80.1286 103.214 80.1809 103.234C80.2331 103.254 80.2806 103.285 80.3202 103.325C80.3598 103.364 80.3906 103.412 80.4107 103.464C80.4308 103.516 80.4397 103.572 80.4368 103.628C80.4368 103.74 80.3927 103.847 80.314 103.926C80.2354 104.006 80.1286 104.051 80.0168 104.052Z" fill="#263238"/>
<path d="M41.1076 106.631C43.442 106.059 44.8702 103.702 44.2977 101.368C43.7252 99.0336 41.3687 97.6053 39.0344 98.1779C36.7 98.7504 35.2717 101.107 35.8442 103.441C36.4167 105.776 38.7732 107.204 41.1076 106.631Z" fill="white" stroke="#263238" stroke-width="0.4" stroke-linecap="round" stroke-linejoin="round"/>
<path d="M40.4161 106.728C41.6401 106.548 43.0961 105.528 43.0961 105.528C42.6923 105.356 42.2731 105.222 41.8441 105.128C41.7349 105.125 41.6276 105.098 41.5294 105.05C41.4312 105.003 41.3442 104.934 41.2742 104.851C41.2043 104.767 41.153 104.669 41.1236 104.564C41.0943 104.458 41.0877 104.348 41.1041 104.24C41.6595 103.49 41.9418 102.572 41.9041 101.64C41.8841 100.944 41.9041 99.584 40.4161 99.4C40.2989 99.3937 40.1814 99.3937 40.0641 99.4C39.9469 99.3937 39.8294 99.3937 39.7121 99.4C38.2361 99.584 38.2481 100.944 38.2241 101.64C38.1865 102.572 38.4688 103.49 39.0241 104.24C39.0406 104.348 39.034 104.458 39.0046 104.564C38.9753 104.669 38.924 104.767 38.854 104.851C38.7841 104.934 38.6971 105.003 38.5989 105.05C38.5006 105.098 38.3933 105.125 38.2841 105.128C37.8564 105.222 37.4386 105.355 37.0361 105.528C37.0361 105.528 38.4881 106.548 39.7121 106.728C39.8284 106.748 39.9461 106.759 40.0641 106.76C40.1822 106.759 40.2999 106.748 40.4161 106.728Z" fill="#263238"/>
<path d="M40.0642 99.124C38.5002 99.124 37.4042 100.208 37.2002 104.116C39.0585 104.74 41.0699 104.74 42.9282 104.116C42.7242 100.208 41.6282 99.124 40.0642 99.124Z" fill="#263238"/>
<path d="M59.4284 116.032H47.7004C47.4882 116.032 47.2847 115.948 47.1347 115.798C46.9847 115.648 46.9004 115.444 46.9004 115.232C46.9004 115.02 46.9847 114.816 47.1347 114.666C47.2847 114.516 47.4882 114.432 47.7004 114.432H59.4124C59.6246 114.432 59.828 114.516 59.9781 114.666C60.1281 114.816 60.2124 115.02 60.2124 115.232C60.2124 115.441 60.1303 115.643 59.9838 115.792C59.8372 115.942 59.6378 116.028 59.4284 116.032Z" fill="#263238"/>
<path d="M88.0168 118H47.3488C47.2933 118.001 47.2383 117.99 47.1868 117.969C47.1354 117.948 47.0887 117.917 47.0492 117.878C47.0098 117.839 46.9785 117.793 46.9572 117.742C46.9358 117.69 46.9248 117.635 46.9248 117.58C46.9248 117.468 46.9695 117.36 47.049 117.28C47.1285 117.201 47.2364 117.156 47.3488 117.156H88.0168C88.1286 117.157 88.2354 117.202 88.314 117.282C88.3927 117.361 88.4368 117.468 88.4368 117.58C88.4397 117.636 88.4308 117.692 88.4107 117.744C88.3906 117.796 88.3598 117.844 88.3202 117.883C88.2806 117.923 88.2331 117.954 88.1809 117.974C88.1286 117.994 88.0727 118.003 88.0168 118Z" fill="#263238"/>
<path d="M43.1037 119.467C44.8265 117.791 44.8645 115.035 43.1886 113.312C41.5126 111.59 38.7573 111.552 37.0345 113.228C35.3117 114.904 35.2737 117.659 36.9496 119.382C38.6256 121.105 41.3809 121.142 43.1037 119.467Z" fill="white" stroke="#263238" stroke-width="0.4" stroke-linecap="round" stroke-linejoin="round"/>
<path d="M40.4161 120.676C41.6401 120.496 43.0961 119.476 43.0961 119.476C42.6923 119.304 42.2731 119.17 41.8441 119.076C41.7349 119.073 41.6276 119.046 41.5294 118.998C41.4312 118.951 41.3442 118.883 41.2742 118.799C41.2043 118.715 41.153 118.617 41.1236 118.512C41.0943 118.406 41.0877 118.296 41.1041 118.188C41.6601 117.437 41.9424 116.518 41.9041 115.584C41.8841 114.892 41.9041 113.532 40.4161 113.348C40.2992 113.335 40.1817 113.328 40.0641 113.328C39.9465 113.328 39.829 113.335 39.7121 113.348C38.2361 113.532 38.2481 114.892 38.2241 115.584C38.1859 116.518 38.4682 117.437 39.0241 118.188C39.0406 118.296 39.034 118.406 39.0046 118.512C38.9753 118.617 38.924 118.715 38.854 118.799C38.7841 118.883 38.6971 118.951 38.5989 118.998C38.5006 119.046 38.3933 119.073 38.2841 119.076C37.8564 119.17 37.4386 119.304 37.0361 119.476C37.0361 119.476 38.4881 120.496 39.7121 120.676C39.8287 120.694 39.9462 120.705 40.0641 120.708C40.182 120.705 40.2996 120.694 40.4161 120.676Z" fill="#263238"/>
<path d="M43.8362 121.436C44.7861 121.436 45.5562 120.666 45.5562 119.716C45.5562 118.766 44.7861 117.996 43.8362 117.996C42.8863 117.996 42.1162 118.766 42.1162 119.716C42.1162 120.666 42.8863 121.436 43.8362 121.436Z" fill="#465EFD" stroke="#263238" stroke-width="0.4" stroke-linecap="round" stroke-linejoin="round"/>
<path d="M43.7481 119.6L43.6281 118.84H44.0281L43.9081 119.6L44.5961 119.256L44.7241 119.656L43.9681 119.784L44.5081 120.324L44.1761 120.572L43.8201 119.888L43.4641 120.572L43.1321 120.324L43.6721 119.784L42.9121 119.656L43.0441 119.256L43.7481 119.6Z" fill="#263238"/>
<path d="M51.4284 130H47.7004C47.4882 130 47.2847 129.916 47.1347 129.766C46.9847 129.616 46.9004 129.412 46.9004 129.2C46.9004 128.988 46.9847 128.784 47.1347 128.634C47.2847 128.484 47.4882 128.4 47.7004 128.4H51.4124C51.6246 128.4 51.828 128.484 51.9781 128.634C52.1281 128.784 52.2124 128.988 52.2124 129.2C52.2124 129.409 52.1303 129.611 51.9838 129.76C51.8372 129.91 51.6378 129.996 51.4284 130Z" fill="#263238"/>
<path d="M84.0168 131.944H47.3488C47.2933 131.944 47.2383 131.934 47.1868 131.913C47.1354 131.892 47.0887 131.861 47.0492 131.822C47.0098 131.783 46.9785 131.737 46.9572 131.686C46.9358 131.634 46.9248 131.579 46.9248 131.524C46.9248 131.412 46.9695 131.304 47.049 131.224C47.1285 131.145 47.2364 131.1 47.3488 131.1H84.0168C84.1286 131.101 84.2354 131.146 84.314 131.226C84.3927 131.305 84.4368 131.412 84.4368 131.524C84.4397 131.58 84.4308 131.636 84.4107 131.688C84.3906 131.74 84.3598 131.788 84.3202 131.827C84.2806 131.867 84.2331 131.898 84.1809 131.918C84.1286 131.938 84.0727 131.947 84.0168 131.944Z" fill="#263238"/>
<path d="M43.1057 133.416C44.8285 131.74 44.8665 128.985 43.1905 127.262C41.5146 125.539 38.7593 125.501 37.0365 127.177C35.3136 128.853 35.2756 131.609 36.9516 133.331C38.6276 135.054 41.3828 135.092 43.1057 133.416Z" fill="white" stroke="#263238" stroke-width="0.4" stroke-linecap="round" stroke-linejoin="round"/>
<path d="M40.4161 134.624C41.6401 134.44 43.0961 133.424 43.0961 133.424C42.6923 133.252 42.2731 133.118 41.8441 133.024C41.7351 133.02 41.6282 132.993 41.5303 132.945C41.4323 132.897 41.3456 132.829 41.2758 132.745C41.206 132.661 41.1546 132.564 41.125 132.459C41.0954 132.354 41.0883 132.244 41.1041 132.136C41.6601 131.385 41.9424 130.466 41.9041 129.532C41.8841 128.84 41.9041 127.48 40.4161 127.296C40.2992 127.283 40.1817 127.276 40.0641 127.276C39.9465 127.276 39.829 127.283 39.7121 127.296C38.2361 127.48 38.2481 128.84 38.2241 129.532C38.1859 130.466 38.4682 131.385 39.0241 132.136C39.0399 132.244 39.0328 132.354 39.0033 132.459C38.9737 132.564 38.9223 132.661 38.8525 132.745C38.7826 132.829 38.6959 132.897 38.598 132.945C38.5001 132.993 38.3931 133.02 38.2841 133.024C37.8564 133.118 37.4386 133.252 37.0361 133.424C37.0361 133.424 38.4881 134.44 39.7121 134.624C39.8287 134.641 39.9463 134.65 40.0641 134.652C40.182 134.65 40.2996 134.641 40.4161 134.624Z" fill="#263238"/>
<path d="M59.4284 143.928H47.7004C47.4882 143.928 47.2847 143.844 47.1347 143.694C46.9847 143.544 46.9004 143.34 46.9004 143.128C46.9004 142.916 46.9847 142.712 47.1347 142.562C47.2847 142.412 47.4882 142.328 47.7004 142.328H59.4124C59.6246 142.328 59.828 142.412 59.9781 142.562C60.1281 142.712 60.2124 142.916 60.2124 143.128C60.2124 143.337 60.1303 143.538 59.9838 143.688C59.8372 143.838 59.6378 143.924 59.4284 143.928Z" fill="#263238"/>
<path d="M44.4169 144.248C44.4173 144.487 44.3972 144.725 44.3569 144.96H35.7729C35.7326 144.725 35.7125 144.487 35.7129 144.248C35.7129 143.094 36.1714 141.987 36.9876 141.171C37.8037 140.355 38.9107 139.896 40.0649 139.896C41.2191 139.896 42.3261 140.355 43.1422 141.171C43.9584 141.987 44.4169 143.094 44.4169 144.248Z" fill="white" stroke="#263238" stroke-width="0.4" stroke-linecap="round" stroke-linejoin="round"/>
<path d="M41.9045 143.476C41.9234 143.98 41.8488 144.483 41.6845 144.96H38.4445C38.2803 144.483 38.2057 143.98 38.2245 143.476C38.2485 142.784 38.2245 141.424 39.7125 141.24C39.9464 141.213 40.1826 141.213 40.4165 141.24C41.8965 141.424 41.8845 142.8 41.9045 143.476Z" fill="#263238"/>
<path d="M89.5205 142.832C92.695 142.832 95.2685 140.258 95.2685 137.084C95.2685 133.909 92.695 131.336 89.5205 131.336C86.3459 131.336 83.7725 133.909 83.7725 137.084C83.7725 140.258 86.3459 142.832 89.5205 142.832Z" fill="#465EFD" stroke="#263238" stroke-width="0.4" stroke-linecap="round" stroke-linejoin="round"/>
<path d="M92.0319 135.348L91.2598 134.576L87.7865 138.049L88.5586 138.821L92.0319 135.348Z" fill="#263238"/>
<path d="M87.4367 138.396L87.0127 139.592L88.2087 139.168L87.4367 138.396Z" fill="#263238"/>
<path d="M111.732 53.276H131.648C132.337 53.276 132.999 53.5499 133.486 54.0375C133.974 54.5251 134.248 55.1864 134.248 55.876V67.74C134.248 68.0818 134.182 68.4203 134.051 68.7362C133.921 69.0521 133.729 69.3392 133.488 69.5811C133.246 69.8229 132.959 70.0148 132.644 70.1457C132.328 70.2766 131.99 70.344 131.648 70.344H129.164L131.46 74.696L126.156 70.344H111.732C111.39 70.344 111.052 70.2766 110.736 70.1457C110.42 70.0148 110.133 69.8229 109.892 69.5811C109.65 69.3392 109.459 69.0521 109.329 68.7362C109.198 68.4203 109.131 68.0818 109.132 67.74V55.876C109.132 55.1864 109.406 54.5251 109.893 54.0375C110.381 53.5499 111.042 53.276 111.732 53.276V53.276Z" stroke="#263238" stroke-width="0.4" stroke-linecap="round" stroke-linejoin="round"/>
<g opacity="0.5">
<path d="M112.8 58.072H130.584C130.765 58.072 130.912 57.9252 130.912 57.744V57.6C130.912 57.4189 130.765 57.272 130.584 57.272H112.8C112.619 57.272 112.472 57.4189 112.472 57.6V57.744C112.472 57.9252 112.619 58.072 112.8 58.072Z" fill="#263238"/>
<path d="M112.8 60.7679H130.584C130.765 60.7679 130.912 60.6211 130.912 60.4399V60.2959C130.912 60.1148 130.765 59.9679 130.584 59.9679H112.8C112.619 59.9679 112.472 60.1148 112.472 60.2959V60.4399C112.472 60.6211 112.619 60.7679 112.8 60.7679Z" fill="#263238"/>
<path d="M112.8 63.4639H130.584C130.765 63.4639 130.912 63.317 130.912 63.1359V62.9919C130.912 62.8107 130.765 62.6639 130.584 62.6639H112.8C112.619 62.6639 112.472 62.8107 112.472 62.9919V63.1359C112.472 63.317 112.619 63.4639 112.8 63.4639Z" fill="#263238"/>
<path d="M121.199 66.1639H130.579C130.76 66.1639 130.907 66.0171 130.907 65.8359V65.6919C130.907 65.5108 130.76 65.3639 130.579 65.3639H121.199C121.018 65.3639 120.871 65.5108 120.871 65.6919V65.8359C120.871 66.0171 121.018 66.1639 121.199 66.1639Z" fill="#263238"/>
</g>
<path d="M136.588 130.516C136.588 130.524 136.588 130.532 136.588 130.54C136.396 130.94 133.628 136.856 130.256 142.54C129.372 144.032 128.448 145.504 127.516 146.86C125.488 149.812 123.432 152.2 121.724 152.944C116.124 155.38 119.324 136.292 119.324 136.292C121.367 133.861 123.124 131.204 124.56 128.372C125.228 127.052 126.004 125.52 126.816 123.972C127.44 122.792 128.08 121.612 128.708 120.52C130.128 118.04 131.452 116.04 132.256 115.648C133.136 115.216 134.352 119.676 135.272 123.824C136.02 127.28 136.588 130.516 136.588 130.516Z" fill="white" stroke="#263238" stroke-width="0.4" stroke-linecap="round" stroke-linejoin="round"/>
<path d="M136.589 130.516C136.588 130.524 136.588 130.532 136.589 130.54C136.397 130.94 133.629 136.856 130.257 142.54C131.273 133.456 130.321 127.38 130.321 127.38C128.157 124.108 126.801 123.984 126.801 123.984C127.425 122.804 128.065 121.624 128.693 120.532L131.557 117.856L135.257 123.836C136.021 127.28 136.589 130.516 136.589 130.516Z" fill="#263238"/>
<path d="M162.396 69.4279C167.452 73.0879 171.876 86.0159 170.188 94.4159C168.5 102.816 177.184 105.216 177.152 118.476C177.152 122.172 165.704 137.196 152.412 129.18C139.12 121.164 135.428 117.22 136.692 109.18C137.956 101.14 138.012 95.8519 135.612 89.1039C133.212 82.3559 153.224 62.7999 162.396 69.4279Z" fill="#263238"/>
<path d="M181.845 126.128L179.021 128.044C178.285 132.679 177.003 137.211 175.201 141.544C171.645 149.892 168.497 154.868 167.397 156.512C167.125 156.912 166.977 157.112 166.977 157.112L169.929 168.18C169.929 168.18 150.229 188.664 128.501 185.708L129.953 174.108L131.909 158.508L132.545 153.44C132.545 153.44 132.277 149.804 131.849 145.328C131.557 142.244 131.189 138.76 130.773 135.792C130.756 135.659 130.749 135.526 130.753 135.392C130.785 133.52 132.253 129.584 132.253 129.584C131.013 127.62 129.853 125.812 128.897 124.384C127.633 122.468 126.797 121.236 126.797 121.236C126.797 121.236 131.197 115.828 131.445 115.212C132.837 111.568 137.701 112.248 137.701 112.248C138.064 111.896 138.519 111.652 139.013 111.544C141.325 110.964 147.897 115.572 151.485 115.608C155.073 115.644 172.685 110.9 172.685 110.9L174.477 111.544C174.477 111.544 176.905 111.256 178.801 114.768C179.701 116.468 181.845 126.128 181.845 126.128Z" fill="#465EFD"/>
<path opacity="0.3" d="M150.221 171.744C150.221 171.744 137.981 175.876 129.933 174.112L131.889 158.512C133.633 160.244 143.745 170 150.221 171.744Z" fill="black" fill-opacity="0.7"/>
<path opacity="0.3" d="M132.232 129.6C130.992 127.636 129.832 125.828 128.876 124.4C129.708 122.4 130.944 120.548 132.656 120.656C132.656 120.656 131.46 125.968 132.232 129.6Z" fill="black" fill-opacity="0.7"/>
<path opacity="0.3" d="M171.928 126.128C169.732 126.856 164.756 129.06 164.756 129.06L163.836 127.992L167.376 122.92C167.376 122.92 164.884 123.928 163.836 125.196C162.788 126.464 162.512 129.292 162.472 129.28C162.432 129.268 161.556 126.304 161.556 126.304C161.259 127.538 161.063 128.794 160.972 130.06C160.856 131.4 162.328 133.58 163.604 135.2L161.38 147.036L152.9 141.88L148.9 139.456C148.55 139.272 148.212 139.066 147.888 138.84C147.424 138.464 147.12 137.976 146.58 137.64C145.963 137.294 145.297 137.044 144.604 136.9C142.072 136.311 139.441 136.29 136.9 136.84C135.828 137.072 134.728 137.404 133.664 137.152C132.6 136.9 131.688 136.048 130.752 135.408C130.748 135.542 130.755 135.675 130.772 135.808C131.172 138.776 131.572 142.26 131.848 145.344H132.304C132.599 145.328 132.895 145.352 133.184 145.416C133.796 145.584 135.012 148.568 135.432 149.04C138.5 152.464 143.632 158.24 147.36 160.94C146.616 158.94 142.724 151.94 142.796 149.74C143.632 150.02 144.284 150.664 144.956 151.236C146.98 152.972 149.396 154.18 151.78 155.372L157.032 158C158.632 158.8 160.74 160.052 162.58 159.56C164.088 159.16 165.988 157.644 167.192 156.688L167.392 156.528C168.492 154.884 171.64 149.908 175.196 141.56C176.998 137.227 178.28 132.695 179.016 128.06L181.84 126.144C181.84 126.144 174.124 125.4 171.928 126.128Z" fill="black" fill-opacity="0.7"/>
<path d="M128.501 185.708L132.545 153.46C132.545 153.46 131.785 143.092 130.773 135.812C130.545 134.18 132.253 129.6 132.253 129.6C129.345 125 126.797 121.252 126.797 121.252C126.797 121.252 131.197 115.844 131.445 115.228C132.837 111.584 137.701 112.264 137.701 112.264C138.064 111.912 138.519 111.668 139.013 111.56C141.325 110.98 147.897 115.588 151.485 115.624C155.073 115.66 172.685 110.916 172.685 110.916L174.477 111.56C174.477 111.56 176.905 111.272 178.801 114.784C179.713 116.468 181.861 126.128 181.861 126.128L179.037 128.044C178.301 132.679 177.019 137.211 175.217 141.544C170.785 151.944 166.989 157.12 166.989 157.12L169.941 168.188" stroke="#263238" stroke-width="0.4" stroke-linecap="round" stroke-linejoin="round"/>
<path d="M167.84 122.308C167.84 122.308 162.828 128.8 162.952 130C163.076 131.2 165.396 132.436 165.396 132.436" stroke="#263238" stroke-width="0.4" stroke-linecap="round" stroke-linejoin="round"/>
<path d="M161.38 124.912C161.622 126.598 161.762 128.297 161.8 130C161.8 132.224 167.84 135.916 167.84 135.916" stroke="#263238" stroke-width="0.4" stroke-linecap="round" stroke-linejoin="round"/>
<path d="M132.233 129.6C132.233 129.6 131.813 121.04 133.145 119.564" stroke="#263238" stroke-width="0.4" stroke-linecap="round" stroke-linejoin="round"/>
<path d="M130.752 122.728C130.752 122.728 131.44 127.16 132.168 128.004" stroke="#263238" stroke-width="0.4" stroke-linecap="round" stroke-linejoin="round"/>
<path d="M153.257 126.128C153.257 126.128 144.605 131.696 136.589 132.436" stroke="#263238" stroke-width="0.4" stroke-linecap="round" stroke-linejoin="round"/>
<path d="M136.589 150.476C136.589 150.476 146.293 162.184 152.625 163.768" stroke="#263238" stroke-width="0.4" stroke-linecap="round" stroke-linejoin="round"/>
<path d="M166.973 157.12C166.973 157.12 164.769 155.52 165.397 154.584" stroke="#263238" stroke-width="0.4" stroke-linecap="round" stroke-linejoin="round"/>
<path d="M161.38 166.64C161.38 166.64 147.612 174.316 140.58 173.684" stroke="#263238" stroke-width="0.4" stroke-linecap="round" stroke-linejoin="round"/>
<path d="M124.436 142.032C122.64 135.432 119.7 133.28 117.76 126.212C117.184 124.12 115.476 117.74 115.476 117.74C115.476 117.74 117.656 110.94 113.3 107.068C113.3 107.068 112.1 107.068 110.056 111.776C109.202 113.833 108.981 116.097 109.42 118.28C109.42 118.28 110.776 126.572 111.072 128.8C111.784 134.172 113.328 143.168 115.472 147.684C117.772 152.512 120.196 153.592 122.012 152.596" fill="white"/>
<path d="M124.436 142.032C122.64 135.432 119.7 133.28 117.76 126.212C117.184 124.12 115.476 117.74 115.476 117.74C115.476 117.74 117.656 110.94 113.3 107.068C113.3 107.068 112.1 107.068 110.056 111.776C109.202 113.833 108.981 116.097 109.42 118.28C109.42 118.28 110.776 126.572 111.072 128.8C111.784 134.172 113.328 143.168 115.472 147.684C117.772 152.512 120.196 153.592 122.012 152.596" stroke="#263238" stroke-width="0.4" stroke-linecap="round" stroke-linejoin="round"/>
<path d="M116.237 116.292L120.901 117.832C121.393 117.96 122.361 117.14 122.317 116.632L120.921 100.4C120.894 100.08 120.768 99.7769 120.561 99.5319C120.354 99.2868 120.075 99.1121 119.765 99.032L114.617 97.912C114.125 97.788 112.889 98.376 112.933 98.88L115.077 114.924C115.104 115.244 115.231 115.548 115.438 115.793C115.646 116.038 115.925 116.213 116.237 116.292Z" fill="#465EFD"/>
<path opacity="0.3" d="M116.237 116.292L120.901 117.832C121.393 117.96 122.361 117.14 122.317 116.632L120.921 100.4C120.894 100.08 120.768 99.7769 120.561 99.5319C120.354 99.2868 120.075 99.1121 119.765 99.032L114.617 97.912C114.125 97.788 112.889 98.376 112.933 98.88L115.077 114.924C115.104 115.244 115.231 115.548 115.438 115.793C115.646 116.038 115.925 116.213 116.237 116.292Z" fill="black" fill-opacity="0.7"/>
<path d="M116.237 116.292L120.901 117.832C121.393 117.96 122.361 117.14 122.317 116.632L120.921 100.4C120.894 100.08 120.768 99.7769 120.561 99.5319C120.354 99.2868 120.075 99.1121 119.765 99.032L114.617 97.912C114.125 97.788 112.889 98.376 112.933 98.88L115.077 114.924C115.104 115.244 115.231 115.548 115.438 115.793C115.646 116.038 115.925 116.213 116.237 116.292V116.292Z" stroke="#263238" stroke-width="0.4" stroke-linecap="round" stroke-linejoin="round"/>
<path d="M115.468 116.692L120.616 117.808C120.73 117.838 120.849 117.84 120.964 117.814C121.078 117.789 121.185 117.736 121.275 117.66C121.365 117.584 121.435 117.488 121.48 117.379C121.525 117.271 121.543 117.153 121.532 117.036L120.156 100.8C120.129 100.48 120.002 100.176 119.795 99.9309C119.587 99.6857 119.308 99.5114 118.996 99.432L113.852 98.312C113.738 98.2828 113.619 98.2813 113.505 98.3077C113.39 98.334 113.284 98.3874 113.194 98.4634C113.104 98.5393 113.034 98.6357 112.989 98.7444C112.944 98.853 112.926 98.9709 112.936 99.088L114.312 115.324C114.339 115.644 114.465 115.947 114.672 116.192C114.879 116.437 115.158 116.612 115.468 116.692Z" fill="#465EFD" stroke="#263238" stroke-width="0.4" stroke-linecap="round" stroke-linejoin="round"/>
<path opacity="0.3" d="M118.324 103.804L119.152 103.984C119.171 103.988 119.19 103.988 119.208 103.984C119.226 103.98 119.243 103.971 119.258 103.959C119.272 103.947 119.283 103.932 119.291 103.915C119.298 103.897 119.301 103.879 119.3 103.86L119.08 101.24C119.075 101.188 119.055 101.14 119.021 101.1C118.987 101.061 118.942 101.033 118.892 101.02L118.06 100.84C118.042 100.835 118.023 100.835 118.005 100.84C117.986 100.844 117.969 100.852 117.955 100.865C117.941 100.877 117.929 100.892 117.922 100.909C117.914 100.926 117.911 100.945 117.912 100.964L118.136 103.584C118.141 103.635 118.162 103.684 118.196 103.724C118.229 103.763 118.274 103.791 118.324 103.804Z" fill="black" fill-opacity="0.7"/>
<path d="M111.085 111.94C110.885 109.664 112.957 106.248 114.337 106.248C115.717 106.248 119.909 109.48 119.909 109.48C121.533 110.656 120.729 111.776 120.729 111.776C121.685 112.408 121.929 113.264 121.509 113.66C121.089 114.056 119.685 113.66 119.685 113.66C119.685 113.66 121.077 114.676 120.729 115.176C119.909 116.356 117.213 114.8 117.213 114.8C117.213 114.8 118.777 115.832 118.689 116.028C118.097 117.316 115.541 115.816 115.541 115.816L113.745 116.736C113.746 116.948 113.704 117.158 113.621 117.352C113.537 117.547 113.415 117.722 113.26 117.867C113.106 118.012 112.923 118.124 112.724 118.195C112.524 118.266 112.312 118.295 112.101 118.28" fill="white"/>
<path d="M111.085 111.94C110.885 109.664 112.957 106.248 114.337 106.248C115.717 106.248 119.909 109.48 119.909 109.48C121.533 110.656 120.729 111.776 120.729 111.776C121.685 112.408 121.929 113.264 121.509 113.66C121.089 114.056 119.685 113.66 119.685 113.66C119.685 113.66 121.077 114.676 120.729 115.176C119.909 116.356 117.213 114.8 117.213 114.8C117.213 114.8 118.777 115.832 118.689 116.028C118.097 117.316 115.541 115.816 115.541 115.816L113.745 116.736C113.746 116.948 113.704 117.158 113.621 117.352C113.537 117.547 113.415 117.722 113.26 117.867C113.106 118.012 112.923 118.124 112.724 118.195C112.524 118.266 112.312 118.295 112.101 118.28" stroke="#263238" stroke-width="0.4" stroke-linecap="round" stroke-linejoin="round"/>
<path d="M120.728 111.776C120.728 111.776 116.8 109.24 116.304 109.172C115.808 109.104 113.988 108.708 113.988 108.708" fill="white"/>
<path d="M120.728 111.776C120.728 111.776 116.8 109.24 116.304 109.172C115.808 109.104 113.988 108.708 113.988 108.708" stroke="#263238" stroke-width="0.4" stroke-linecap="round" stroke-linejoin="round"/>
<path d="M119.701 113.66C119.701 113.66 116.501 112.012 115.925 112.012C115.042 111.915 114.165 111.764 113.301 111.56" fill="white"/>
<path d="M119.701 113.66C119.701 113.66 116.501 112.012 115.925 112.012C115.042 111.915 114.165 111.764 113.301 111.56" stroke="#263238" stroke-width="0.4" stroke-linecap="round" stroke-linejoin="round"/>
<path d="M117.212 114.8C116.839 114.535 116.445 114.302 116.032 114.104C115.27 114.049 114.506 114.049 113.744 114.104" fill="white"/>
<path d="M117.212 114.8C116.839 114.535 116.445 114.302 116.032 114.104C115.27 114.049 114.506 114.049 113.744 114.104" stroke="#263238" stroke-width="0.4" stroke-linecap="round" stroke-linejoin="round"/>
<path d="M157.212 140.348C157.212 140.348 159.692 138.952 161.908 133.744C164.124 128.536 164.756 129.06 164.756 129.06C164.756 129.06 169.608 126.68 171.928 126.128C174.248 125.576 178.468 126.128 178.468 126.128C178.468 126.128 174.868 136.572 171.192 143.364C167.516 150.156 164.556 154.164 162.592 154.564C160.628 154.964 157.212 140.348 157.212 140.348Z" fill="white" stroke="#263238" stroke-width="0.4" stroke-linecap="round" stroke-linejoin="round"/>
<path d="M171.612 111.6C171.612 111.6 153.956 121.004 148.852 120.952C143.748 120.9 140.568 112.152 140.568 112.152C140.568 112.152 150.008 111.94 148.912 107.428C148.912 107.352 148.876 107.268 148.852 107.188C148.4 105.612 146.668 102.852 146.024 101.86C145.872 101.624 145.78 101.488 145.78 101.488L159.752 91.056C158.952 101.604 160.496 106.228 161.444 107.964C163.072 110.936 171.612 111.6 171.612 111.6Z" fill="white" stroke="#263238" stroke-width="0.4" stroke-linecap="round" stroke-linejoin="round"/>
<path d="M155.789 96.968C155.789 96.968 152.877 105.2 148.901 107.428C148.901 107.352 148.865 107.268 148.841 107.188C148.389 105.612 146.657 102.852 146.013 101.86L155.789 96.968Z" fill="#263238"/>
<path d="M149.736 118.444C149.736 118.444 150.724 116.536 152.2 116.312C153.676 116.088 157.74 116.048 165.256 114.8" stroke="#263238" stroke-width="0.4" stroke-linecap="round" stroke-linejoin="round"/>
<path d="M147.469 118.444C147.469 118.444 146.837 116.96 146.669 116.312C146.501 115.664 142.573 114.848 141.269 113.776" stroke="#263238" stroke-width="0.4" stroke-linecap="round" stroke-linejoin="round"/>
<path d="M136.784 73.6919C134.196 76.5119 133.424 85.7159 134.716 89.6919C134.716 89.6919 141.2 90.6199 142.716 89.4519C144.232 88.2839 136.784 73.6919 136.784 73.6919Z" fill="#263238"/>
<path d="M161.168 92.28C161.792 89.524 165.1 76.164 157.312 70.252C149.524 64.34 140.024 72.224 138.692 74.084C133.32 81.588 135.7 87.552 136.692 91.148C137.684 94.744 137.196 99.1 142.22 105.088C144.332 107.604 148.132 106.264 151.876 103.66C154.12 102.1 157.28 99.356 157.36 96.712" fill="white"/>
<path d="M161.168 92.28C161.792 89.524 165.1 76.164 157.312 70.252C149.524 64.34 140.024 72.224 138.692 74.084C133.32 81.588 135.7 87.552 136.692 91.148C137.684 94.744 137.196 99.1 142.22 105.088C144.332 107.604 148.132 106.264 151.876 103.66C154.12 102.1 157.28 99.356 157.36 96.712" stroke="#263238" stroke-width="0.4" stroke-linecap="round" stroke-linejoin="round"/>
<path d="M143.364 86.424C143.364 86.424 147.584 85.672 149.972 87.168" stroke="#263238" stroke-width="0.4" stroke-linecap="round" stroke-linejoin="round"/>
<path d="M147.828 90.5041C147.932 91.1521 147.704 91.7281 147.316 91.7921C146.928 91.8561 146.516 91.3921 146.42 90.7361C146.324 90.0801 146.544 89.5121 146.932 89.4481C147.32 89.3841 147.72 89.8561 147.828 90.5041Z" fill="#263238"/>
<path d="M139.396 90.5041C139.5 91.1521 139.272 91.7281 138.884 91.7921C138.496 91.8561 138.084 91.3921 137.988 90.7361C137.892 90.0801 138.112 89.5121 138.5 89.4481C138.888 89.3841 139.3 89.8561 139.396 90.5041Z" fill="#263238"/>
<path d="M138.692 86.464C138.692 86.464 136.364 85.632 135.612 86.7" stroke="#263238" stroke-width="0.4" stroke-linecap="round" stroke-linejoin="round"/>
<path d="M140.16 90.184C140.4 91.096 138.56 95.208 138.692 95.564C138.824 95.92 139.728 96.552 141.348 96.712" stroke="#263238" stroke-width="0.4" stroke-linecap="round" stroke-linejoin="round"/>
<path d="M142.148 99.54C142.148 99.54 145.524 99.54 147.468 98.168" stroke="#263238" stroke-width="0.4" stroke-linecap="round" stroke-linejoin="round"/>
<path d="M137.748 71.708C137.748 71.708 134.188 75.016 136.484 81.52C136.991 82.8463 137.74 84.067 138.692 85.12C141.072 83.78 142.26 85.872 143.684 85.188C145.108 84.504 147.376 85.956 148.852 85.668C149.578 85.5063 150.332 85.5134 151.054 85.6889C151.777 85.8643 152.45 86.2034 153.02 86.68C154.128 87.672 154.128 89.844 155.788 90.892C155.788 90.892 156.756 87.496 158.796 87.988C160.836 88.48 159.032 94.388 159.032 94.388C161.589 91.2717 163.183 87.4788 163.62 83.472C164.42 76.672 161.732 70.732 157.22 69.472C157.22 69.472 155.716 66.544 150.572 67.016C145.428 67.488 140.764 67.2 137.748 71.708Z" fill="#263238"/>
<path d="M157.212 88.8801C157.212 88.8801 159.112 84.2241 161.88 86.1561C164.648 88.0881 161.328 94.0201 159.98 95.5241C158.632 97.0281 158.24 95.3681 158.084 94.8921" fill="white"/>
<path d="M157.212 88.8801C157.212 88.8801 159.112 84.2241 161.88 86.1561C164.648 88.0881 161.328 94.0201 159.98 95.5241C158.632 97.0281 158.24 95.3681 158.084 94.8921" stroke="#263238" stroke-width="0.4" stroke-linecap="round" stroke-linejoin="round"/>
<g opacity="0.2">
<path d="M138.996 75.092C139.076 73.9265 139.425 72.7955 140.016 71.788" stroke="white" stroke-width="0.4" stroke-linecap="round" stroke-linejoin="round"/>
<path d="M142.148 83.1039C140.436 81.1919 139.132 78.6199 138.992 76.0359" stroke="white" stroke-width="0.4" stroke-linecap="round" stroke-linejoin="round"/>
<path d="M145.78 79.8879C146.746 81.4686 148.11 82.7679 149.736 83.6559" stroke="white" stroke-width="0.4" stroke-linecap="round" stroke-linejoin="round"/>
<path d="M144.808 71.788C143.496 73.896 144.252 76.92 145.276 78.988" stroke="white" stroke-width="0.4" stroke-linecap="round" stroke-linejoin="round"/>
<path d="M158.14 83.7759C159.131 84.2902 160.172 84.7016 161.248 85.0039" stroke="white" stroke-width="0.4" stroke-linecap="round" stroke-linejoin="round"/>
<path d="M148.853 74.5599C150.852 78.1688 153.766 81.1885 157.301 83.3159" stroke="white" stroke-width="0.4" stroke-linecap="round" stroke-linejoin="round"/>
</g>
<path d="M128.952 109.256C128.952 109.256 127.752 109.256 127.644 110.132C127.536 111.008 129.324 112.152 129.324 112.152" fill="white"/>
<path d="M128.952 109.256C128.952 109.256 127.752 109.256 127.644 110.132C127.536 111.008 129.324 112.152 129.324 112.152" stroke="#263238" stroke-width="0.4" stroke-linecap="round" stroke-linejoin="round"/>
<path d="M162.66 141.076C159.956 136.952 156.14 134.372 152.728 129.796C149.904 126.001 147.299 122.048 144.924 117.956L141.304 111.156C141.304 111.156 136.872 105.812 135.08 105.156C133.288 104.5 123.48 104.188 123.48 104.188C123.48 104.188 123.08 105.252 124.596 105.788C126.112 106.324 130.756 106.76 130.756 106.76C130.756 106.76 129.388 107.348 129.072 107.832C128.756 108.316 129.072 112.292 129.704 113.1C130.336 113.908 132.764 114.644 132.764 114.644C132.764 114.644 133.084 117.444 135.456 118.832C137.828 120.22 138.988 120.236 138.988 120.236C138.988 120.236 141.22 124.028 142.152 126.736C144.152 132.508 149.196 145.632 152.84 150.364C157.152 155.964 162.74 156.18 164.76 152.616" fill="white"/>
<path d="M162.66 141.076C159.956 136.952 156.14 134.372 152.728 129.796C149.904 126.001 147.299 122.048 144.924 117.956L141.304 111.156C141.304 111.156 136.872 105.812 135.08 105.156C133.288 104.5 123.48 104.188 123.48 104.188C123.48 104.188 123.08 105.252 124.596 105.788C126.112 106.324 130.756 106.76 130.756 106.76C130.756 106.76 129.388 107.348 129.072 107.832C128.756 108.316 129.072 112.292 129.704 113.1C130.336 113.908 132.764 114.644 132.764 114.644C132.764 114.644 133.084 117.444 135.456 118.832C137.828 120.22 138.988 120.236 138.988 120.236C138.988 120.236 141.22 124.028 142.152 126.736C144.152 132.508 149.196 145.632 152.84 150.364C157.152 155.964 162.74 156.18 164.76 152.616" stroke="#263238" stroke-width="0.4" stroke-linecap="round" stroke-linejoin="round"/>
<path d="M134.9 108.872C134.9 108.872 131.46 109.272 131.024 109.584C130.588 109.896 130.796 112.356 131.024 113.216C131.063 113.44 131.151 113.653 131.281 113.839C131.41 114.026 131.58 114.182 131.776 114.296" stroke="#263238" stroke-width="0.4" stroke-linecap="round" stroke-linejoin="round"/>
<path d="M133.48 106.84C133.48 106.84 130.096 107.684 129.88 108.12C129.565 109.31 129.512 110.555 129.724 111.768C130 113.104 130.08 113.524 130.596 113.768" stroke="#263238" stroke-width="0.4" stroke-linecap="round" stroke-linejoin="round"/>
<path d="M130.752 106.764C131.233 106.563 131.728 106.394 132.232 106.26" stroke="#263238" stroke-width="0.4" stroke-linecap="round" stroke-linejoin="round"/>
<path d="M132.816 111.6C133.106 111.93 133.461 112.196 133.861 112.378C134.26 112.561 134.693 112.657 135.132 112.66C135.132 112.66 134.392 115.508 135.712 117.356" stroke="#263238" stroke-width="0.4" stroke-linecap="round" stroke-linejoin="round"/>
<path d="M133.481 112.152C133.481 112.152 132.717 112.772 132.817 113.104" stroke="#263238" stroke-width="0.4" stroke-linecap="round" stroke-linejoin="round"/>
<path d="M164.756 129.06C164.756 129.06 171.556 126.084 172.54 125.884C173.524 125.684 180.896 126.048 180.896 126.048C179.984 126.89 178.932 127.567 177.788 128.048C177.788 128.048 177.624 126.692 175.788 126.536C173.952 126.38 164.756 129.06 164.756 129.06Z" fill="#263238"/>
</svg>
