<svg width="201" height="200" viewBox="0 0 201 200" fill="none" xmlns="http://www.w3.org/2000/svg">
<path d="M164.684 133.24C167.676 108.82 153.188 76.36 138.164 62.96C111.048 38.76 88.5199 43.44 70.9999 52.108C53.4799 60.776 50.9719 89.708 38.8759 102.8C26.7799 115.892 19.8919 133.5 38.2519 151.032C56.6119 168.564 71.4159 159.652 90.6079 158.544C109.8 157.436 135.244 166.184 149.008 158.572C158.628 153.26 163.364 144.036 164.684 133.24Z" fill="#EDEFFF"/>
<path d="M88.7441 132.38V42.4042" stroke="#263238" stroke-width="0.4" stroke-linecap="round" stroke-linejoin="round"/>
<path d="M30.2559 133.272H87.0119L173.24 161.104" stroke="#263238" stroke-width="0.4" stroke-linecap="round" stroke-linejoin="round"/>
<path d="M56.0996 131.16H52.1796V66.3362H60.2716L56.7796 53.7322H46.2996L42.8076 66.3362H50.8996V131.16H46.9676C45.9622 131.161 44.9973 131.556 44.28 132.261C43.5628 132.965 43.1505 133.923 43.1316 134.928C43.1316 134.928 43.1316 134.948 43.1316 134.956C43.1316 134.956 43.1316 134.98 43.1316 134.988C43.2476 135.892 46.9596 136.62 51.5316 136.62C56.1036 136.62 59.8156 135.892 59.9316 134.988C59.9284 133.973 59.5236 133.001 58.8055 132.283C58.0874 131.566 57.1146 131.162 56.0996 131.16Z" fill="#263238"/>
<path d="M108.336 37.9442V114.272L165.804 123.728V28.4882L108.336 37.9442ZM164.312 59.8002L135.112 61.4562V34.9362L164.312 30.2882V59.8002ZM135.112 64.2442L164.312 62.9042V89.5682L135.112 88.2042V64.2442ZM132.744 88.0922L109.3 87.0002V65.4282L132.724 64.3562L132.744 88.0922ZM132.744 35.3122V61.6002L109.3 62.9162V39.0402L132.744 35.3122ZM109.3 89.5122L132.724 90.8602V116.904L109.3 113.176V89.5122ZM135.092 117.28V90.9962L164.292 92.6762V121.928L135.092 117.28Z" fill="#263238" stroke="#263238" stroke-width="0.4" stroke-linecap="round" stroke-linejoin="round"/>
<path d="M88.5161 170.38C113.91 170.38 134.496 163.967 134.496 156.056C134.496 148.145 113.91 141.732 88.5161 141.732C63.1221 141.732 42.5361 148.145 42.5361 156.056C42.5361 163.967 63.1221 170.38 88.5161 170.38Z" fill="#465EFD"/>
<path opacity="0.5" d="M88.5161 170.38C113.91 170.38 134.496 163.967 134.496 156.056C134.496 148.145 113.91 141.732 88.5161 141.732C63.1221 141.732 42.5361 148.145 42.5361 156.056C42.5361 163.967 63.1221 170.38 88.5161 170.38Z" fill="white"/>
<path d="M84.6316 92.8958C84.6316 92.8958 74.2116 91.6598 67.3556 97.0078C60.4996 102.356 54.6036 124.704 54.7396 135.408C54.8756 146.112 58.8556 151.452 68.8636 155.836C78.8716 160.22 97.5156 158.58 107.936 155.288C118.356 151.996 121.784 140.488 121.648 134.312C121.512 128.136 114.656 121.012 112.324 119.512C109.992 118.012 103.412 114.852 100.124 109.912C96.8356 104.972 92.0316 94.2678 84.6316 92.8958Z" fill="#465EFD"/>
<path opacity="0.13" d="M109.848 154.548C105.908 154.016 101.236 152.948 97.6996 150.8C90.2316 146.268 88.3676 137.732 85.6996 134.532C83.0316 131.332 78.2316 131.6 76.0996 128.132C73.9676 124.664 77.4316 99.0679 71.2996 97.4679C70.0552 97.1085 68.7669 96.9241 67.4716 96.9199C67.4356 96.9519 67.3916 96.9759 67.3556 97.0079C60.4996 102.356 54.6036 124.704 54.7396 135.408C54.8756 146.112 58.8556 151.452 68.8636 155.836C78.8716 160.22 97.5156 158.58 107.936 155.288C108.588 155.081 109.226 154.834 109.848 154.548Z" fill="#2C2D2E"/>
<path d="M84.6316 92.8958C84.6316 92.8958 74.2116 91.6598 67.3556 97.0078C60.4996 102.356 54.6036 124.704 54.7396 135.408C54.8756 146.112 58.8556 151.452 68.8636 155.836C78.8716 160.22 97.5156 158.58 107.936 155.288C118.356 151.996 121.784 140.488 121.648 134.312C121.512 128.136 114.656 121.012 112.324 119.512C109.992 118.012 103.412 114.852 100.124 109.912C96.8356 104.972 92.0316 94.2678 84.6316 92.8958Z" stroke="#263238" stroke-width="0.4" stroke-linecap="round" stroke-linejoin="round"/>
<path d="M80.5281 97.7279C80.5281 97.7279 73.7281 99.0279 72.5281 100.228C71.3281 101.428 66.3281 120.228 66.3281 120.228C67.7182 119.889 69.1765 119.959 70.5281 120.428C72.5281 121.228 72.7281 123.328 72.9281 124.328C73.0887 125.522 73.1888 126.724 73.2281 127.928C73.2281 127.928 93.4401 126.124 97.7401 125.128C102.04 124.132 108.584 123.668 108.584 123.668C108.584 123.668 97.5281 98.7319 95.8281 97.8319C94.1281 96.9319 87.0281 96.8319 86.0281 97.0319C85.0281 97.2319 80.5281 97.7279 80.5281 97.7279Z" fill="#263238" stroke="#263238" stroke-width="0.4" stroke-linecap="round" stroke-linejoin="round"/>
<path d="M73.8281 120.828L75.5281 106.928" stroke="white" stroke-width="0.4" stroke-linecap="round" stroke-linejoin="round"/>
<path d="M75.1279 110.628L77.4279 107.628" stroke="white" stroke-width="0.4" stroke-linecap="round" stroke-linejoin="round"/>
<path d="M82.0283 112.428C82.0283 112.428 88.5283 110.328 92.8283 110.328" stroke="white" stroke-width="0.4" stroke-linecap="round" stroke-linejoin="round"/>
<path d="M88.1645 106.696L87.7285 110.028C87.7285 110.028 88.8285 110.028 88.9285 110.528C88.9354 110.713 88.9033 110.898 88.8344 111.07C88.7655 111.243 88.6613 111.398 88.5285 111.528C88.5285 111.528 91.6285 113.228 92.0285 115.228" stroke="white" stroke-width="0.4" stroke-linecap="round" stroke-linejoin="round"/>
<path d="M84.2599 93.9999C84.2599 93.9999 80.5279 95.1999 79.9919 96.1319C79.4559 97.0639 79.8599 103.6 79.8599 104.4C79.8599 105.2 80.3279 103.932 80.7279 103C81.1279 102.068 82.5279 100.664 82.9919 100.8C83.4559 100.936 83.7279 101.464 83.7279 102.332C83.7279 103.2 84.7919 104.4 85.7279 105.064C86.6639 105.728 87.5279 106.4 87.5279 106.4C87.5279 106.4 89.4599 103.6 89.9279 102.864C90.3959 102.128 90.3279 100.6 90.3919 100.064C90.4559 99.5279 91.6599 101.532 91.9279 101C92.1959 100.468 91.3279 99.9999 90.3919 98.5319C89.4559 97.0639 89.7279 95.5319 88.3279 94.4639C86.9279 93.3959 85.3279 93.7279 84.2599 93.9999Z" fill="white"/>
<path d="M79.9917 96.128C79.6397 96.752 79.6957 99.864 79.7757 102.128C80.6277 101.032 82.3837 98.96 83.3997 99.352C84.6957 99.852 85.1917 103.536 85.1917 103.536L84.3157 94H84.2597C84.2597 94 80.5277 95.2 79.9917 96.128Z" fill="#465EFD"/>
<path opacity="0.5" d="M79.9917 96.128C79.6397 96.752 79.6957 99.864 79.7757 102.128C80.6277 101.032 82.3837 98.96 83.3997 99.352C84.6957 99.852 85.1917 103.536 85.1917 103.536L84.3157 94H84.2597C84.2597 94 80.5277 95.2 79.9917 96.128Z" fill="white"/>
<path d="M84.2599 93.9999C84.2599 93.9999 80.5279 95.1999 79.9919 96.1319C79.4559 97.0639 79.8599 103.6 79.8599 104.4C79.8599 105.2 80.3279 103.932 80.7279 103C81.1279 102.068 82.5279 100.664 82.9919 100.8C83.4559 100.936 83.7279 101.464 83.7279 102.332C83.7279 103.2 84.7919 104.4 85.7279 105.064C86.6639 105.728 87.5279 106.4 87.5279 106.4C87.5279 106.4 89.4599 103.6 89.9279 102.864C90.3959 102.128 90.3279 100.6 90.3919 100.064C90.4559 99.5279 91.6599 101.532 91.9279 101C92.1959 100.468 91.3279 99.9999 90.3919 98.5319C89.4559 97.0639 89.7279 95.5319 88.3279 94.4639C86.9279 93.3959 85.3279 93.7279 84.2599 93.9999Z" stroke="#263238" stroke-width="0.4" stroke-linecap="round" stroke-linejoin="round"/>
<path d="M75.4281 121.028C75.4281 121.028 73.1281 117.728 70.3281 117.428C67.5281 117.128 64.1281 119.428 64.0281 120.228C63.9281 121.028 63.2281 125.328 63.7281 125.928C64.2281 126.528 66.1281 127.028 69.8281 125.828C73.5281 124.628 75.0281 123.128 75.4281 121.028Z" fill="white"/>
<path d="M66.0721 125.824C66.0721 125.824 65.2721 123.536 65.6721 122.74C66.0721 121.944 67.6721 120.74 68.6601 119.54C69.6481 118.34 66.3281 120.216 66.1681 119.54C66.0441 118.996 67.9241 117.908 68.6641 117.504C66.3361 117.952 64.1081 119.572 64.0281 120.216C63.9281 121.016 63.2281 125.316 63.7281 125.916C63.9841 126.224 64.6201 126.508 65.6801 126.544C65.9201 126.132 66.0721 125.824 66.0721 125.824Z" fill="#465EFD"/>
<path opacity="0.5" d="M66.0721 125.824C66.0721 125.824 65.2721 123.536 65.6721 122.74C66.0721 121.944 67.6721 120.74 68.6601 119.54C69.6481 118.34 66.3281 120.216 66.1681 119.54C66.0441 118.996 67.9241 117.908 68.6641 117.504C66.3361 117.952 64.1081 119.572 64.0281 120.216C63.9281 121.016 63.2281 125.316 63.7281 125.916C63.9841 126.224 64.6201 126.508 65.6801 126.544C65.9201 126.132 66.0721 125.824 66.0721 125.824Z" fill="white"/>
<path d="M75.4281 121.028C75.4281 121.028 73.1281 117.728 70.3281 117.428C67.5281 117.128 64.1281 119.428 64.0281 120.228C63.9281 121.028 63.2281 125.328 63.7281 125.928C64.2281 126.528 66.1281 127.028 69.8281 125.828C73.5281 124.628 75.0281 123.128 75.4281 121.028Z" stroke="#263238" stroke-width="0.4" stroke-linecap="round" stroke-linejoin="round"/>
<path d="M67.6275 121.928C67.6275 121.928 63.8755 123.416 63.7275 126.328C63.6435 127.928 66.3275 128.628 69.1275 128.628C71.9275 128.628 75.9275 125.128 78.5275 123.628C81.1275 122.128 87.1275 118.628 87.8275 118.328C88.5275 118.028 90.9275 118.828 91.9275 119.128C92.8805 119.332 93.8529 119.433 94.8275 119.428C94.8275 119.428 96.2275 121.628 96.9275 121.628C97.6275 121.628 95.4275 118.328 95.1275 117.628C94.8275 116.928 89.9275 115.328 89.3275 115.328C88.7275 115.328 74.7275 118.828 72.6275 119.628C70.5275 120.428 67.6275 121.928 67.6275 121.928Z" fill="white"/>
<path d="M75.4715 121.512C81.1875 118.652 89.3275 115.328 89.3275 115.328C88.7275 115.328 74.7275 118.828 72.6275 119.628C70.5275 120.428 67.6275 121.928 67.6275 121.928C67.6275 121.928 63.8755 123.416 63.7275 126.328C63.6435 127.928 66.3275 128.628 69.1275 128.628C71.9275 128.628 75.9275 125.128 78.5275 123.628L80.1035 122.716C76.2835 123.2 71.1755 123.656 75.4715 121.512Z" fill="#465EFD"/>
<path opacity="0.5" d="M75.4715 121.512C81.1875 118.652 89.3275 115.328 89.3275 115.328C88.7275 115.328 74.7275 118.828 72.6275 119.628C70.5275 120.428 67.6275 121.928 67.6275 121.928C67.6275 121.928 63.8755 123.416 63.7275 126.328C63.6435 127.928 66.3275 128.628 69.1275 128.628C71.9275 128.628 75.9275 125.128 78.5275 123.628L80.1035 122.716C76.2835 123.2 71.1755 123.656 75.4715 121.512Z" fill="white"/>
<path d="M67.6275 121.928C67.6275 121.928 63.8755 123.416 63.7275 126.328C63.6435 127.928 66.3275 128.628 69.1275 128.628C71.9275 128.628 75.9275 125.128 78.5275 123.628C81.1275 122.128 87.1275 118.628 87.8275 118.328C88.5275 118.028 90.9275 118.828 91.9275 119.128C92.8805 119.332 93.8529 119.433 94.8275 119.428C94.8275 119.428 96.2275 121.628 96.9275 121.628C97.6275 121.628 95.4275 118.328 95.1275 117.628C94.8275 116.928 89.9275 115.328 89.3275 115.328C88.7275 115.328 74.7275 118.828 72.6275 119.628C70.5275 120.428 67.6275 121.928 67.6275 121.928Z" stroke="#263238" stroke-width="0.4" stroke-linecap="round" stroke-linejoin="round"/>
<path d="M96.8761 99.6879L93.8281 116.828L115.828 116.928L119.1 100.672C119.127 100.529 119.123 100.381 119.088 100.239C119.053 100.098 118.987 99.9652 118.896 99.8512C118.805 99.7372 118.69 99.6443 118.56 99.5788C118.429 99.5133 118.286 99.4769 118.14 99.4719L97.9001 98.8639C97.6591 98.8561 97.4232 98.9349 97.2354 99.0861C97.0475 99.2373 96.92 99.4508 96.8761 99.6879Z" fill="white" stroke="#263238" stroke-width="0.4" stroke-linecap="round" stroke-linejoin="round"/>
<path d="M93.8282 116.828L83.1162 124.404L107.616 123.704L115.828 116.928L93.8282 116.828Z" fill="white"/>
<path d="M93.8282 116.828L83.1162 124.404L107.616 123.704L115.828 116.928L93.8282 116.828Z" fill="#465EFD"/>
<path opacity="0.5" d="M93.8282 116.828L83.1162 124.404L107.616 123.704L115.828 116.928L93.8282 116.828Z" fill="white"/>
<path d="M93.8282 116.828L83.1162 124.404L107.616 123.704L115.828 116.928L93.8282 116.828Z" stroke="#263238" stroke-width="0.4" stroke-linecap="round" stroke-linejoin="round"/>
<path d="M101.928 124.328C101.928 124.328 110.728 116.628 119.428 114.028C128.128 111.428 129.928 111.828 129.728 115.728C129.528 119.628 125.328 140.028 122.528 145.228C119.728 150.428 116.228 159.928 116.328 161.728C116.428 163.528 119.828 168.828 122.828 170.728C125.828 172.628 125.528 174.928 123.628 175.328C121.728 175.728 119.528 176.428 113.028 172.228C106.528 168.028 103.828 162.028 104.228 160.528C104.628 159.028 108.828 157.028 110.528 154.028C112.228 151.028 115.028 139.828 115.228 134.728C115.39 131.508 116.065 128.335 117.228 125.328C117.228 125.328 106.228 127.328 103.028 129.328L101.928 124.328Z" fill="white"/>
<path d="M101.928 124.328C101.928 124.328 110.728 116.628 119.428 114.028C128.128 111.428 129.928 111.828 129.728 115.728C129.528 119.628 125.328 140.028 122.528 145.228C119.728 150.428 116.228 159.928 116.328 161.728C116.428 163.528 119.828 168.828 122.828 170.728C125.828 172.628 125.528 174.928 123.628 175.328C121.728 175.728 119.528 176.428 113.028 172.228C106.528 168.028 103.828 162.028 104.228 160.528C104.628 159.028 108.828 157.028 110.528 154.028C112.228 151.028 115.028 139.828 115.228 134.728C115.39 131.508 116.065 128.335 117.228 125.328C117.228 125.328 106.228 127.328 103.028 129.328L101.928 124.328Z" fill="#465EFD"/>
<path opacity="0.5" d="M101.928 124.328C101.928 124.328 110.728 116.628 119.428 114.028C128.128 111.428 129.928 111.828 129.728 115.728C129.528 119.628 125.328 140.028 122.528 145.228C119.728 150.428 116.228 159.928 116.328 161.728C116.428 163.528 119.828 168.828 122.828 170.728C125.828 172.628 125.528 174.928 123.628 175.328C121.728 175.728 119.528 176.428 113.028 172.228C106.528 168.028 103.828 162.028 104.228 160.528C104.628 159.028 108.828 157.028 110.528 154.028C112.228 151.028 115.028 139.828 115.228 134.728C115.39 131.508 116.065 128.335 117.228 125.328C117.228 125.328 106.228 127.328 103.028 129.328L101.928 124.328Z" fill="white"/>
<path d="M101.928 124.328C101.928 124.328 110.728 116.628 119.428 114.028C128.128 111.428 129.928 111.828 129.728 115.728C129.528 119.628 125.328 140.028 122.528 145.228C119.728 150.428 116.228 159.928 116.328 161.728C116.428 163.528 119.828 168.828 122.828 170.728C125.828 172.628 125.528 174.928 123.628 175.328C121.728 175.728 119.528 176.428 113.028 172.228C106.528 168.028 103.828 162.028 104.228 160.528C104.628 159.028 108.828 157.028 110.528 154.028C112.228 151.028 115.028 139.828 115.228 134.728C115.39 131.508 116.065 128.335 117.228 125.328C117.228 125.328 106.228 127.328 103.028 129.328L101.928 124.328Z" stroke="#263238" stroke-width="0.4" stroke-linecap="round" stroke-linejoin="round"/>
<path d="M110.528 154.028C110.4 154.252 110.256 154.468 110.104 154.684C112.172 154.879 114.133 155.696 115.728 157.028C116.207 157.444 116.664 157.886 117.096 158.352C118.548 153.837 120.364 149.448 122.528 145.228C125.328 140.028 129.528 119.628 129.728 115.728C129.928 111.828 128.128 111.428 119.428 114.028C110.728 116.628 101.928 124.328 101.928 124.328L103.028 129.328C106.228 127.328 117.228 125.328 117.228 125.328C116.065 128.335 115.39 131.508 115.228 134.728C115.028 139.828 112.228 151.028 110.528 154.028Z" fill="white" stroke="#263238" stroke-width="0.4" stroke-linecap="round" stroke-linejoin="round"/>
<path d="M110.528 154.028C110.4 154.252 110.256 154.468 110.104 154.684C112.172 154.879 114.133 155.696 115.728 157.028C116.207 157.444 116.664 157.886 117.096 158.352C119.012 155.776 121.168 147.652 123.6 144.308C129.884 135.672 129.528 119.628 129.728 115.728C129.928 111.828 128.128 111.428 119.428 114.028C110.728 116.628 101.928 124.328 101.928 124.328L103.028 129.328C106.228 127.328 117.228 125.328 117.228 125.328C116.065 128.335 115.39 131.508 115.228 134.728C115.028 139.828 112.228 151.028 110.528 154.028Z" fill="#263238"/>
<path opacity="0.53" d="M110.528 154.028C110.4 154.252 110.256 154.468 110.104 154.684C112.172 154.879 114.133 155.696 115.728 157.028C116.207 157.444 116.664 157.886 117.096 158.352C119.012 155.776 121.168 147.652 123.6 144.308C129.884 135.672 129.528 119.628 129.728 115.728C129.928 111.828 128.128 111.428 119.428 114.028C110.728 116.628 101.928 124.328 101.928 124.328L103.028 129.328C106.228 127.328 117.228 125.328 117.228 125.328C116.065 128.335 115.39 131.508 115.228 134.728C115.028 139.828 112.228 151.028 110.528 154.028Z" fill="white"/>
<path opacity="0.14" d="M125.5 115.2C125.344 113.78 109.876 120.328 103.352 123.152C102.448 123.872 101.928 124.328 101.928 124.328L103.028 129.328C106.228 127.328 117.228 125.328 117.228 125.328C116.065 128.335 115.39 131.508 115.228 134.728C115.028 139.828 112.228 151.028 110.528 154.028C110.4 154.252 110.256 154.468 110.104 154.684C111.205 154.802 112.283 155.081 113.304 155.512C115.7 150.4 118.28 144.452 119.5 139.8C121.7 131.4 125.7 117 125.5 115.2Z" fill="#2C2D2E"/>
<path d="M117.228 125.328C117.228 125.328 120.228 119.228 122.828 116.728" stroke="#263238" stroke-width="0.4" stroke-linecap="round" stroke-linejoin="round"/>
<path d="M110.528 154.028C110.4 154.252 110.256 154.468 110.104 154.684C112.172 154.879 114.133 155.696 115.728 157.028C116.207 157.444 116.664 157.886 117.096 158.352C119.012 155.776 121.168 147.652 123.6 144.308C129.884 135.672 129.528 119.628 129.728 115.728C129.928 111.828 128.128 111.428 119.428 114.028C110.728 116.628 101.928 124.328 101.928 124.328L103.028 129.328C106.228 127.328 117.228 125.328 117.228 125.328C116.065 128.335 115.39 131.508 115.228 134.728C115.028 139.828 112.228 151.028 110.528 154.028Z" stroke="#263238" stroke-width="0.4" stroke-linecap="round" stroke-linejoin="round"/>
<path d="M88.7442 132.4C91.9654 132.253 95.1499 131.654 98.2042 130.62C102.728 128.972 94.5002 125.956 91.3482 127.604C90.4675 128.031 89.7427 128.723 89.2756 129.583C88.8086 130.444 88.6227 131.429 88.7442 132.4Z" fill="#263238" stroke="#263238" stroke-width="0.4" stroke-linecap="round" stroke-linejoin="round"/>
<path d="M75.7282 125.928C75.7282 125.928 72.5282 127.728 71.4282 129.728C70.3282 131.728 75.0602 135.06 80.0602 134.86C85.0602 134.66 94.2282 129.228 94.2282 129.228C94.2282 129.228 94.3282 138.028 96.0282 141.228C97.7282 144.428 105.528 152.228 108.628 154.228C111.728 156.228 122.128 163.728 123.728 164.928C125.328 166.128 128.328 168.328 129.028 168.428C129.728 168.528 137.028 159.628 138.728 156.628C140.428 153.628 141.928 147.328 141.328 145.928C140.728 144.528 139.528 145.728 138.328 146.728C137.128 147.728 126.128 155.028 125.128 155.528C124.582 155.808 124.013 156.042 123.428 156.228C123.428 156.228 114.428 147.628 109.628 141.028C104.828 134.428 104.428 125.928 102.628 122.728C100.828 119.528 98.2282 118.128 94.3282 118.528C90.4282 118.928 82.3282 121.028 75.7282 125.928Z" fill="white"/>
<path d="M118.04 160.8C120.712 162.712 123.036 164.4 123.728 164.92C125.328 166.12 128.328 168.32 129.028 168.42C129.276 168.456 130.356 167.356 131.72 165.792L120.268 158.424L118.04 160.8Z" fill="#465EFD"/>
<path opacity="0.5" d="M118.04 160.8C120.712 162.712 123.036 164.4 123.728 164.92C125.328 166.12 128.328 168.32 129.028 168.42C129.276 168.456 130.356 167.356 131.72 165.792L120.268 158.424L118.04 160.8Z" fill="white"/>
<path d="M75.7282 125.928C75.7282 125.928 72.5282 127.728 71.4282 129.728C70.3282 131.728 75.0602 135.06 80.0602 134.86C85.0602 134.66 94.2282 129.228 94.2282 129.228C94.2282 129.228 94.3282 138.028 96.0282 141.228C97.7282 144.428 105.528 152.228 108.628 154.228C111.728 156.228 122.128 163.728 123.728 164.928C125.328 166.128 128.328 168.328 129.028 168.428C129.728 168.528 137.028 159.628 138.728 156.628C140.428 153.628 141.928 147.328 141.328 145.928C140.728 144.528 139.528 145.728 138.328 146.728C137.128 147.728 126.128 155.028 125.128 155.528C124.582 155.808 124.013 156.042 123.428 156.228C123.428 156.228 114.428 147.628 109.628 141.028C104.828 134.428 104.428 125.928 102.628 122.728C100.828 119.528 98.2282 118.128 94.3282 118.528C90.4282 118.928 82.3282 121.028 75.7282 125.928Z" stroke="#263238" stroke-width="0.4" stroke-linecap="round" stroke-linejoin="round"/>
<path d="M122.808 155.628C120.692 153.564 112.76 142.92 109.628 136.8C105.04 127.832 104.544 124.776 102.744 121.576C100.944 118.376 98.2277 118.128 94.3437 118.528C90.4597 118.928 83.4637 119.652 74.9037 124.508C74.9037 124.508 71.3037 126.46 70.2077 128.46C69.1117 130.46 73.1157 135.496 80.0757 134.86C85.0597 134.404 94.2437 129.228 94.2437 129.228C94.2437 129.228 94.3437 138.028 96.0437 141.228C97.7437 144.428 105.544 152.228 108.644 154.228C110.608 155.496 115.508 158.976 119.24 161.656C120.16 158.308 121.812 156.476 122.808 155.628Z" fill="#263238"/>
<path opacity="0.53" d="M122.808 155.628C120.692 153.564 112.76 142.92 109.628 136.8C105.04 127.832 104.544 124.776 102.744 121.576C100.944 118.376 98.2277 118.128 94.3437 118.528C90.4597 118.928 83.4637 119.652 74.9037 124.508C74.9037 124.508 71.3037 126.46 70.2077 128.46C69.1117 130.46 73.1157 135.496 80.0757 134.86C85.0597 134.404 94.2437 129.228 94.2437 129.228C94.2437 129.228 94.3437 138.028 96.0437 141.228C97.7437 144.428 105.544 152.228 108.644 154.228C110.608 155.496 115.508 158.976 119.24 161.656C120.16 158.308 121.812 156.476 122.808 155.628Z" fill="white"/>
<path opacity="0.14" d="M102.7 141.4C99.7 133.8 101.5 118.6 93.1 120.6C86.98 122.056 75.76 127.232 70.124 129.932C70.792 132.228 74.472 135.372 80.06 134.86C85.044 134.404 94.228 129.228 94.228 129.228C94.228 129.228 94.328 138.028 96.028 141.228C97.728 144.428 105.528 152.228 108.628 154.228C110.592 155.496 115.492 158.976 119.224 161.656C119.545 160.485 120.014 159.36 120.62 158.308C113.172 152.8 104.376 145.644 102.7 141.4Z" fill="#2C2D2E"/>
<path d="M94.2277 129.228L93.9277 124.028" stroke="#263238" stroke-width="0.4" stroke-linecap="round" stroke-linejoin="round"/>
<path d="M122.808 155.628C120.692 153.564 112.76 142.92 109.628 136.8C105.04 127.832 104.544 124.776 102.744 121.576C100.944 118.376 98.2277 118.128 94.3437 118.528C90.4597 118.928 83.4637 119.652 74.9037 124.508C74.9037 124.508 71.3037 126.46 70.2077 128.46C69.1117 130.46 73.1157 135.496 80.0757 134.86C85.0597 134.404 94.2437 129.228 94.2437 129.228C94.2437 129.228 94.3437 138.028 96.0437 141.228C97.7437 144.428 105.544 152.228 108.644 154.228C110.608 155.496 115.508 158.976 119.24 161.656C120.16 158.308 121.812 156.476 122.808 155.628Z" stroke="#263238" stroke-width="0.4" stroke-linecap="round" stroke-linejoin="round"/>
<path d="M123.728 164.928C125.328 166.128 128.328 168.328 129.028 168.428C129.728 168.528 137.028 159.628 138.728 156.628C140.428 153.628 141.928 147.328 141.328 145.928C140.728 144.528 139.528 145.728 138.328 146.728C137.128 147.728 126.128 155.028 125.128 155.528C124.864 155.66 124.624 155.768 124.412 155.86C124.124 156.408 123.772 157.256 124.012 157.828C124.412 158.728 126.112 159.928 126.112 159.928L123.084 164.464L123.728 164.928Z" fill="#263238" stroke="#263238" stroke-width="0.4" stroke-linecap="round" stroke-linejoin="round"/>
<path d="M138.728 156.628C140.428 153.628 141.928 147.328 141.328 145.928C140.98 145.128 140.432 145.18 139.796 145.572C140.216 147.44 139.796 151.044 137.728 154.928C135.884 158.392 130.188 164.528 127.328 167.496C127.849 167.888 128.425 168.202 129.036 168.428C129.728 168.528 137.028 159.628 138.728 156.628Z" fill="white"/>
<path d="M129.128 168.4L129.216 168.356L129.24 168.336C129.288 168.308 129.334 168.276 129.376 168.24L129.424 168.2L129.54 168.104L129.604 168.044L129.76 167.9L129.856 167.808L129.988 167.68L130.1 167.568L130.212 167.456L130.496 167.156L130.544 167.108L130.72 166.916L130.792 166.84C131 166.612 131.224 166.364 131.456 166.1V166.08L131.704 165.8L129.956 164.676C128.964 165.756 128.04 166.732 127.304 167.496L127.572 167.672L127.612 167.696L127.86 167.852L128.26 168.08L128.372 168.144L128.484 168.204L128.612 168.268L128.696 168.308C128.736 168.328 128.777 168.345 128.82 168.36L128.88 168.384C128.926 168.403 128.974 168.416 129.024 168.424C129.049 168.43 129.075 168.43 129.1 168.424L129.128 168.4Z" fill="#465EFD"/>
<path opacity="0.5" d="M129.128 168.4L129.216 168.356L129.24 168.336C129.288 168.308 129.334 168.276 129.376 168.24L129.424 168.2L129.54 168.104L129.604 168.044L129.76 167.9L129.856 167.808L129.988 167.68L130.1 167.568L130.212 167.456L130.496 167.156L130.544 167.108L130.72 166.916L130.792 166.84C131 166.612 131.224 166.364 131.456 166.1V166.08L131.704 165.8L129.956 164.676C128.964 165.756 128.04 166.732 127.304 167.496L127.572 167.672L127.612 167.696L127.86 167.852L128.26 168.08L128.372 168.144L128.484 168.204L128.612 168.268L128.696 168.308C128.736 168.328 128.777 168.345 128.82 168.36L128.88 168.384C128.926 168.403 128.974 168.416 129.024 168.424C129.049 168.43 129.075 168.43 129.1 168.424L129.128 168.4Z" fill="white"/>
<path d="M138.728 156.628C140.428 153.628 141.928 147.328 141.328 145.928C140.98 145.128 140.432 145.18 139.796 145.572C140.216 147.44 139.796 151.044 137.728 154.928C135.884 158.392 130.188 164.528 127.328 167.496C127.849 167.888 128.425 168.202 129.036 168.428C129.728 168.528 137.028 159.628 138.728 156.628Z" stroke="#263238" stroke-width="0.4" stroke-linecap="round" stroke-linejoin="round"/>
<path d="M122.828 170.728C119.828 168.828 116.428 163.528 116.328 161.728C116.324 161.531 116.34 161.334 116.376 161.14C115.779 161.159 115.203 161.364 114.728 161.728C113.497 160.611 112.194 159.575 110.828 158.628C109.728 157.994 108.496 157.626 107.228 157.552C105.776 158.752 104.428 159.712 104.216 160.528C103.816 162.028 106.516 168.028 113.016 172.228C119.516 176.428 121.716 175.728 123.616 175.328C125.516 174.928 125.828 172.628 122.828 170.728Z" fill="#263238" stroke="#263238" stroke-width="0.4" stroke-linecap="round" stroke-linejoin="round"/>
<path d="M122.828 170.728C121.834 170.054 120.937 169.247 120.164 168.328C118.1 167.448 115.344 166.328 112.928 164.824C110.328 163.224 110.928 162.224 109.428 160.724C108.276 159.572 106.012 159.424 105.028 159.416C104.673 159.713 104.398 160.094 104.228 160.524C103.828 162.024 106.528 168.024 113.028 172.224C119.528 176.424 121.728 175.724 123.628 175.324C125.528 174.924 125.828 172.628 122.828 170.728Z" fill="white"/>
<path d="M122.828 170.728C121.834 170.054 120.937 169.247 120.164 168.328C118.1 167.448 115.344 166.328 112.928 164.824C110.328 163.224 110.928 162.224 109.428 160.724C108.276 159.572 106.012 159.424 105.028 159.416C104.673 159.713 104.398 160.094 104.228 160.524C103.828 162.024 106.528 168.024 113.028 172.224C119.528 176.424 121.728 175.724 123.628 175.324C125.528 174.924 125.828 172.628 122.828 170.728Z" fill="#465EFD"/>
<path opacity="0.5" d="M122.828 170.728C121.834 170.054 120.937 169.247 120.164 168.328C118.1 167.448 115.344 166.328 112.928 164.824C110.328 163.224 110.928 162.224 109.428 160.724C108.276 159.572 106.012 159.424 105.028 159.416C104.673 159.713 104.398 160.094 104.228 160.524C103.828 162.024 106.528 168.024 113.028 172.224C119.528 176.424 121.728 175.724 123.628 175.324C125.528 174.924 125.828 172.628 122.828 170.728Z" fill="white"/>
<path d="M122.828 170.728C121.834 170.054 120.937 169.247 120.164 168.328C118.1 167.448 115.344 166.328 112.928 164.824C110.328 163.224 110.928 162.224 109.428 160.724C108.276 159.572 106.012 159.424 105.028 159.416C104.673 159.713 104.398 160.094 104.228 160.524C103.828 162.024 106.528 168.024 113.028 172.224C119.528 176.424 121.728 175.724 123.628 175.324C125.528 174.924 125.828 172.628 122.828 170.728Z" stroke="#263238" stroke-width="0.4" stroke-linecap="round" stroke-linejoin="round"/>
<path d="M123.328 171.428C120.728 169.928 115.428 168.928 112.028 166.628C108.628 164.328 109.528 162.328 107.028 160.728C106.628 160.429 106.15 160.255 105.652 160.227C105.154 160.198 104.659 160.317 104.228 160.568C103.88 162.128 106.588 168.06 113.028 172.228C119.468 176.396 121.728 175.728 123.628 175.328C124.892 175.06 125.44 173.956 124.788 172.688C124.38 172.185 123.885 171.758 123.328 171.428Z" fill="#263238"/>
<path opacity="0.53" d="M123.328 171.428C120.728 169.928 115.428 168.928 112.028 166.628C108.628 164.328 109.528 162.328 107.028 160.728C106.628 160.429 106.15 160.255 105.652 160.227C105.154 160.198 104.659 160.317 104.228 160.568C103.88 162.128 106.588 168.06 113.028 172.228C119.468 176.396 121.728 175.728 123.628 175.328C124.892 175.06 125.44 173.956 124.788 172.688C124.38 172.185 123.885 171.758 123.328 171.428Z" fill="white"/>
<path d="M123.328 171.428C120.728 169.928 115.428 168.928 112.028 166.628C108.628 164.328 109.528 162.328 107.028 160.728C106.628 160.429 106.15 160.255 105.652 160.227C105.154 160.198 104.659 160.317 104.228 160.568C103.88 162.128 106.588 168.06 113.028 172.228C119.468 176.396 121.728 175.728 123.628 175.328C124.892 175.06 125.44 173.956 124.788 172.688C124.38 172.185 123.885 171.758 123.328 171.428V171.428Z" stroke="#263238" stroke-width="0.4" stroke-linecap="round" stroke-linejoin="round"/>
<path d="M73.496 152.3C73.496 152.3 75.416 149.968 75.688 151.752C75.96 153.536 75.552 156.824 74.18 158.056C72.808 159.288 72.124 157.372 72.124 157.372L72.948 156.276C72.948 156.276 73.632 157.648 74.18 155.452C74.728 153.256 73.084 153.532 73.084 153.532L73.496 152.3Z" fill="white" stroke="#263238" stroke-width="0.4" stroke-linecap="round" stroke-linejoin="round"/>
<path d="M72.0283 161.076C70.8923 161.916 67.1883 161.916 66.0563 161.076C63.6562 159.296 64.0563 150.696 64.0563 150.696H74.0003C74.0003 150.696 74.4323 159.296 72.0283 161.076Z" fill="white" stroke="#263238" stroke-width="0.4" stroke-linecap="round" stroke-linejoin="round"/>
<path d="M65.1445 149.008C65.1445 147.928 66.1485 147.928 66.1485 146.844C66.1485 145.76 65.1445 145.76 65.1445 144.68C65.1445 143.6 66.1485 143.596 66.1485 142.512C66.1485 141.428 65.1445 141.428 65.1445 140.344C65.1445 139.26 66.1485 139.26 66.1485 138.176" stroke="#263238" stroke-width="0.4" stroke-linecap="round" stroke-linejoin="round"/>
<path d="M68.5801 149.008C68.5801 148.208 69.5841 148.208 69.5841 147.364C69.5841 146.52 68.5801 146.544 68.5801 145.72C68.5801 144.896 69.5841 144.9 69.5841 144.076C69.5841 143.252 68.5801 143.252 68.5801 142.428C68.5801 141.604 69.5841 141.608 69.5841 140.784" stroke="#263238" stroke-width="0.4" stroke-linecap="round" stroke-linejoin="round"/>
<path d="M72.3604 149.008C72.3604 147.928 73.3604 147.928 73.3604 146.844C73.3604 145.76 72.3604 145.76 72.3604 144.68C72.3604 143.6 73.3604 143.596 73.3604 142.512C73.3604 141.428 72.3604 141.428 72.3604 140.344C72.3604 139.26 73.3604 139.26 73.3604 138.176" stroke="#263238" stroke-width="0.4" stroke-linecap="round" stroke-linejoin="round"/>
<path d="M74.0085 150.696C74.0085 150.948 71.7845 151.148 69.0365 151.148C66.2885 151.148 64.0645 150.948 64.0645 150.696C64.0645 150.444 66.2885 150.244 69.0365 150.244C71.7845 150.244 74.0085 150.444 74.0085 150.696Z" fill="white" stroke="#263238" stroke-width="0.4" stroke-linecap="round" stroke-linejoin="round"/>
<path d="M83.1875 88.7999C83.1875 88.7999 83.6555 93.8519 83.8515 95.4479C84.0475 97.0439 84.4915 101.628 84.9515 103.144C85.4115 104.66 87.9195 107.296 88.1515 106.688C88.3835 106.08 89.6315 101.956 89.1355 99.4879C88.6395 97.0199 88.4875 94.9119 88.7955 94.2879C89.1035 93.6639 90.2115 92.9639 90.2115 92.9639C88.9209 92.3029 87.6671 91.5725 86.4555 90.7759C84.6875 89.5999 83.4355 88.2679 83.1875 88.7999Z" fill="white"/>
<path d="M89.6083 93.2359L89.2083 92.4599C88.4723 92.0599 87.4483 91.4679 86.4763 90.8159C84.6963 89.6159 83.4443 88.2679 83.1963 88.8159C83.1963 88.8159 83.6643 93.8679 83.8603 95.4639C84.0563 97.0599 84.5003 101.644 84.9603 103.16C85.1172 103.603 85.3339 104.023 85.6043 104.408C85.1203 101.392 85.6443 95.9439 85.6443 95.9439L89.6083 93.2359Z" fill="#465EFD"/>
<path opacity="0.5" d="M89.6083 93.2359L89.2083 92.4599C88.4723 92.0599 87.4483 91.4679 86.4763 90.8159C84.6963 89.6159 83.4443 88.2679 83.1963 88.8159C83.1963 88.8159 83.6643 93.8679 83.8603 95.4639C84.0563 97.0599 84.5003 101.644 84.9603 103.16C85.1172 103.603 85.3339 104.023 85.6043 104.408C85.1203 101.392 85.6443 95.9439 85.6443 95.9439L89.6083 93.2359Z" fill="white"/>
<path d="M83.1875 88.7999C83.1875 88.7999 83.6555 93.8519 83.8515 95.4479C84.0475 97.0439 84.4915 101.628 84.9515 103.144C85.4115 104.66 87.9195 107.296 88.1515 106.688C88.3835 106.08 89.6315 101.956 89.1355 99.4879C88.6395 97.0199 88.4875 94.9119 88.7955 94.2879C89.1035 93.6639 90.2115 92.9639 90.2115 92.9639C88.9209 92.3029 87.6671 91.5725 86.4555 90.7759C84.6875 89.5999 83.4355 88.2679 83.1875 88.7999Z" stroke="#263238" stroke-width="0.4" stroke-linecap="round" stroke-linejoin="round"/>
<path d="M83.004 89.532C83.004 89.532 85.884 91.932 88.092 92.812C90.3 93.6919 93.692 93.636 94.176 92.488C94.66 91.34 93.336 82.248 92.196 79.856C91.056 77.4639 89.84 77.424 87.828 77.24C85.816 77.056 81.792 78.696 81.084 80.64C80.376 82.584 81.184 85.336 81.768 86.968C82.0768 87.8686 82.4917 88.7293 83.004 89.532Z" fill="white"/>
<path d="M88.1763 89.4239C87.1563 86.3999 86.9003 81.6399 86.9003 80.3719C86.9003 79.3919 89.4523 78.3159 90.6163 77.8759C89.8523 77.4039 88.9643 77.3439 87.8163 77.2399C85.8163 77.0599 81.7803 78.6959 81.0723 80.6399C80.3643 82.5839 81.1723 85.3359 81.7563 86.9679C82.0651 87.8686 82.48 88.7293 82.9923 89.5319C82.9923 89.5319 85.8723 91.9319 88.0803 92.8119C89.6105 93.391 91.2679 93.5498 92.8803 93.2719C91.3003 92.6759 88.8563 91.4439 88.1763 89.4239Z" fill="#465EFD"/>
<path opacity="0.5" d="M88.1763 89.4239C87.1563 86.3999 86.9003 81.6399 86.9003 80.3719C86.9003 79.3919 89.4523 78.3159 90.6163 77.8759C89.8523 77.4039 88.9643 77.3439 87.8163 77.2399C85.8163 77.0599 81.7803 78.6959 81.0723 80.6399C80.3643 82.5839 81.1723 85.3359 81.7563 86.9679C82.0651 87.8686 82.48 88.7293 82.9923 89.5319C82.9923 89.5319 85.8723 91.9319 88.0803 92.8119C89.6105 93.391 91.2679 93.5498 92.8803 93.2719C91.3003 92.6759 88.8563 91.4439 88.1763 89.4239Z" fill="white"/>
<path d="M83.004 89.532C83.004 89.532 85.884 91.932 88.092 92.812C90.3 93.692 93.692 93.636 94.176 92.488C94.66 91.34 93.336 82.248 92.196 79.856C91.056 77.4639 89.84 77.424 87.828 77.24C85.816 77.056 81.792 78.696 81.084 80.64C80.376 82.584 81.184 85.336 81.768 86.968C82.0768 87.8686 82.4917 88.7293 83.004 89.532V89.532Z" stroke="#263238" stroke-width="0.4" stroke-linecap="round" stroke-linejoin="round"/>
<path d="M92.4121 83.5998C92.4601 84.7518 91.7361 85.7158 90.8121 85.7518C89.8881 85.7878 89.0801 84.8878 89.0361 83.7518C88.9921 82.6158 89.7121 81.6358 90.6361 81.5958C91.5601 81.5558 92.3681 82.4358 92.4121 83.5998Z" stroke="#263238" stroke-width="0.4" stroke-linecap="round" stroke-linejoin="round"/>
<path d="M94.6762 83.1519C94.7242 84.3039 94.3522 85.2519 93.8482 85.2719C93.3442 85.2919 92.8962 84.3759 92.8522 83.2239C92.8082 82.0719 93.1802 81.1199 93.6842 81.0999C94.1882 81.0799 94.6322 81.9999 94.6762 83.1519Z" stroke="#263238" stroke-width="0.4" stroke-linecap="round" stroke-linejoin="round"/>
<path d="M92.5322 83.1759C92.5322 83.1759 95.8362 83.8039 95.5162 84.5999C95.1962 85.3959 92.9642 86.2559 92.9642 86.2559" fill="white"/>
<path d="M92.5322 83.1759C92.5322 83.1759 95.8362 83.8039 95.5162 84.5999C95.1962 85.3959 92.9642 86.2559 92.9642 86.2559" stroke="#263238" stroke-width="0.4" stroke-linecap="round" stroke-linejoin="round"/>
<path d="M92.3281 82.7999C92.3281 82.7999 92.3761 82.3999 92.8841 82.6519" stroke="#263238" stroke-width="0.4" stroke-linecap="round" stroke-linejoin="round"/>
<path d="M88.9318 83.912L82.9238 86.276" stroke="#263238" stroke-width="0.4" stroke-linecap="round" stroke-linejoin="round"/>
<path d="M89.0117 81.968C89.1382 81.682 89.3496 81.4419 89.6172 81.2802C89.8849 81.1185 90.1957 81.043 90.5077 81.064" stroke="#263238" stroke-width="0.8" stroke-linecap="round" stroke-linejoin="round"/>
<path d="M93.0119 81.0919L92.0879 81.4399" stroke="#263238" stroke-width="0.8" stroke-linecap="round" stroke-linejoin="round"/>
<path d="M90.1562 87.7999C90.1562 87.7999 91.3562 87.4879 92.0362 88.1999" stroke="#263238" stroke-width="0.4" stroke-linecap="round" stroke-linejoin="round"/>
<path d="M90.9283 83.8079C90.9843 84.2079 90.9283 84.5519 90.7643 84.5719C90.6003 84.5919 90.4563 84.2839 90.4003 83.8799C90.3443 83.4759 90.4203 83.1399 90.5683 83.1199C90.7163 83.0999 90.8763 83.4079 90.9283 83.8079Z" fill="#263238"/>
<path d="M83.484 86.2919C83.484 86.2919 83.084 87.0919 84.212 87.1319C85.34 87.1719 86.108 86.6239 85.56 85.9319C85.012 85.2399 84.2 84.5919 85.036 83.6879C85.872 82.7839 87.496 82.0239 86.584 81.0159C85.672 80.0079 82.316 80.9239 83.156 80.1079C83.996 79.2919 87.876 78.4399 89.62 78.5479C91.364 78.6559 94.62 77.3039 95.336 75.5359C96.052 73.7679 95.052 70.4999 92.708 70.6759C90.364 70.8519 88.616 72.9279 87.576 73.0759C86.536 73.2239 84.404 72.0679 82.616 73.0759C80.828 74.0839 80.768 76.9799 80.616 77.3359C80.464 77.6919 78.04 78.2199 77.612 80.6719C77.4513 81.6604 77.52 82.6727 77.8127 83.6305C78.1053 84.5883 78.6142 85.466 79.3 86.1959C80.304 87.2879 80.756 87.7039 80.756 87.7039L83.484 86.2919Z" fill="#263238" stroke="#263238" stroke-width="0.4" stroke-linecap="round" stroke-linejoin="round"/>
<path d="M78.3956 81.8599C78.3747 82.232 78.4637 82.602 78.6516 82.9239" stroke="white" stroke-width="0.3" stroke-linecap="round" stroke-linejoin="round"/>
<path d="M88.5921 75.5279C88.5921 75.5279 87.7201 73.6199 89.9441 73.6199C92.1681 73.6199 92.4881 76.4199 90.1841 77.4359C87.8801 78.4519 82.8681 78.7079 80.1641 79.9039C79.6334 80.1116 79.1612 80.4452 78.7881 80.8759" stroke="white" stroke-width="0.3" stroke-linecap="round" stroke-linejoin="round"/>
<path d="M84.5645 82.304C83.7645 82.592 82.7285 82.992 81.6765 83.48C79.4485 84.516 79.9245 85.548 79.9245 85.548" stroke="white" stroke-width="0.3" stroke-linecap="round" stroke-linejoin="round"/>
<path d="M86.0485 81.8119C86.0485 81.8119 85.8525 81.8679 85.5205 81.9759" stroke="white" stroke-width="0.3" stroke-linecap="round" stroke-linejoin="round"/>
<path d="M83.8644 87.1478C83.8644 87.1478 82.5724 85.2838 81.2124 86.0318C79.8524 86.7798 80.9084 89.4398 81.7284 90.3638C82.5484 91.2878 84.1284 89.5638 84.2924 89.1318" fill="white"/>
<path d="M83.8644 87.1478C83.8644 87.1478 82.5724 85.2838 81.2124 86.0318C79.8524 86.7798 80.9084 89.4398 81.7284 90.3638C82.5484 91.2878 84.1284 89.5638 84.2924 89.1318" fill="#465EFD"/>
<path opacity="0.5" d="M83.8644 87.1478C83.8644 87.1478 82.5724 85.2838 81.2124 86.0318C79.8524 86.7798 80.9084 89.4398 81.7284 90.3638C82.5484 91.2878 84.1284 89.5638 84.2924 89.1318" fill="white"/>
<path d="M83.8644 87.1478C83.8644 87.1478 82.5724 85.2838 81.2124 86.0318C79.8524 86.7798 80.9084 89.4398 81.7284 90.3638C82.5484 91.2878 84.1284 89.5638 84.2924 89.1318" stroke="#263238" stroke-width="0.4" stroke-linecap="round" stroke-linejoin="round"/>
<path d="M67.5481 85.4479H38.8761C37.745 85.4479 36.8281 86.3648 36.8281 87.4959V108.456C36.8281 109.587 37.745 110.504 38.8761 110.504H67.5481C68.6792 110.504 69.5961 109.587 69.5961 108.456V87.4959C69.5961 86.3648 68.6792 85.4479 67.5481 85.4479Z" fill="white" stroke="#263238" stroke-width="0.4" stroke-linecap="round" stroke-linejoin="round"/>
<path d="M68.9717 103.472L88.1717 108.472L68.9717 99.0719" fill="white"/>
<path d="M68.9717 103.472L88.1717 108.472L68.9717 99.0719" stroke="#263238" stroke-width="0.4" stroke-linecap="round" stroke-linejoin="round"/>
<path d="M47.1846 87.856H39.4766V108.096H47.1846V87.856Z" fill="#465EFD" stroke="#263238" stroke-width="0.4" stroke-linecap="round" stroke-linejoin="round"/>
<path d="M67.8956 87.856H66.9316V108.096H67.8956V87.856Z" fill="#465EFD" stroke="#263238" stroke-width="0.4" stroke-linecap="round" stroke-linejoin="round"/>
<path d="M67.8956 97.1079H66.9316V98.8359H67.8956V97.1079Z" fill="#263238" stroke="#263238" stroke-width="0.4" stroke-linecap="round" stroke-linejoin="round"/>
<path d="M49.5957 88.3359H64.7757" stroke="#263238" stroke-width="0.4" stroke-linecap="round" stroke-linejoin="round"/>
<path d="M49.5957 90.5039H64.7757" stroke="#263238" stroke-width="0.4" stroke-linecap="round" stroke-linejoin="round"/>
<path d="M49.5957 92.6759H64.7757" stroke="#263238" stroke-width="0.4" stroke-linecap="round" stroke-linejoin="round"/>
<path d="M49.5957 94.8439H64.7757" stroke="#263238" stroke-width="0.4" stroke-linecap="round" stroke-linejoin="round"/>
<path d="M49.5957 100.144H64.7757" stroke="#263238" stroke-width="0.4" stroke-linecap="round" stroke-linejoin="round"/>
<path d="M49.5957 102.072H64.7757" stroke="#263238" stroke-width="0.4" stroke-linecap="round" stroke-linejoin="round"/>
<path d="M49.5957 104H64.7757" stroke="#263238" stroke-width="0.4" stroke-linecap="round" stroke-linejoin="round"/>
<path d="M49.5957 108H64.7757" stroke="#263238" stroke-width="0.4" stroke-linecap="round" stroke-linejoin="round"/>
<path d="M39.4766 108.092L47.1886 87.856" stroke="#263238" stroke-width="0.4" stroke-linecap="round" stroke-linejoin="round"/>
<path d="M155.648 164.104C159.344 164.104 162.34 162.761 162.34 161.104C162.34 159.447 159.344 158.104 155.648 158.104C151.952 158.104 148.956 159.447 148.956 161.104C148.956 162.761 151.952 164.104 155.648 164.104Z" fill="#465EFD"/>
<path opacity="0.5" d="M155.648 164.104C159.344 164.104 162.34 162.761 162.34 161.104C162.34 159.447 159.344 158.104 155.648 158.104C151.952 158.104 148.956 159.447 148.956 161.104C148.956 162.761 151.952 164.104 155.648 164.104Z" fill="white"/>
<path d="M147.82 116.712C148.536 117.024 150.288 116.984 150.288 116.984C150.288 116.984 149.912 115.836 149.888 115.784C149.488 114.984 148.288 113.652 147.3 113.784C147.138 113.814 146.984 113.876 146.847 113.968C146.71 114.06 146.593 114.179 146.504 114.318C146.415 114.457 146.356 114.612 146.33 114.775C146.303 114.938 146.311 115.104 146.352 115.264C146.5 115.936 147.208 116.444 147.82 116.712Z" fill="#263238"/>
<path d="M170.764 110.748C169.772 110.644 168.592 112 168.228 112.816C168.196 112.888 167.828 114.044 167.852 114.044H167.872C167.684 114.256 167.472 114.488 167.276 114.744C166.876 115.22 166.452 115.76 166.02 116.384C165.546 117.049 165.112 117.74 164.72 118.456C164.276 119.256 163.904 120.094 163.608 120.96C163.606 120.971 163.606 120.982 163.608 120.992C163.608 120.7 163.608 119.88 163.608 119.816C163.492 118.936 162.752 117.292 161.768 117.112C161.605 117.09 161.439 117.102 161.28 117.146C161.121 117.191 160.974 117.268 160.846 117.372C160.718 117.477 160.614 117.606 160.538 117.753C160.463 117.899 160.419 118.06 160.408 118.224C160.352 118.924 160.86 119.628 161.356 120.072C161.916 120.572 163.468 121.056 163.592 121.092C163.315 121.981 163.096 122.887 162.936 123.804C162.84 124.34 162.764 124.88 162.688 125.424C162.688 125.168 162.688 124.944 162.688 124.912C162.572 124.028 161.832 122.388 160.852 122.208C160.689 122.185 160.523 122.196 160.364 122.241C160.205 122.285 160.057 122.361 159.929 122.465C159.801 122.569 159.696 122.698 159.62 122.845C159.544 122.991 159.499 123.152 159.488 123.316C159.432 124.02 159.94 124.72 160.436 125.164C160.932 125.608 162.256 126.056 162.608 126.168C162.584 126.376 162.556 126.568 162.528 126.792C162.408 127.792 162.296 128.792 162.152 129.772C162.1 130.116 162.04 130.452 161.98 130.788C161.98 130.564 161.98 130.388 161.98 130.348C161.864 129.464 161.124 127.824 160.14 127.64C159.977 127.618 159.811 127.63 159.652 127.674C159.493 127.719 159.346 127.796 159.218 127.9C159.09 128.005 158.986 128.134 158.91 128.281C158.835 128.427 158.791 128.588 158.78 128.752C158.724 129.456 159.232 130.156 159.728 130.6C160.224 131.044 161.42 131.448 161.836 131.58C161.764 131.924 161.688 132.268 161.604 132.6C161.54 132.824 161.492 133.044 161.416 133.264C161.34 133.484 161.276 133.704 161.204 133.92C161.056 134.32 160.904 134.76 160.748 135.156C160.64 135.436 160.532 135.7 160.428 135.956C160.48 135.612 160.572 134.94 160.572 134.884C160.562 134.1 160.352 133.332 159.96 132.652C159.966 132.566 159.966 132.479 159.96 132.392C159.936 132.229 159.879 132.073 159.793 131.933C159.706 131.793 159.591 131.672 159.456 131.578C159.32 131.484 159.167 131.419 159.005 131.387C158.844 131.355 158.677 131.357 158.516 131.392C157.552 131.648 156.94 133.34 156.892 134.228C156.892 134.284 156.924 134.856 156.952 135.216C156.904 135.008 156.86 134.816 156.808 134.588C156.704 134.16 156.592 133.736 156.472 133.284C156.404 133.064 156.34 132.844 156.272 132.624C156.204 132.404 156.116 132.176 156.04 131.948C155.848 131.428 155.64 130.908 155.396 130.388C155.772 130.3 157.092 129.964 157.624 129.556C158.156 129.148 158.712 128.488 158.704 127.784C158.708 127.619 158.677 127.456 158.614 127.303C158.55 127.151 158.455 127.014 158.335 126.901C158.215 126.788 158.073 126.701 157.917 126.647C157.762 126.592 157.596 126.571 157.432 126.584C156.436 126.692 155.576 128.272 155.396 129.144C155.396 129.2 155.328 129.84 155.3 130.192C155.16 129.88 155.02 129.572 154.868 129.26C154.424 128.368 153.948 127.48 153.476 126.588C153.328 126.316 153.188 126.044 153.048 125.768C153.18 125.74 154.76 125.368 155.352 124.916C155.88 124.516 156.44 123.848 156.436 123.144C156.436 122.98 156.403 122.818 156.338 122.667C156.273 122.516 156.178 122.38 156.058 122.268C155.939 122.155 155.797 122.068 155.643 122.013C155.488 121.957 155.324 121.934 155.16 121.944C154.168 122.052 153.308 123.632 153.128 124.504C153.128 124.568 153.032 125.492 153.02 125.728C152.708 125.124 152.404 124.528 152.124 123.916C151.747 123.101 151.422 122.262 151.152 121.404C151.212 121.404 152.864 121.004 153.472 120.548C154 120.148 154.56 119.48 154.556 118.776C154.556 118.612 154.523 118.45 154.458 118.299C154.393 118.148 154.298 118.012 154.178 117.9C154.059 117.787 153.917 117.7 153.763 117.645C153.608 117.589 153.444 117.566 153.28 117.576C152.288 117.684 151.428 119.264 151.248 120.136C151.248 120.208 151.144 121.2 151.14 121.38C151.14 121.328 151.104 121.28 151.088 121.228C150.841 120.36 150.672 119.471 150.584 118.572C150.528 118.08 150.504 117.6 150.488 117.136C150.804 117.1 152.236 116.908 152.832 116.548C153.428 116.188 154.032 115.608 154.104 114.904C154.124 114.741 154.109 114.575 154.061 114.417C154.014 114.259 153.934 114.113 153.828 113.987C153.721 113.861 153.59 113.759 153.442 113.686C153.294 113.613 153.133 113.572 152.968 113.564C151.968 113.564 150.94 115.04 150.664 115.884C150.664 115.932 150.552 116.416 150.484 116.772C150.484 116.56 150.484 116.344 150.484 116.144C150.484 115.392 150.532 114.7 150.58 114.088C150.612 113.74 150.644 113.428 150.68 113.132C150.968 112.936 152.12 112.12 152.476 111.532C152.832 110.944 153.108 110.144 152.848 109.492C152.793 109.336 152.706 109.193 152.592 109.072C152.478 108.952 152.339 108.857 152.186 108.794C152.032 108.731 151.868 108.701 151.702 108.706C151.536 108.712 151.373 108.752 151.224 108.824C150.336 109.28 150.104 111.064 150.248 111.944C150.248 112.02 150.596 113.184 150.612 113.176C150.576 113.456 150.536 113.76 150.5 114.088C150.44 114.7 150.376 115.392 150.36 116.152C150.332 116.967 150.351 117.783 150.416 118.596C150.488 119.508 150.641 120.412 150.872 121.296C150.87 121.307 150.87 121.318 150.872 121.328C150.716 121.084 150.252 120.408 150.212 120.36C149.628 119.684 148.108 118.728 147.188 119.116C147.04 119.187 146.907 119.289 146.799 119.413C146.692 119.538 146.611 119.683 146.562 119.84C146.512 119.998 146.496 120.163 146.514 120.327C146.531 120.491 146.583 120.649 146.664 120.792C147.004 121.412 147.816 121.716 148.476 121.812C149.216 121.92 150.78 121.468 150.904 121.432C151.163 122.325 151.479 123.201 151.852 124.052C152.068 124.552 152.3 125.048 152.54 125.54C152.396 125.332 152.268 125.14 152.248 125.14C151.664 124.468 150.14 123.508 149.224 123.896C149.075 123.967 148.942 124.069 148.834 124.193C148.726 124.318 148.645 124.464 148.595 124.622C148.546 124.78 148.53 124.946 148.548 125.11C148.566 125.274 148.618 125.433 148.7 125.576C149.04 126.192 149.852 126.5 150.508 126.596C151.164 126.692 152.508 126.332 152.872 126.232C152.964 126.42 153.056 126.608 153.152 126.796C153.604 127.7 154.06 128.596 154.48 129.488C154.628 129.804 154.76 130.12 154.88 130.436C154.756 130.248 154.648 130.096 154.628 130.072C154.044 129.4 152.52 128.44 151.604 128.828C151.455 128.899 151.322 129.001 151.214 129.125C151.106 129.25 151.025 129.396 150.975 129.554C150.926 129.712 150.91 129.878 150.928 130.042C150.946 130.206 150.998 130.365 151.08 130.508C151.42 131.124 152.232 131.428 152.888 131.524C153.544 131.62 154.768 131.296 155.188 131.18C155.316 131.508 155.448 131.836 155.556 132.16C155.628 132.38 155.712 132.588 155.768 132.816C155.824 133.044 155.892 133.26 155.956 133.48C156.056 133.908 156.164 134.348 156.256 134.764C156.32 135.056 156.376 135.332 156.432 135.612C156.288 135.296 155.992 134.688 155.964 134.64C155.488 133.884 154.128 132.704 153.164 132.952C153.004 132.997 152.855 133.075 152.728 133.181C152.6 133.287 152.496 133.42 152.423 133.569C152.35 133.718 152.31 133.881 152.304 134.047C152.299 134.213 152.329 134.379 152.392 134.532C152.632 135.192 153.388 135.616 154.024 135.812C154.728 136.024 156.28 135.812 156.472 135.812C156.564 136.276 156.652 136.728 156.724 137.156C156.988 138.636 157.148 139.88 157.248 140.756C157.248 140.912 157.28 141.048 157.296 141.18H154.292L155.256 160.02C155.292 160.71 155.591 161.36 156.092 161.835C156.593 162.311 157.257 162.576 157.948 162.576C158.638 162.576 159.302 162.311 159.803 161.835C160.303 161.359 160.601 160.71 160.636 160.02L161.604 141.18H158.804C158.824 141.136 158.844 141.096 158.868 141.052C159.268 140.252 159.784 139.1 160.36 137.696C160.54 137.252 160.728 136.772 160.912 136.28C161.1 136.32 162.636 136.632 163.352 136.468C164.004 136.324 164.788 135.956 165.08 135.316C165.151 135.167 165.191 135.005 165.196 134.839C165.202 134.674 165.173 134.509 165.112 134.356C165.05 134.202 164.958 134.063 164.84 133.947C164.723 133.83 164.582 133.74 164.428 133.68C163.48 133.364 162.028 134.44 161.508 135.156C161.476 135.196 161.192 135.696 161.016 136.012C161.088 135.808 161.164 135.612 161.24 135.404C161.392 135.004 161.528 134.58 161.68 134.132C161.744 133.916 161.812 133.696 161.876 133.472C161.94 133.248 161.996 133.012 162.056 132.78C162.184 132.24 162.288 131.688 162.38 131.128C162.74 131.26 164.028 131.708 164.696 131.66C165.364 131.612 166.192 131.368 166.576 130.78C166.668 130.643 166.731 130.489 166.761 130.327C166.791 130.164 166.787 129.998 166.749 129.837C166.712 129.676 166.641 129.525 166.543 129.393C166.444 129.261 166.319 129.15 166.176 129.068C165.288 128.608 163.7 129.468 163.068 130.08C163.028 130.12 162.624 130.624 162.408 130.904C162.464 130.564 162.516 130.228 162.56 129.888C162.684 128.896 162.776 127.888 162.872 126.888L162.968 125.972C163.096 126.02 164.616 126.584 165.368 126.532C166.032 126.484 166.864 126.24 167.248 125.652C167.34 125.515 167.403 125.361 167.433 125.199C167.463 125.036 167.459 124.87 167.421 124.709C167.384 124.548 167.313 124.397 167.215 124.265C167.116 124.133 166.991 124.022 166.848 123.94C165.96 123.48 164.368 124.34 163.74 124.952C163.692 125 163.112 125.724 162.976 125.916C163.044 125.24 163.124 124.568 163.228 123.916C163.362 123.026 163.553 122.146 163.8 121.28C163.86 121.304 165.444 121.9 166.2 121.844C166.864 121.8 167.696 121.556 168.08 120.964C168.172 120.827 168.235 120.673 168.265 120.511C168.295 120.348 168.291 120.182 168.253 120.021C168.216 119.86 168.145 119.709 168.047 119.577C167.948 119.445 167.823 119.334 167.68 119.252C166.792 118.796 165.204 119.652 164.572 120.268C164.524 120.316 163.9 121.096 163.8 121.244C163.8 121.196 163.824 121.14 163.84 121.092C164.113 120.231 164.462 119.395 164.884 118.596C165.108 118.152 165.352 117.74 165.596 117.348C165.88 117.488 167.196 118.12 167.876 118.148C168.556 118.176 169.392 118.024 169.84 117.48C169.947 117.355 170.028 117.208 170.076 117.05C170.124 116.892 170.139 116.726 170.12 116.562C170.1 116.398 170.048 116.239 169.964 116.097C169.881 115.954 169.769 115.83 169.636 115.732C168.804 115.18 167.132 115.844 166.436 116.4C166.4 116.432 166.036 116.8 165.796 117.04L166.132 116.508C166.552 115.88 166.972 115.332 167.332 114.848C167.548 114.572 167.752 114.332 167.94 114.104C168.292 114.104 169.704 114.056 170.32 113.768C170.936 113.48 171.612 112.968 171.76 112.268C171.808 112.102 171.819 111.928 171.793 111.758C171.767 111.587 171.705 111.424 171.61 111.28C171.516 111.136 171.391 111.014 171.245 110.922C171.099 110.83 170.935 110.771 170.764 110.748ZM159.776 137.404C159.176 138.784 158.624 139.912 158.228 140.692L158.012 141.12H157.944C157.924 140.968 157.904 140.8 157.876 140.612C157.756 139.732 157.568 138.48 157.272 137.012C157.176 136.54 157.068 136.036 156.952 135.524C157.419 135.336 157.876 135.122 158.32 134.884C158.923 135.403 159.597 135.834 160.32 136.164C160.128 136.584 159.952 137.008 159.776 137.404Z" fill="#263238"/>
<path d="M165.537 117.096C165.537 117.096 165.853 115.932 165.865 115.856C165.989 114.972 165.705 113.196 164.809 112.76C164.657 112.696 164.495 112.664 164.331 112.666C164.166 112.668 164.004 112.703 163.854 112.77C163.704 112.836 163.57 112.933 163.459 113.054C163.348 113.175 163.262 113.317 163.209 113.472C162.969 114.136 163.273 114.948 163.637 115.508C164.053 116.164 165.533 117.096 165.537 117.096Z" fill="#263238"/>
</svg>
