<svg width="201" height="200" viewBox="0 0 201 200" fill="none" xmlns="http://www.w3.org/2000/svg">
<path opacity="0.7" d="M27.672 66.836C27.672 66.836 16.52 95.636 32.192 124.636C47.864 153.636 80.144 168.956 105.98 182.056C131.816 195.156 158.644 188.776 171.392 167.32C184.14 145.864 166.656 130.548 166.632 99.952C166.608 69.356 171.212 61.256 154.632 35.408C138.052 9.55998 97.408 3.83598 66.672 23.008C35.936 42.18 27.672 66.836 27.672 66.836Z" fill="white"/>
<path d="M14.5443 113.344C12.6732 104.707 13.4812 95.7055 16.8603 87.5401C21.4803 76.1201 31.4043 68.0001 42.5283 63.2681C58.6883 56.4001 74.5563 56.2521 87.7003 42.7681C91.7523 38.6081 95.1563 33.8441 99.3003 29.7681C111.508 17.7681 129.38 19.2121 142.72 28.7401C170.556 48.6161 180.568 87.98 179.02 120.524C178.324 135.128 171.352 148.724 160.316 158.304C135.356 179.976 92.9723 176.332 64.3163 165.02C42.9003 156.584 19.5643 136.904 14.5443 113.344Z" fill="#EDEFFF"/>
<path d="M119.505 159.12C119.508 160.75 119.112 162.357 118.353 163.8H116.181C116.116 163.801 116.052 163.807 115.989 163.82C115.8 163.863 115.631 163.97 115.51 164.122C115.39 164.274 115.324 164.462 115.325 164.656V167.288C113.49 168.611 111.264 169.279 109.004 169.184C106.744 169.089 104.582 168.236 102.866 166.762C101.149 165.289 99.9785 163.281 99.542 161.062C99.1054 158.842 99.4284 156.54 100.459 154.527C101.489 152.513 103.167 150.905 105.223 149.961C107.278 149.017 109.592 148.792 111.791 149.322C113.99 149.852 115.946 151.107 117.345 152.884C118.745 154.661 119.505 156.858 119.505 159.12V159.12Z" stroke="#263238" stroke-width="0.4" stroke-linecap="round" stroke-linejoin="round"/>
<path d="M111.889 162.832C113.289 163.003 114.665 163.334 115.989 163.82C115.8 163.863 115.631 163.97 115.51 164.122C115.39 164.274 115.324 164.462 115.325 164.656V167.288C113.167 168.845 110.481 169.485 107.853 169.067C105.225 168.65 102.87 167.209 101.301 165.06C101.357 164.961 101.417 164.861 101.481 164.76C101.857 164.148 104.125 163.16 107.341 162.824C107.544 162.317 107.608 161.764 107.525 161.224C107.525 161.132 107.501 161.048 107.489 160.964C107.308 160.808 107.157 160.619 107.045 160.408C106.88 159.996 106.746 159.572 106.645 159.14C106.653 159.235 106.63 159.33 106.581 159.412C106.345 159.632 106.129 159.252 106.097 158.92C106.065 158.588 105.653 158.008 105.557 157.68C105.525 157.53 105.535 157.375 105.585 157.231C105.635 157.086 105.724 156.958 105.841 156.86C105.88 156.842 105.923 156.834 105.966 156.838C106.009 156.843 106.05 156.858 106.085 156.884C105.941 156.306 105.895 155.709 105.949 155.116C105.973 154.752 106.076 154.397 106.25 154.076C106.424 153.755 106.665 153.475 106.957 153.256C106.957 153.256 107.357 152.1 109.601 152.108C112.037 152.108 112.281 153.436 112.281 153.436C112.281 153.436 113.541 154.276 113.045 156.88C113.077 156.856 113.116 156.841 113.156 156.837C113.196 156.834 113.237 156.842 113.273 156.86C113.391 156.957 113.48 157.085 113.53 157.23C113.58 157.375 113.589 157.53 113.557 157.68C113.465 158.008 113.049 158.584 113.017 158.92C112.985 159.256 112.769 159.632 112.533 159.412C112.506 159.375 112.49 159.333 112.485 159.288C112.385 159.715 112.251 160.134 112.085 160.54C111.965 160.775 111.794 160.98 111.585 161.14C111.536 161.493 111.55 161.852 111.625 162.2C111.67 162.426 111.76 162.641 111.889 162.832V162.832Z" stroke="#263238" stroke-width="0.4" stroke-linecap="round" stroke-linejoin="round"/>
<path d="M119.384 163.8H116.18C115.707 163.8 115.324 164.183 115.324 164.656V167.86C115.324 168.333 115.707 168.716 116.18 168.716H119.384C119.857 168.716 120.24 168.333 120.24 167.86V164.656C120.24 164.183 119.857 163.8 119.384 163.8Z" stroke="#263238" stroke-width="0.4" stroke-linecap="round" stroke-linejoin="round"/>
<path d="M119.005 165.976H118.061V165.032H117.501V165.976H116.557V166.536H117.501V167.48H118.061V166.536H119.005V165.976Z" fill="#263238"/>
<path d="M56.6963 78.036C56.6988 80.3018 56.1497 82.5341 55.0963 84.54H51.7363C51.5093 84.54 51.2916 84.6302 51.131 84.7908C50.9705 84.9513 50.8803 85.169 50.8803 85.396V89.396C48.3309 91.2329 45.2376 92.1587 42.0983 92.0245C38.9589 91.8902 35.956 90.7038 33.5726 88.656C31.1893 86.6083 29.5641 83.8183 28.9587 80.7349C28.3532 77.6516 28.8026 74.4542 30.2346 71.6572C31.6665 68.8602 33.9978 66.6263 36.8533 65.3148C39.7088 64.0034 42.9224 63.6907 45.9772 64.4271C49.0319 65.1635 51.7501 66.9061 53.6944 69.3746C55.6387 71.843 56.696 74.8938 56.6963 78.036V78.036Z" stroke="#263238" stroke-width="0.4" stroke-linecap="round" stroke-linejoin="round"/>
<path d="M49.8196 69.7471L32.9558 73.0281C32.3551 73.145 31.9629 73.7267 32.0798 74.3274L34.2455 85.4586C34.3624 86.0593 34.944 86.4515 35.5447 86.3346L52.4085 83.0536C53.0092 82.9367 53.4014 82.355 53.2845 81.7544L51.1188 70.6231C51.0019 70.0224 50.4202 69.6302 49.8196 69.7471Z" stroke="#263238" stroke-width="0.4" stroke-linecap="round" stroke-linejoin="round"/>
<path d="M32.165 74.7479L41.301 79.7159C41.8449 80.0104 42.4742 80.1068 43.0812 79.9886C43.6883 79.8704 44.2354 79.5449 44.629 79.0679L51.221 71.0439" stroke="#263238" stroke-width="0.4" stroke-linecap="round" stroke-linejoin="round"/>
<path d="M35.6445 85.2441L41.2845 79.7161" stroke="#263238" stroke-width="0.4" stroke-linecap="round" stroke-linejoin="round"/>
<path d="M51.8243 82.096L44.6123 79.068" stroke="#263238" stroke-width="0.4" stroke-linecap="round" stroke-linejoin="round"/>
<path d="M56.8609 84.54H51.7369C51.2641 84.54 50.8809 84.9233 50.8809 85.396V90.52C50.8809 90.9928 51.2641 91.376 51.7369 91.376H56.8609C57.3336 91.376 57.7169 90.9928 57.7169 90.52V85.396C57.7169 84.9233 57.3336 84.54 56.8609 84.54Z" stroke="#263238" stroke-width="0.4" stroke-linecap="round" stroke-linejoin="round"/>
<path d="M56.0006 87.572H54.6886V86.26H53.9126V87.572H52.6006V88.348H53.9126V89.66H54.6886V88.348H56.0006V87.572Z" fill="#263238"/>
<path d="M166.756 134.12H154.036L154.284 133.72C155.361 131.944 155.908 129.897 155.86 127.82V127.796C155.865 127.2 155.986 126.611 156.218 126.063C156.451 125.514 156.788 125.017 157.213 124.599C157.637 124.181 158.14 123.85 158.692 123.626C159.244 123.403 159.834 123.29 160.43 123.294C161.026 123.299 161.615 123.42 162.163 123.652C162.712 123.884 163.21 124.222 163.628 124.647C164.046 125.071 164.376 125.574 164.6 126.126C164.824 126.678 164.937 127.268 164.932 127.864C164.853 129.88 165.369 131.875 166.416 133.6L166.756 134.12Z" stroke="#263238" stroke-width="0.4" stroke-linecap="round" stroke-linejoin="round"/>
<path d="M159.368 123.172C159.165 122.968 159.026 122.709 158.97 122.426C158.914 122.144 158.943 121.851 159.053 121.585C159.164 121.319 159.35 121.092 159.59 120.932C159.829 120.772 160.11 120.687 160.398 120.687C160.686 120.687 160.968 120.772 161.207 120.932C161.447 121.092 161.633 121.319 161.743 121.585C161.854 121.851 161.883 122.144 161.827 122.426C161.77 122.709 161.632 122.968 161.428 123.172" stroke="#263238" stroke-width="0.4" stroke-linecap="round" stroke-linejoin="round"/>
<path d="M167.085 134.124H153.713C153.415 134.124 153.173 134.366 153.173 134.664V134.888C153.173 135.186 153.415 135.428 153.713 135.428H167.085C167.383 135.428 167.625 135.186 167.625 134.888V134.664C167.625 134.366 167.383 134.124 167.085 134.124Z" stroke="#263238" stroke-width="0.4" stroke-linecap="round" stroke-linejoin="round"/>
<path d="M160.396 138.732C161.01 138.732 161.508 138.234 161.508 137.62C161.508 137.006 161.01 136.508 160.396 136.508C159.782 136.508 159.284 137.006 159.284 137.62C159.284 138.234 159.782 138.732 160.396 138.732Z" stroke="#263238" stroke-width="0.4" stroke-linecap="round" stroke-linejoin="round"/>
<path d="M172.556 130.672C172.559 132.639 172.084 134.577 171.172 136.32H168.372C168.145 136.32 167.928 136.41 167.767 136.571C167.607 136.731 167.516 136.949 167.516 137.176V140.536C165.302 142.134 162.615 142.941 159.887 142.827C157.159 142.712 154.548 141.683 152.476 139.905C150.403 138.127 148.99 135.704 148.462 133.025C147.934 130.345 148.323 127.567 149.566 125.135C150.809 122.704 152.835 120.762 155.316 119.622C157.797 118.481 160.589 118.208 163.244 118.848C165.899 119.487 168.261 121.001 169.951 123.145C171.641 125.29 172.56 127.941 172.56 130.672H172.556Z" stroke="#263238" stroke-width="0.4" stroke-linecap="round" stroke-linejoin="round"/>
<path d="M172.589 136.32H168.369C167.896 136.32 167.513 136.703 167.513 137.176V141.396C167.513 141.869 167.896 142.252 168.369 142.252H172.589C173.061 142.252 173.445 141.869 173.445 141.396V137.176C173.445 136.703 173.061 136.32 172.589 136.32Z" stroke="#263238" stroke-width="0.4" stroke-linecap="round" stroke-linejoin="round"/>
<path d="M171.952 138.952H170.816V137.812H170.144V138.952H169.004V139.624H170.144V140.76H170.816V139.624H171.952V138.952Z" fill="#263238"/>
<path d="M168.076 28.464H78.3845C76.8491 28.464 75.6045 29.7086 75.6045 31.244V118.564C75.6045 120.099 76.8491 121.344 78.3845 121.344H168.076C169.612 121.344 170.856 120.099 170.856 118.564V31.244C170.856 29.7086 169.612 28.464 168.076 28.464Z" fill="white"/>
<path d="M156.1 114H134.02C132.641 114 131.319 113.452 130.343 112.477C129.368 111.502 128.82 110.179 128.82 108.8C128.82 107.421 129.368 106.098 130.343 105.123C131.319 104.148 132.641 103.6 134.02 103.6H156.1C157.479 103.6 158.802 104.148 159.777 105.123C160.752 106.098 161.3 107.421 161.3 108.8C161.3 110.179 160.752 111.502 159.777 112.477C158.802 113.452 157.479 114 156.1 114Z" fill="#465EFD" stroke="#263238" stroke-width="0.4" stroke-linecap="round" stroke-linejoin="round"/>
<path d="M139.416 111.352H138.572L138.428 110.384H137.4L137.256 111.352H136.5L137.352 106.032H138.576L139.416 111.352ZM137.508 109.664H138.308L137.908 106.972L137.508 109.664Z" fill="#263238"/>
<path d="M142.221 109.368V110.072C142.221 110.924 141.797 111.412 140.977 111.412C140.157 111.412 139.729 110.924 139.729 110.072V107.308C139.729 106.456 140.153 105.972 140.977 105.972C141.801 105.972 142.221 106.456 142.221 107.308V107.824H141.421V107.256C141.421 106.876 141.253 106.732 140.985 106.732C140.717 106.732 140.553 106.876 140.553 107.256V110.128C140.553 110.508 140.721 110.644 140.985 110.644C141.249 110.644 141.421 110.508 141.421 110.128V109.368H142.221Z" fill="#263238"/>
<path d="M145.156 109.368V110.072C145.156 110.924 144.728 111.412 143.908 111.412C143.088 111.412 142.664 110.924 142.664 110.072V107.308C142.664 106.456 143.088 105.972 143.908 105.972C144.728 105.972 145.156 106.456 145.156 107.308V107.824H144.356V107.256C144.356 106.876 144.188 106.732 143.924 106.732C143.66 106.732 143.492 106.876 143.492 107.256V110.128C143.492 110.508 143.656 110.644 143.924 110.644C144.192 110.644 144.356 110.508 144.356 110.128V109.368H145.156Z" fill="#263238"/>
<path d="M146.5 108.272H147.648V109.032H146.5V110.592H147.944V111.352H145.664V106.032H147.944V106.8H146.5V108.272Z" fill="#263238"/>
<path d="M150.94 107.344V108.036C150.94 108.888 150.54 109.352 149.692 109.352H149.292V111.352H148.456V106.032H149.7C150.528 106.032 150.94 106.496 150.94 107.344ZM149.3 106.8V108.6H149.7C149.968 108.6 150.1 108.48 150.1 108.1V107.3C150.1 106.9 149.956 106.8 149.7 106.8H149.3Z" fill="#263238"/>
<path d="M151.084 106.032H153.668V106.8H152.796V111.36H151.96V106.8H151.084V106.032Z" fill="#263238"/>
<path d="M112.432 114H90.3562C88.9771 114 87.6545 113.452 86.6793 112.477C85.7041 111.502 85.1563 110.179 85.1562 108.8C85.1563 107.421 85.7041 106.098 86.6793 105.123C87.6545 104.148 88.9771 103.6 90.3562 103.6H112.432C113.811 103.6 115.134 104.148 116.109 105.123C117.084 106.098 117.632 107.421 117.632 108.8C117.632 110.179 117.084 111.502 116.109 112.477C115.134 113.452 113.811 114 112.432 114Z" fill="#465EFD"/>
<path opacity="0.6" d="M112.432 114H90.3562C88.9771 114 87.6545 113.452 86.6793 112.477C85.7041 111.502 85.1563 110.179 85.1562 108.8C85.1563 107.421 85.7041 106.098 86.6793 105.123C87.6545 104.148 88.9771 103.6 90.3562 103.6H112.432C113.811 103.6 115.134 104.148 116.109 105.123C117.084 106.098 117.632 107.421 117.632 108.8C117.632 110.179 117.084 111.502 116.109 112.477C115.134 113.452 113.811 114 112.432 114Z" fill="white"/>
<path d="M112.432 114H90.3562C88.9771 114 87.6545 113.452 86.6793 112.477C85.7041 111.502 85.1563 110.179 85.1562 108.8V108.8C85.1563 107.421 85.7041 106.098 86.6793 105.123C87.6545 104.148 88.9771 103.6 90.3562 103.6H112.432C113.811 103.6 115.134 104.148 116.109 105.123C117.084 106.098 117.632 107.421 117.632 108.8V108.8C117.632 110.179 117.084 111.502 116.109 112.477C115.134 113.452 113.811 114 112.432 114V114Z" stroke="#263238" stroke-width="0.4" stroke-linecap="round" stroke-linejoin="round"/>
<path d="M92.248 106.032H93.572C94.408 106.032 94.816 106.496 94.816 107.344V110.036C94.816 110.888 94.416 111.352 93.572 111.352H92.248V106.032ZM93.0841 106.792V110.592H93.556C93.82 110.592 93.98 110.452 93.98 110.072V107.308C93.98 106.928 93.82 106.792 93.556 106.792H93.0841Z" fill="#263238"/>
<path d="M96.1846 108.272H97.3326V109.032H96.1846V110.592H97.6286V111.352H95.3486V106.032H97.6286V106.8H96.1846V108.272Z" fill="#263238"/>
<path d="M100.572 109.368V110.072C100.572 110.924 100.148 111.412 99.3241 111.412C98.5001 111.412 98.0801 110.924 98.0801 110.072V107.308C98.0801 106.456 98.5041 105.972 99.3241 105.972C100.144 105.972 100.572 106.456 100.572 107.308V107.824H99.7721V107.256C99.7721 106.876 99.6081 106.732 99.3401 106.732C99.0721 106.732 98.9081 106.876 98.9081 107.256V110.128C98.9081 110.508 99.0761 110.644 99.3401 110.644C99.6041 110.644 99.7721 110.508 99.7721 110.128V109.368H100.572Z" fill="#263238"/>
<path d="M101.08 106.032H101.916V110.592H103.3V111.352H101.088L101.08 106.032Z" fill="#263238"/>
<path d="M103.66 106.032H104.5V111.352H103.66V106.032Z" fill="#263238"/>
<path d="M105.864 107.496V111.352H105.112V106.032H106.16L107.004 109.232V106.032H107.748V111.352H106.9L105.864 107.496Z" fill="#263238"/>
<path d="M109.185 108.272H110.333V109.032H109.185V110.592H110.629V111.352H108.349V106.032H110.629V106.8H109.185V108.272Z" fill="#263238"/>
<path d="M144.9 70.3999C144.9 74.6886 143.628 78.8809 141.246 82.4468C138.863 86.0128 135.477 88.7921 131.514 90.4333C127.552 92.0745 123.192 92.5039 118.986 91.6672C114.78 90.8305 110.916 88.7653 107.883 85.7328C104.851 82.7002 102.786 78.8365 101.949 74.6302C101.112 70.4239 101.542 66.064 103.183 62.1018C104.824 58.1395 107.603 54.7529 111.169 52.3703C114.735 49.9876 118.928 48.7159 123.216 48.7159C126.067 48.7048 128.892 49.258 131.527 50.3438C134.163 51.4296 136.558 53.0264 138.574 55.0422C140.59 57.058 142.186 59.4528 143.272 62.0886C144.358 64.7245 144.911 67.5492 144.9 70.3999Z" fill="#465EFD" stroke="#263238" stroke-width="0.4" stroke-linecap="round" stroke-linejoin="round"/>
<path d="M141.24 82.4599C139.298 85.3588 136.686 87.7464 133.624 89.4198C130.562 91.0933 127.142 92.0032 123.654 92.0723C120.165 92.1414 116.711 91.3677 113.586 89.8168C110.46 88.2659 107.755 85.9836 105.7 83.1639C105.828 82.9479 105.956 82.7319 106.1 82.5199C106.9 81.1959 111.796 79.0999 118.72 78.3479C120.283 78.1759 121.852 78.0825 123.424 78.0679C125.126 78.0517 126.827 78.1506 128.516 78.3639C134.532 79.1159 139.536 81.1079 141.24 82.4599Z" fill="#757575" stroke="#263238" stroke-width="0.4" stroke-linecap="round" stroke-linejoin="round"/>
<path d="M129.021 78.8759C128.481 79.8321 127.692 80.6247 126.739 81.1703C125.786 81.7159 124.703 81.9942 123.605 81.9759C120.405 81.9759 118.089 79.2079 118.089 79.2079C119.209 78.2039 119.289 76.3399 119.113 74.8719C119.04 74.1525 118.906 73.4406 118.713 72.7439H128.257C127.677 74.6519 127.697 76.0199 127.921 76.9719C128.237 78.3759 129.021 78.8759 129.021 78.8759Z" fill="white" stroke="#263238" stroke-width="0.4" stroke-linecap="round" stroke-linejoin="round"/>
<path d="M127.9 76.9719C121.004 78.7799 119.636 74.8399 119.636 74.8399L119.112 74.8719C119.039 74.1525 118.905 73.4406 118.712 72.7439H128.256C127.656 74.6519 127.676 76.0199 127.9 76.9719Z" fill="#263238"/>
<path d="M130.312 66.0439C130.312 66.0439 131.08 65.2079 131.46 65.4839C131.715 65.6922 131.907 65.9667 132.016 66.2772C132.125 66.5877 132.146 66.9222 132.076 67.2439C131.872 67.9559 130.98 69.1919 130.908 69.9119C130.836 70.6319 130.38 71.4479 129.872 70.9719C129.364 70.4959 130.312 66.0439 130.312 66.0439Z" fill="white" stroke="#263238" stroke-width="0.4" stroke-linecap="round" stroke-linejoin="round"/>
<path d="M116.616 66.0439C116.616 66.0439 115.848 65.2079 115.468 65.4839C115.214 65.6922 115.022 65.9667 114.913 66.2772C114.804 66.5877 114.783 66.9222 114.852 67.2439C115.056 67.9559 115.948 69.1919 116.02 69.9119C116.092 70.6319 116.548 71.4479 117.056 70.9719C117.564 70.4959 116.616 66.0439 116.616 66.0439Z" fill="white" stroke="#263238" stroke-width="0.4" stroke-linecap="round" stroke-linejoin="round"/>
<path d="M123.3 56.3999C132.968 56.3999 130.668 69.2719 128.9 73.4039C128.276 74.8559 125.036 76.7599 123.472 76.7599C122.016 76.7599 118.672 74.4839 118.096 73.1199C116.288 68.9599 114.1 56.3999 123.3 56.3999Z" fill="white" stroke="#263238" stroke-width="0.4" stroke-linecap="round" stroke-linejoin="round"/>
<path d="M124.94 64.3399C124.94 64.3399 127.456 63.5599 128.236 65.1159" stroke="#263238" stroke-width="0.4" stroke-linecap="round" stroke-linejoin="round"/>
<path d="M126.804 66.4559C126.804 66.7519 126.652 66.9919 126.468 66.9919C126.284 66.9919 126.128 66.7519 126.128 66.4559C126.128 66.1599 126.28 65.9199 126.468 65.9199C126.656 65.9199 126.804 66.1599 126.804 66.4559Z" fill="#263238"/>
<path d="M121.988 64.3399C121.988 64.3399 119.472 63.5599 118.692 65.1159" stroke="#263238" stroke-width="0.4" stroke-linecap="round" stroke-linejoin="round"/>
<path d="M120.124 66.4559C120.124 66.7519 120.276 66.9919 120.46 66.9919C120.644 66.9919 120.8 66.7519 120.8 66.4559C120.8 66.1599 120.648 65.9199 120.46 65.9199C120.272 65.9199 120.124 66.1599 120.124 66.4559Z" fill="#263238"/>
<path d="M127.3 59.6839C124.878 60.4576 122.275 60.4576 119.852 59.6839C119.852 59.6839 118.544 59.6079 118.032 60.2639C117.52 60.9199 118.032 62.9439 118.168 63.7679C118.304 64.5919 117.036 65.1639 117.208 67.2439L116.716 67.9639C116.716 67.9639 115.352 64.6119 115.696 61.7319C116.04 58.8519 117.86 57.7319 117.86 57.7319C117.86 57.7319 118.688 55.2399 123.552 55.2599C128.796 55.2799 129.324 58.1159 129.324 58.1159C129.324 58.1159 132.876 60.4879 130.248 68.2079L129.68 67.2479C129.816 66.2239 129.58 65.1853 129.016 64.3199C128.556 63.6519 129.288 61.6439 129.116 60.6119C128.944 59.5799 127.3 59.6839 127.3 59.6839Z" fill="#263238"/>
<path d="M124.041 65.9199C124.041 65.9199 124.069 68.2719 124.685 69.0359C125.001 69.4359 124.385 70.2759 123.433 70.4279" stroke="#263238" stroke-width="0.4" stroke-linecap="round" stroke-linejoin="round"/>
<path d="M121.349 71.7919C121.415 72.0343 121.529 72.2611 121.684 72.4595C121.838 72.6579 122.03 72.8238 122.249 72.9479C122.909 73.2319 124.917 73.1119 125.297 72.8759C125.677 72.6399 125.865 71.8679 125.865 71.8679" fill="white"/>
<path d="M121.349 71.7919C121.415 72.0343 121.529 72.2611 121.684 72.4595C121.838 72.6579 122.03 72.8238 122.249 72.9479C122.909 73.2319 124.917 73.1119 125.297 72.8759C125.677 72.6399 125.865 71.8679 125.865 71.8679" stroke="#263238" stroke-width="0.4" stroke-linecap="round" stroke-linejoin="round"/>
<path d="M121.137 71.7439C122.782 72.0965 124.483 72.0965 126.129 71.7439" stroke="#263238" stroke-width="0.4" stroke-linecap="round" stroke-linejoin="round"/>
<path d="M128.236 59.7839C128.236 59.7839 127.156 61.3839 123.604 61.7319C123.875 61.48 124.09 61.1732 124.232 60.8319C123.695 61.2253 123.085 61.5076 122.437 61.6621C121.79 61.8167 121.117 61.8404 120.46 61.7319C119.784 61.6404 119.096 61.7277 118.465 61.9853C117.833 62.2429 117.28 62.6617 116.86 63.1999L116.26 65.9199C116.26 65.9199 114.136 63.5199 115.648 59.6639L115.104 60.1159C115.104 60.1159 115.708 54.9599 121.904 54.7719L121.152 54.3199C121.152 54.3199 127.324 53.0039 129.74 57.0679C129.74 57.0679 131.888 57.4679 132.416 61.1839L131.812 60.7839C131.812 60.7839 132.768 63.8679 130.784 66.4479C130.768 66.4559 128.236 62.3719 128.236 59.7839Z" fill="#263238"/>
<path opacity="0.5" d="M146.804 42.2079H99.66C99.3417 42.2079 99.0365 42.0814 98.8114 41.8564C98.5864 41.6313 98.46 41.3261 98.46 41.0079C98.46 40.6896 98.5864 40.3844 98.8114 40.1593C99.0365 39.9343 99.3417 39.8079 99.66 39.8079H146.804C147.122 39.8079 147.427 39.9343 147.652 40.1593C147.878 40.3844 148.004 40.6896 148.004 41.0079C148.004 41.3261 147.878 41.6313 147.652 41.8564C147.427 42.0814 147.122 42.2079 146.804 42.2079Z" fill="#263238"/>
<g opacity="0.4">
<path d="M143.44 95.4639H103.02C102.958 95.4639 102.896 95.4516 102.838 95.4276C102.781 95.4036 102.729 95.3685 102.685 95.3242C102.641 95.28 102.606 95.2275 102.583 95.1697C102.559 95.112 102.547 95.0502 102.548 94.9879C102.548 94.8627 102.598 94.7427 102.686 94.6541C102.775 94.5656 102.895 94.5159 103.02 94.5159H143.44C143.502 94.5154 143.564 94.5272 143.622 94.5507C143.679 94.5741 143.732 94.6088 143.776 94.6527C143.82 94.6966 143.856 94.7488 143.88 94.8063C143.904 94.8639 143.916 94.9256 143.916 94.9879C143.916 95.1141 143.866 95.2352 143.776 95.3245C143.687 95.4137 143.566 95.4639 143.44 95.4639Z" fill="#2C2D2E"/>
<path d="M139.44 97.9999H107.02C106.958 97.9999 106.896 97.9876 106.838 97.9636C106.781 97.9396 106.729 97.9045 106.685 97.8602C106.641 97.816 106.606 97.7635 106.583 97.7057C106.559 97.648 106.547 97.5862 106.548 97.5239C106.548 97.3987 106.598 97.2787 106.686 97.1901C106.775 97.1016 106.895 97.0519 107.02 97.0519H139.44C139.502 97.0514 139.564 97.0632 139.622 97.0867C139.679 97.1102 139.732 97.1448 139.776 97.1887C139.82 97.2326 139.856 97.2848 139.88 97.3423C139.904 97.3999 139.916 97.4616 139.916 97.5239C139.916 97.6501 139.866 97.7712 139.776 97.8605C139.687 97.9497 139.566 97.9999 139.44 97.9999Z" fill="#2C2D2E"/>
</g>
<path d="M144.576 80.4479H137.836C136.776 80.4479 135.916 81.3075 135.916 82.3679V89.1079C135.916 90.1683 136.776 91.0279 137.836 91.0279H144.576C145.636 91.0279 146.496 90.1683 146.496 89.1079V82.3679C146.496 81.3075 145.636 80.4479 144.576 80.4479Z" fill="#263238" stroke="white" stroke-width="0.4" stroke-linecap="round" stroke-linejoin="round"/>
<path d="M143.84 85.1399H141.808V83.1079H140.608V85.1399H138.576V86.3399H140.608V88.3679H141.808V86.3399H143.84V85.1399Z" fill="white"/>
<path opacity="0.3" d="M168.184 32.9039C168.184 33.29 168.07 33.6674 167.855 33.9884C167.641 34.3094 167.336 34.5596 166.979 34.7073C166.623 34.8551 166.23 34.8937 165.851 34.8184C165.473 34.7431 165.125 34.5572 164.852 34.2842C164.579 34.0112 164.393 33.6634 164.318 33.2847C164.242 32.9061 164.281 32.5136 164.429 32.1569C164.577 31.8002 164.827 31.4954 165.148 31.2809C165.469 31.0664 165.846 30.9519 166.232 30.9519C166.75 30.9519 167.246 31.1576 167.613 31.5236C167.979 31.8897 168.184 32.3862 168.184 32.9039Z" fill="#2C2D2E"/>
<path opacity="0.3" d="M162.585 32.9039C162.585 33.29 162.47 33.6674 162.256 33.9884C162.041 34.3094 161.736 34.5596 161.38 34.7073C161.023 34.8551 160.631 34.8937 160.252 34.8184C159.873 34.7431 159.525 34.5572 159.252 34.2842C158.979 34.0112 158.793 33.6634 158.718 33.2847C158.643 32.9061 158.682 32.5136 158.829 32.1569C158.977 31.8002 159.227 31.4954 159.548 31.2809C159.869 31.0664 160.247 30.9519 160.633 30.9519C161.15 30.9519 161.647 31.1576 162.013 31.5236C162.379 31.8897 162.585 32.3862 162.585 32.9039Z" fill="#2C2D2E"/>
<path opacity="0.3" d="M131.084 111.6C131.084 111.6 133.588 112.14 133.676 113.964C133.868 117.884 133.86 118.004 131.108 117.656C131.108 117.656 129.444 119.94 125.412 119.284L124.032 121.356H116.9C118.88 118.992 120.472 117.036 121.168 116.108C123.724 112.704 135.668 107.688 135.668 107.688C135.668 107.688 135.62 108.988 131.084 111.6Z" fill="black" fill-opacity="0.7"/>
<path d="M168.076 28.464H78.3845C76.8491 28.464 75.6045 29.7086 75.6045 31.244V118.564C75.6045 120.099 76.8491 121.344 78.3845 121.344H168.076C169.612 121.344 170.856 120.099 170.856 118.564V31.244C170.856 29.7086 169.612 28.464 168.076 28.464Z" stroke="#263238" stroke-width="0.4" stroke-linecap="round" stroke-linejoin="round"/>
<path d="M40.9835 177.656C40.9835 177.656 41.6875 172.532 42.2115 170.42C42.7355 168.308 45.8115 160.136 46.4795 155.56L38.5835 149.268C38.5835 149.268 35.6075 164.616 35.6075 167.024L33.9795 172.268" fill="white"/>
<path d="M40.9835 177.656C40.9835 177.656 41.6875 172.532 42.2115 170.42C42.7355 168.308 45.8115 160.136 46.4795 155.56L38.5835 149.268C38.5835 149.268 35.6075 164.616 35.6075 167.024L33.9795 172.268" stroke="#263238" stroke-width="0.4" stroke-linecap="round" stroke-linejoin="round"/>
<path d="M48.8112 161.348C47.1605 160.089 45.5312 158.756 43.9232 157.348C41.5992 155.348 39.3352 153.172 37.1592 150.888C37.6856 148.335 38.3398 145.811 39.1192 143.324C39.8622 140.985 41.4473 139.005 43.5672 137.768L43.6472 137.72L44.0192 137.512C44.2512 137.388 44.4752 137.276 44.6912 137.18C45.4019 136.852 46.1482 136.608 46.9152 136.452L48.6152 158.8L48.8112 161.348Z" fill="#465EFD"/>
<path opacity="0.3" d="M48.8112 161.348C47.1605 160.089 45.5312 158.756 43.9232 157.348C41.5992 155.348 39.3352 153.172 37.1592 150.888C37.6856 148.335 38.3398 145.811 39.1192 143.324C39.8622 140.985 41.4473 139.005 43.5672 137.768L43.6472 137.72L44.0192 137.512C44.2512 137.388 44.4752 137.276 44.6912 137.18C45.4019 136.852 46.1482 136.608 46.9152 136.452L48.6152 158.8L48.8112 161.348Z" fill="black" fill-opacity="0.7"/>
<path d="M48.8112 161.348C47.1605 160.089 45.5312 158.756 43.9232 157.348C41.5992 155.348 39.3352 153.172 37.1592 150.888C37.6856 148.335 38.3398 145.811 39.1192 143.324C39.8622 140.985 41.4473 139.005 43.5672 137.768L43.6472 137.72L44.0192 137.512C44.2512 137.388 44.4752 137.276 44.6912 137.18C45.4019 136.852 46.1482 136.608 46.9152 136.452L48.6152 158.8L48.8112 161.348Z" stroke="#263238" stroke-width="0.4" stroke-linecap="round" stroke-linejoin="round"/>
<path d="M40.583 148.928C40.583 148.928 41.503 155.18 45.727 157.564" stroke="#263238" stroke-width="0.4" stroke-linecap="round" stroke-linejoin="round"/>
<path d="M82.9317 154C82.9317 157.2 80.3277 170.144 80.3277 170.144L80.2397 181.516C80.2397 181.516 74.8517 183.304 66.1557 183.304C55.4997 183.304 50.7797 180.452 50.3637 180.184L50.3317 180.164L51.9317 172.28C51.9317 172.28 43.5317 152.456 43.3677 151.776C43.1077 150.768 42.8837 149.748 42.7037 148.732C42.236 146.385 42.1134 143.982 42.3397 141.6C42.4643 140.254 42.8603 138.948 43.5037 137.76C43.5491 137.68 43.5971 137.6 43.6477 137.52C43.8645 137.17 44.118 136.844 44.4037 136.548L44.4797 136.468C44.7433 136.204 45.0254 135.96 45.3237 135.736C45.4237 135.66 45.5277 135.588 45.6317 135.516L45.8917 135.34L46.0597 135.232L46.2797 135.096L46.6197 134.9C52.9357 131.4 64.6917 131.94 64.6917 131.94C64.8213 131.898 64.9557 131.872 65.0917 131.864H65.1197C65.3545 131.85 65.5901 131.869 65.8197 131.92C68.7477 132.488 74.1077 137.268 78.0557 142.72C79.2414 144.329 80.2879 146.037 81.1837 147.824C82.2637 150 82.9317 152.144 82.9317 154Z" fill="#465EFD"/>
<path opacity="0.3" d="M82.8596 152.904C80.7385 152.245 78.736 151.253 76.9276 149.964C74.0916 150.496 71.3556 147.672 70.6436 146.16L79.9476 145.56C80.3996 146.304 80.8076 147.052 81.1716 147.792C82.0094 149.392 82.5796 151.119 82.8596 152.904Z" fill="black" fill-opacity="0.7"/>
<path opacity="0.3" d="M53.8239 174.304C53.8239 174.304 55.9159 183.256 50.3639 180.172L50.3319 180.152L51.9319 172.268C51.9319 172.268 43.5319 152.444 43.3679 151.764C43.1079 150.756 42.8839 149.736 42.7039 148.72C42.2374 146.377 42.1148 143.978 42.3399 141.6C42.4645 140.254 42.8605 138.948 43.5039 137.76C43.5493 137.68 43.5973 137.6 43.6479 137.52C43.8647 137.17 44.1182 136.844 44.4039 136.548L44.4799 136.468C44.7435 136.204 45.0256 135.96 45.3239 135.736C45.4239 135.66 45.5279 135.588 45.6319 135.516L45.8919 135.34L46.0599 135.232L46.2799 135.096L46.6199 134.9C52.4319 135.348 58.8919 138.1 60.1399 143.748C60.1399 143.748 59.6119 152.4 57.7119 155.564C56.5319 157.536 56.1319 166.744 61.9679 164.08C60.1439 173.272 53.8239 174.304 53.8239 174.304Z" fill="black" fill-opacity="0.7"/>
<path d="M50.3319 180.152L51.9319 172.268C51.9319 172.268 43.5319 152.444 43.3679 151.764C43.1079 150.756 42.8839 149.736 42.7039 148.72C42.2374 146.377 42.1148 143.978 42.3399 141.6C42.4645 140.254 42.8605 138.948 43.5039 137.76C43.5493 137.68 43.5973 137.6 43.6479 137.52C43.8647 137.17 44.1182 136.844 44.4039 136.548L44.4799 136.468C44.7435 136.204 45.0256 135.96 45.3239 135.736V135.736C51.1479 131.336 64.6919 131.94 64.6919 131.94C64.8215 131.898 64.9559 131.872 65.0919 131.864H65.1199C65.3547 131.85 65.5903 131.869 65.8199 131.92C68.7479 132.488 74.1079 137.268 78.0559 142.72C79.2416 144.329 80.2881 146.037 81.1839 147.824C82.2759 150.036 82.9439 152.176 82.9439 154.02C82.9439 157.22 80.3399 170.164 80.3399 170.164L80.2519 181.536" stroke="#263238" stroke-width="0.4" stroke-linecap="round" stroke-linejoin="round"/>
<path d="M70.5554 113.824C70.0794 113.232 67.9554 111.824 67.9554 111.824C67.5554 109.06 67.3074 105.372 64.4434 102.512C60.5274 98.6039 51.4914 99.8399 48.5314 105.668C42.6234 117.312 53.7914 128.28 67.4594 125.96C68.6234 125.764 69.4074 124.624 69.5674 119.212L69.9314 118.456C69.9314 118.456 69.5555 117.164 69.4395 116.516C70.1275 115.852 70.8994 114.256 70.5554 113.824Z" fill="white" stroke="#263238" stroke-width="0.4" stroke-linecap="round" stroke-linejoin="round"/>
<path d="M67.1955 107.5C66.845 108.07 66.5757 108.687 66.3955 109.332" stroke="#263238" stroke-width="0.4" stroke-linecap="round" stroke-linejoin="round"/>
<path d="M67.4033 112.708C67.4033 112.708 68.3553 113.284 68.7873 115.108" stroke="#263238" stroke-width="0.4" stroke-linecap="round" stroke-linejoin="round"/>
<path d="M69.8077 118.728C69.8077 118.728 69.4357 119.328 67.8877 119.152" stroke="#263238" stroke-width="0.4" stroke-linecap="round" stroke-linejoin="round"/>
<path d="M65.7478 101C65.7478 101 69.3478 99.5159 68.3078 106.556C67.2678 113.596 62.0638 121.968 57.6758 120.4L57.7518 119.772C57.7518 119.772 61.5918 121.288 64.8238 114.612C68.0558 107.936 67.7878 101.812 65.9398 102.888L65.7478 101Z" fill="#263238"/>
<path d="M65.4234 111.912C65.4234 111.912 64.0474 115.54 62.9474 116.712C62.9474 116.712 62.5034 115.324 61.4434 115.312C60.3834 115.3 59.4434 112.48 59.4434 112.48L65.4234 111.912Z" fill="#263238"/>
<path d="M63.9435 112.08C63.9435 112.08 61.4155 118.244 63.2675 123.004C65.1195 127.764 70.3395 131.34 70.3395 131.34L68.6555 130.576C68.6555 130.576 64.2235 127.66 62.6755 122.612C61.7658 119.41 61.7437 116.021 62.6115 112.808L63.9435 112.08Z" fill="#263238"/>
<path d="M43.1111 103.876C43.1111 103.876 38.8991 105.6 39.1271 111.844C39.3551 118.088 43.6351 123.516 44.4951 131.476C45.2431 138.4 37.6951 144.496 45.3391 152.588C45.3391 152.588 41.9911 147.388 43.0111 141.572C44.0311 135.756 47.5311 136.592 44.9351 127.124C42.3391 117.656 36.8311 112.056 42.5351 106.02L43.1111 103.876Z" fill="#263238"/>
<path d="M67.6718 129.74C59.9678 125.444 62.0718 116.272 62.0718 116.272C67.8678 112 68.6398 104 67.5758 101.94C66.5118 99.88 64.1918 100.584 64.1918 100.584C54.9558 96.184 43.5878 100.292 41.4278 106.76C38.6638 115.044 43.3878 121.408 45.6958 128.36C47.7678 134.608 42.9678 135.74 42.9838 141.96C42.0758 153.56 53.9718 158.404 53.9718 158.404C53.6586 158.215 53.3995 157.949 53.2194 157.631C53.0393 157.313 52.9444 156.954 52.9438 156.588C52.9438 155.32 56.1878 155.32 58.3238 151.748C60.0958 148.784 60.2358 141.556 60.8278 138.06C61.6278 134.896 62.6278 132.368 64.6958 131.908C70.1438 130.688 74.8438 135.976 74.8438 135.976C74.8438 135.976 75.3798 134.036 67.6718 129.74Z" fill="#263238"/>
<g opacity="0.3">
<path d="M65.4237 101.852C66.2637 103.328 59.9597 111.136 57.6757 117.884C55.3917 124.632 57.7157 128.588 57.7157 128.588" stroke="white" stroke-width="0.4" stroke-linecap="round" stroke-linejoin="round"/>
<path d="M51.3 103.876C51.3 103.876 44.44 109.784 48.344 120.588C52.248 131.392 50.52 138.84 49.22 144.664C47.92 150.488 48.976 152.488 50.56 154.072" stroke="white" stroke-width="0.4" stroke-linecap="round" stroke-linejoin="round"/>
<path d="M59.9317 121.708C59.9317 121.708 63.6117 125.852 61.0877 131.84C58.5637 137.828 57.1917 142.108 56.2397 146.768C55.2877 151.428 53.1797 152.588 53.1797 152.588" stroke="white" stroke-width="0.4" stroke-linecap="round" stroke-linejoin="round"/>
<path d="M60.1436 100.868C60.1436 100.868 56.3476 100.692 54.5436 105.544C52.7396 110.396 54.4396 118.78 53.8076 121.708" stroke="white" stroke-width="0.4" stroke-linecap="round" stroke-linejoin="round"/>
<path d="M50.3317 100.868C50.3317 100.868 44.7637 101.1 42.9877 108.8C41.2117 116.5 46.5597 122.972 47.1277 128.972C47.6957 134.972 44.3277 140.528 44.5317 144.664C44.7357 148.8 47.1277 150.984 47.1277 150.984" stroke="white" stroke-width="0.4" stroke-linecap="round" stroke-linejoin="round"/>
</g>
<path d="M85.1479 132.544C85.1479 132.544 97.3319 133.452 99.0719 133.452C100.812 133.452 116.952 117.452 119.8 114.304C122.648 111.156 135 107.2 135 107.2C135 107.2 134.844 108.508 130.096 110.692C130.096 110.692 132.54 111.452 132.468 113.276C132.312 117.2 132.292 117.32 129.58 116.724C129.58 116.724 127.72 118.856 123.764 117.844C123.764 117.844 114.272 129.652 110.076 135.044C105.88 140.436 104.144 142.244 102.56 142.832C100.976 143.42 81.6719 144.676 81.6719 144.676L85.1479 132.544Z" fill="white" stroke="#263238" stroke-width="0.4" stroke-linecap="round" stroke-linejoin="round"/>
<path d="M69.8075 146.9C76.1275 150.856 86.7275 145.952 86.7275 145.952C86.7275 145.952 88.6275 137.344 86.7275 131.836C86.7275 131.836 73.4355 129.248 66.1555 131.744C65.7764 131.887 65.4315 132.108 65.1429 132.393C64.8543 132.677 64.6283 133.019 64.4795 133.396" fill="#465EFD"/>
<path d="M69.8075 146.9C76.1275 150.856 86.7275 145.952 86.7275 145.952C86.7275 145.952 88.6275 137.344 86.7275 131.836C86.7275 131.836 73.4355 129.248 66.1555 131.744C65.7764 131.887 65.4315 132.108 65.1429 132.393C64.8543 132.677 64.6283 133.019 64.4795 133.396" stroke="#263238" stroke-width="0.4" stroke-linecap="round" stroke-linejoin="round"/>
<path d="M85.0479 131.548C86.1067 135.978 86.194 140.585 85.3039 145.052" stroke="#263238" stroke-width="0.4" stroke-linecap="round" stroke-linejoin="round"/>
<path d="M82.9312 137.084C82.9312 137.084 78.5312 144.26 72.9072 145.316" stroke="#263238" stroke-width="0.4" stroke-linecap="round" stroke-linejoin="round"/>
<path d="M78.8401 148.228C78.8401 148.228 75.9161 151.696 72.3281 151.696" stroke="#263238" stroke-width="0.4" stroke-linecap="round" stroke-linejoin="round"/>
<path d="M76.0234 148.444C76.2977 149.123 76.2977 149.881 76.0234 150.56C76.0234 150.56 76.5194 152.644 75.5834 155.648C74.8954 157.864 74.9274 164.148 74.6074 168.568C74.6074 168.568 75.6234 173.9 75.5834 181.916" stroke="#263238" stroke-width="0.4" stroke-linecap="round" stroke-linejoin="round"/>
<path d="M69.2598 131.012C69.2598 131.012 74.7038 130.652 77.9198 134.448" stroke="#263238" stroke-width="0.4" stroke-linecap="round" stroke-linejoin="round"/>
<path d="M131.471 114.352C131.471 114.352 130.671 115.736 129.731 116.052C129.731 116.052 129.659 117.496 127.243 117.98" stroke="#263238" stroke-width="0.4" stroke-linecap="round" stroke-linejoin="round"/>
<path d="M130.804 115.26C131.032 115.394 131.206 115.605 131.292 115.856" stroke="#263238" stroke-width="0.4" stroke-linecap="round" stroke-linejoin="round"/>
<path d="M51.916 172.268C51.916 172.268 57.54 179.6 62.9 176.964" stroke="#263238" stroke-width="0.4" stroke-linecap="round" stroke-linejoin="round"/>
<path d="M66.1554 157.084C66.1554 157.084 62.3594 168.736 53.8154 168.208" stroke="#263238" stroke-width="0.4" stroke-linecap="round" stroke-linejoin="round"/>
</svg>
